<?xml version="1.0" standalone="no"?>
<!DOCTYPE svg PUBLIC "-//W3C//DTD SVG 1.1//EN" "http://www.w3.org/Graphics/SVG/1.1/DTD/svg11.dtd" >
<svg>
<metadata>
Created by FontForge 20120731 at Sat Nov  9 04:30:10 2019
 By www
Copyright (C)2016 Commercial Type.
</metadata>
<defs>
<font id="ShopifySans-Black" horiz-adv-x="552" >
  <font-face 
    font-family="Shopify Sans Black"
    font-weight="900"
    font-stretch="normal"
    units-per-em="1000"
    panose-1="1 0 2 1 1 0 0 1 0 1"
    ascent="800"
    descent="-200"
    x-height="523"
    cap-height="715"
    bbox="-232 -225 1146 1126"
    underline-thickness="65"
    underline-position="-26"
    unicode-range="U+000D-FB02"
  />
<missing-glyph horiz-adv-x="520" 
 />
    <glyph glyph-name=".notdef" horiz-adv-x="520" 
 />
    <glyph glyph-name=".null" horiz-adv-x="0" 
 />
    <glyph glyph-name="nonmarkingreturn" unicode="&#xd;" horiz-adv-x="175" 
 />
    <glyph glyph-name="NULL" horiz-adv-x="0" 
 />
    <glyph glyph-name="NULL" horiz-adv-x="0" 
 />
    <glyph glyph-name="space" unicode=" " horiz-adv-x="175" 
 />
    <glyph glyph-name="exclam" unicode="!" horiz-adv-x="317" 
d="M62 715h195l-26 -484h-143zM159 -10q-21 0 -39.5 7.5t-32 20t-21.5 29.5t-8 37t8 37.5t21.5 30t32 20t39.5 7.5t39 -7.5t31.5 -20t21.5 -30t8 -37.5t-8 -37t-21.5 -29.5t-31.5 -20t-39 -7.5z" />
    <glyph glyph-name="quotedbl" unicode="&#x22;" horiz-adv-x="437" 
d="M37 715h162l-21 -263h-120zM239 715h161l-20 -263h-121z" />
    <glyph glyph-name="numbersign" unicode="#" horiz-adv-x="556" 
d="M282 250h-62l-20 -139h-117l20 139h-67v135h87l12 78h-76v132h95l18 120h117l-18 -120h62l18 120h116l-17 -120h69v-132h-89l-11 -78h78v-135h-98l-20 -139h-117zM302 385l12 78h-62l-12 -78h62z" />
    <glyph glyph-name="dollar" unicode="$" horiz-adv-x="611" 
d="M585 217q0 -45 -14.5 -85t-44.5 -70t-75.5 -49t-106.5 -23v-119h-70v119q-119 9 -182 69.5t-68 160.5h171q3 -41 20.5 -66t58.5 -33v163q-64 14 -109 33.5t-73.5 46.5t-41.5 63t-13 84q0 45 16.5 83t47 65.5t74.5 44.5t99 20v87h70v-88q103 -8 162.5 -59t67.5 -151h-167
q-4 32 -18.5 51t-44.5 27v-151q56 -12 100.5 -28.5t76 -42t48 -62.5t16.5 -90zM203 525q0 -29 16.5 -44.5t54.5 -25.5v138q-34 -5 -52.5 -22t-18.5 -46zM415 195q0 30 -16.5 46.5t-54.5 27.5v-148q35 6 53 26t18 48z" />
    <glyph glyph-name="percent" unicode="%" horiz-adv-x="786" 
d="M205 372q-85 0 -132 47.5t-47 122.5v13q0 37 13.5 68t37.5 53t57 34t72 12t72 -11.5t57 -32.5t37.5 -51.5t13.5 -67.5v-14q0 -38 -12.5 -69.5t-36 -54.5t-57 -36t-75.5 -13zM593 715h93l-490 -715h-94zM206 472q26 0 39 18t13 51v16q0 32 -13 50t-39 18q-24 0 -38.5 -18
t-14.5 -50v-16q0 -34 14 -51.5t39 -17.5zM579 -11q-85 0 -132 47t-47 123v13q0 37 14 68t38 53t57 34.5t71 12.5t71 -11.5t57 -33.5t38 -52.5t14 -67.5v-13q0 -38 -12.5 -70t-36 -55t-57 -35.5t-75.5 -12.5zM580 89q26 0 39.5 18t13.5 51v15q0 32 -13.5 50t-39.5 18
q-24 0 -38 -18t-14 -50v-16q0 -34 14 -51t38 -17z" />
    <glyph glyph-name="ampersand" unicode="&#x26;" horiz-adv-x="711" 
d="M444 52q-35 -29 -76.5 -46t-104.5 -17q-109 0 -171.5 54t-62.5 156v13q0 69 37 117t110 82q-26 34 -36 67t-10 62q1 46 18.5 80.5t47 57.5t69 35t84.5 12q42 0 79.5 -10.5t65.5 -31.5t44.5 -52.5t16.5 -73.5q-1 -111 -140 -175l84 -113l45 102h149l-104 -224l109 -147
h-215zM352 602q-24 0 -39.5 -15.5t-15.5 -44.5q1 -26 10.5 -46.5t27.5 -40.5q35 19 51 40.5t16 50.5q-1 26 -14 41t-36 15zM207 216q0 -42 22 -67.5t66 -25.5q39 0 74 30l-118 159q-20 -14 -32 -36t-12 -53v-7z" />
    <glyph glyph-name="quotesingle" unicode="'" horiz-adv-x="243" 
d="M37 715h169l-21 -263h-127z" />
    <glyph glyph-name="parenleft" unicode="(" horiz-adv-x="341" 
d="M196 -147q-28 34 -56.5 79t-51.5 102t-37.5 126.5t-14.5 152.5q0 84 14.5 153.5t37.5 126.5t51.5 101.5t56.5 79.5h133q-24 -38 -47 -85.5t-41.5 -105t-29.5 -125t-11 -145.5t11 -145.5t29.5 -124.5t41.5 -104.5t47 -85.5h-133v0z" />
    <glyph glyph-name="parenright" unicode=")" horiz-adv-x="341" 
d="M11 -147q24 38 47 85.5t41.5 105t29.5 125t11 145.5t-11 145t-29.5 124.5t-41.5 105t-47 85.5h133q28 -34 56.5 -79t51.5 -102t37.5 -126.5t14.5 -152.5t-14.5 -152.5t-37.5 -126.5t-51.5 -102.5t-56.5 -79.5h-133z" />
    <glyph glyph-name="asterisk" unicode="*" horiz-adv-x="427" 
d="M54 457l88 87l-114 13l34 119l106 -51l-23 119h138l-24 -119l106 51l33 -119l-113 -13l87 -87l-105 -74l-54 111l-53 -111z" />
    <glyph glyph-name="plus" unicode="+" horiz-adv-x="542" 
d="M200 277h-164v126h164v182h141v-182h164v-126h-164v-181h-141v181z" />
    <glyph glyph-name="comma" unicode="," horiz-adv-x="282" 
d="M241 60q0 -81 -50 -122t-141 -42v70q75 8 78 48q-43 2 -65 24.5t-22 59.5q0 40 28.5 63t67.5 23q45 0 74.5 -29.5t29.5 -80.5v-14v0z" />
    <glyph glyph-name="hyphen" unicode="-" horiz-adv-x="367" 
d="M48 350h271v-129h-271v129z" />
    <glyph glyph-name="period" unicode="." horiz-adv-x="279" 
d="M139 -10q-43 0 -71 27.5t-28 67.5q0 41 28 69t71 28q21 0 39 -7.5t31.5 -20.5t21 -31t7.5 -38q0 -40 -28.5 -67.5t-70.5 -27.5z" />
    <glyph glyph-name="slash" unicode="/" horiz-adv-x="422" 
d="M282 775h137l-303 -922h-138z" />
    <glyph glyph-name="zero" unicode="0" horiz-adv-x="677" 
d="M336 -12q-69 0 -124.5 20.5t-94.5 60.5t-60 99.5t-21 137.5v102q0 78 22.5 137.5t63 99t96 60t120.5 20.5t120.5 -19t96 -58t63.5 -98t23 -139v-99q0 -79 -21.5 -139.5t-61.5 -101.5t-96 -62t-126 -21zM340 140q57 0 82 41t25 127v101q0 85 -25.5 125.5t-82.5 40.5
t-83 -40t-26 -126v-101q0 -88 26.5 -128t83.5 -40z" />
    <glyph glyph-name="one" unicode="1" horiz-adv-x="417" 
d="M152 520l-125 -77v164l152 108h167v-715h-194v520z" />
    <glyph glyph-name="two" unicode="2" horiz-adv-x="580" 
d="M549 0h-538v88l217 202q59 55 91.5 102t32.5 100v7q0 38 -17 58t-51 20q-35 0 -55.5 -23.5t-26.5 -85.5h-178q4 129 74 193t194 64q63 0 110 -16t79 -45.5t48 -70.5t16 -91v-8q0 -40 -10 -74t-30 -65.5t-49.5 -62t-68.5 -61.5l-103 -84h265v-147z" />
    <glyph glyph-name="three" unicode="3" horiz-adv-x="605" 
d="M572 206q0 -49 -17 -89t-51 -68.5t-84.5 -44.5t-117.5 -16q-140 0 -205.5 61.5t-69.5 176.5h176q4 -44 23.5 -69t65.5 -25q82 0 82 80v8q0 42 -21 63t-69 21h-48v124h46q47 0 68.5 21t21.5 60v3q0 33 -18 51.5t-53 18.5q-36 0 -57.5 -21.5t-26.5 -64.5h-172
q2 52 19.5 94.5t50.5 72.5t80.5 46t109.5 16q118 0 184.5 -51t66.5 -145v-3q0 -60 -32.5 -98.5t-89.5 -52.5q62 -11 100 -51.5t38 -109.5v-8v0z" />
    <glyph glyph-name="four" unicode="4" horiz-adv-x="634" 
d="M339 142h-322v85l273 488h237v-438h84v-135h-84v-142h-188v142zM343 562l-156 -285h156v285z" />
    <glyph glyph-name="five" unicode="5" horiz-adv-x="591" 
d="M559 230q0 -55 -18 -100t-52.5 -76.5t-85.5 -48.5t-116 -17q-66 0 -114.5 17t-81 47.5t-48.5 72.5t-18 92h179q5 -37 22 -58.5t59 -21.5q41 0 59.5 26.5t18.5 71.5v8q0 50 -24 75.5t-68 25.5q-39 0 -66 -15.5t-44 -35.5h-111l13 422h457v-146h-313l-5 -164
q20 28 57.5 50.5t98.5 22.5q44 0 81 -14.5t63.5 -44t41.5 -73t15 -101.5v-15v0z" />
    <glyph glyph-name="six" unicode="6" horiz-adv-x="628" 
d="M600 224q0 -55 -18.5 -99t-54 -74.5t-85.5 -46.5t-113 -16q-77 0 -132 22t-91 63t-53 98.5t-17 129.5v94q0 80 22.5 141.5t62 103.5t93.5 63.5t117 21.5q115 0 180.5 -49.5t75.5 -155.5h-181q-5 29 -21 44t-48 15q-51 0 -78 -41t-29 -127v-32q22 39 58.5 62t99.5 23
q44 0 82.5 -13t67.5 -40t45.5 -67t16.5 -94v-26zM326 129q39 0 61.5 25.5t22.5 68.5v24q0 42 -21.5 67t-63.5 25q-38 0 -61.5 -25t-23.5 -67v-24q0 -41 22 -67.5t64 -26.5z" />
    <glyph glyph-name="seven" unicode="7" horiz-adv-x="541" 
d="M301 0h-197l208 555h-289v160h509v-80z" />
    <glyph glyph-name="eight" unicode="8" horiz-adv-x="616" 
d="M307 -12q-63 0 -114.5 13t-87.5 38.5t-56 64.5t-20 90v17q0 60 32 103t96 65q-48 19 -74.5 54t-26.5 89v8q0 48 19.5 84.5t54 61t81 37t99.5 12.5q54 0 100 -12.5t80 -37t53 -61t19 -83.5v-8q0 -55 -27 -89.5t-73 -54.5q63 -20 93.5 -62t30.5 -102v-16q0 -51 -19.5 -90.5
t-56 -66.5t-88 -40.5t-115.5 -13.5zM310 431q32 0 54 19.5t22 56.5v12q0 35 -21.5 54t-54.5 19q-32 0 -54.5 -19t-22.5 -54v-12q0 -37 23 -56.5t54 -19.5zM308 125q39 0 63 21.5t24 62.5v24q0 40 -24 62t-62 22t-62.5 -21t-24.5 -64v-22q0 -42 24 -63.5t62 -21.5z" />
    <glyph glyph-name="nine" unicode="9" horiz-adv-x="629" 
d="M593 310q0 -161 -77 -241t-217 -80q-117 0 -184.5 50.5t-77.5 154.5h181q5 -29 22 -44t52 -15q54 0 79.5 37.5t27.5 122.5v37q-21 -38 -56.5 -60.5t-97.5 -22.5q-46 0 -85.5 13t-69 39.5t-46 66.5t-16.5 94v26q0 54 19 98t55 75t87 47.5t114 16.5q73 0 127.5 -22
t90.5 -62.5t54 -98.5t18 -130v-102zM302 586q-41 0 -63.5 -27t-22.5 -68v-23q0 -42 21 -67.5t63 -25.5q39 0 63 24.5t24 68.5v20q0 44 -22 71t-63 27z" />
    <glyph glyph-name="colon" unicode=":" horiz-adv-x="284" 
d="M141 278q-42 0 -70 27t-28 68q0 40 28 68t70 28q43 0 71.5 -28t28.5 -68q0 -41 -28.5 -68t-71.5 -27zM141 -10q-42 0 -70 27.5t-28 67.5q0 20 7.5 38t20.5 31t31 20.5t39 7.5q43 0 71.5 -28t28.5 -69q0 -40 -28.5 -67.5t-71.5 -27.5z" />
    <glyph glyph-name="semicolon" unicode=";" horiz-adv-x="287" 
d="M142 279q-21 0 -39 7.5t-31.5 21t-21 31t-7.5 38.5q0 20 7.5 38t21 31t31.5 20.5t39 7.5q44 0 72.5 -28t28.5 -69q0 -42 -28.5 -70t-72.5 -28zM52 -34q75 7 78 48q-42 1 -64.5 24t-22.5 60q0 40 28.5 63t68.5 23q45 0 74.5 -29.5t29.5 -80.5v-14q0 -81 -50.5 -122
t-141.5 -42v70z" />
    <glyph glyph-name="less" unicode="&#x3c;" horiz-adv-x="491" 
d="M38 306v33l406 234v-157l-182 -93l182 -99v-153z" />
    <glyph glyph-name="equal" unicode="=" horiz-adv-x="532" 
d="M37 359v119h459v-119h-459zM37 168v119h459v-119h-459z" />
    <glyph glyph-name="greater" unicode="&#x3e;" horiz-adv-x="491" 
d="M46 229l182 92l-182 99v154l406 -235v-32l-406 -235v157z" />
    <glyph glyph-name="question" unicode="?" horiz-adv-x="530" 
d="M323 231h-163v21q0 28 7.5 51t20 43t28.5 38t34 37q26 28 45.5 50.5t19.5 54.5q0 28 -13 42.5t-44 14.5q-29 0 -47.5 -20.5t-23.5 -61.5h-169q4 110 71.5 167t180.5 57q112 0 172 -47.5t60 -138.5q0 -50 -20.5 -85t-52.5 -70q-18 -19 -36 -36t-33 -33.5t-25 -34
t-12 -36.5v-13zM241 -10q-21 0 -39.5 7.5t-32 20t-21.5 29.5t-8 37t8 37.5t21.5 30.5t32 20.5t39.5 7.5q43 0 72 -27.5t29 -68.5q0 -20 -8 -37t-21.5 -29.5t-32 -20t-39.5 -7.5z" />
    <glyph glyph-name="at" unicode="@" horiz-adv-x="868" 
d="M435 -159q-95 0 -170.5 30.5t-127.5 83.5t-79.5 125t-27.5 156v32q0 94 34 171.5t91.5 133t134 86t161.5 30.5t156.5 -25.5t123 -71.5t80 -110.5t28.5 -143.5v-34q0 -68 -17 -116t-44.5 -78.5t-63.5 -44.5t-75 -14q-62 0 -96.5 21.5t-45.5 60.5q-18 -37 -49 -60t-79 -23
q-69 0 -110.5 47.5t-39.5 135.5l2 26q1 48 15 87.5t38 67t56 43t70 15.5q45 0 69 -17t35 -43l7 52h141l-31 -271q-4 -32 6 -51t38 -19q19 0 37 10t31.5 32t21.5 57t8 84v33q0 64 -21.5 116t-61.5 89t-98 57.5t-130 20.5q-74 0 -136.5 -25.5t-108 -72t-71.5 -112t-26 -146.5
v-31q0 -69 20.5 -128.5t61 -103.5t102 -69t143.5 -25q46 0 84 8t68.5 20.5t53 29t38.5 33.5h87q-22 -34 -55 -63t-75.5 -50.5t-93.5 -33.5t-109 -12zM417 164q32 0 51 29.5t20 74.5l1 25q0 32 -13 50t-42 18q-31 0 -50 -28t-19 -73l-3 -24q-1 -32 12.5 -52t42.5 -20z" />
    <glyph glyph-name="A" unicode="A" horiz-adv-x="683" 
d="M433 136h-207l-34 -136h-180l199 715h261l199 -715h-204zM259 270h141l-71 283z" />
    <glyph glyph-name="B" unicode="B" horiz-adv-x="638" 
d="M62 715h289q119 0 177 -50t58 -135v-6q0 -63 -34 -101t-91 -52q66 -12 107 -52.5t41 -116.5v-2q0 -100 -64 -150t-190 -50h-293v715zM318 430q44 0 64.5 17.5t20.5 59.5v4q0 41 -22 57t-64 16h-65v-154h66zM323 132q93 0 93 87v4q0 45 -23.5 65.5t-74.5 20.5h-66v-177h71
z" />
    <glyph glyph-name="C" unicode="C" horiz-adv-x="689" 
d="M668 254q-5 -66 -29 -116t-63.5 -83.5t-92.5 -50t-117 -16.5q-81 0 -143 23t-104 66t-63 104t-21 137v78q0 76 25 137t68.5 104t103 65.5t128.5 22.5q63 0 115.5 -14.5t91.5 -46t63.5 -80.5t30.5 -118h-200q-8 54 -31.5 80t-70.5 26q-57 0 -89.5 -44t-32.5 -128v-83
q0 -85 32 -129t94 -44q45 0 74.5 26.5t37.5 83.5h193v0z" />
    <glyph glyph-name="D" unicode="D" horiz-adv-x="695" 
d="M313 715q172 0 259.5 -79.5t87.5 -237.5v-74q0 -157 -87.5 -240.5t-259.5 -83.5h-251v715h251zM257 565v-415h50q81 0 116 42t35 131v71q0 90 -36 130.5t-117 40.5h-48z" />
    <glyph glyph-name="E" unicode="E" horiz-adv-x="566" 
d="M62 715h458v-151h-264v-130h210v-139h-210v-144h279v-151h-473v715z" />
    <glyph glyph-name="F" unicode="F" horiz-adv-x="539" 
d="M62 715h450v-151h-255v-159h206v-145h-206v-260h-195v715z" />
    <glyph glyph-name="G" unicode="G" horiz-adv-x="717" 
d="M684 284q0 -68 -19.5 -122.5t-59 -93t-98.5 -59.5t-138 -21q-81 0 -143 23.5t-104.5 66t-64.5 103.5t-22 136v80q0 76 25.5 137t70 103.5t105.5 65t132 22.5q59 0 111.5 -13.5t93 -43.5t66.5 -77.5t31 -115.5h-193q-8 51 -34 74t-74 23q-60 0 -96 -45.5t-36 -128.5v-85
q0 -38 7.5 -70.5t24 -55.5t42.5 -36t64 -13q62 0 90 32.5t30 84.5h-116v137h305v-108v0z" />
    <glyph glyph-name="H" unicode="H" horiz-adv-x="719" 
d="M62 715h194v-274h207v274h194v-715h-194v287h-207v-287h-194v715z" />
    <glyph glyph-name="I" unicode="I" horiz-adv-x="328" 
d="M65 715h197v-715h-197v715z" />
    <glyph glyph-name="J" unicode="J" horiz-adv-x="441" 
d="M149 -8q-46 0 -73.5 6.5t-47.5 16.5v147q15 -6 33 -9.5t44 -3.5q40 0 64 20t24 72v474h195v-477q0 -121 -59.5 -183.5t-179.5 -62.5z" />
    <glyph glyph-name="K" unicode="K" horiz-adv-x="674" 
d="M257 308v-308h-195v715h195v-288l194 288h201l-231 -329l243 -386h-220z" />
    <glyph glyph-name="L" unicode="L" horiz-adv-x="534" 
d="M61 715h196v-563h246v-152h-442v715z" />
    <glyph glyph-name="M" unicode="M" horiz-adv-x="865" 
d="M62 715h248l122 -362l123 362h247v-715h-193v444l-158 -444h-62l-156 444v-444h-171v715z" />
    <glyph glyph-name="N" unicode="N" horiz-adv-x="716" 
d="M62 715h218l201 -397v397h173v-715h-189l-230 449v-449h-173v715z" />
    <glyph glyph-name="O" unicode="O" horiz-adv-x="751" 
d="M374 -12q-77 0 -140 23.5t-107 66t-68 103t-24 135.5v81q0 76 26.5 136.5t72 103t108 65.5t134.5 23q73 0 135.5 -21.5t108 -63t71 -101.5t25.5 -138v-80q0 -76 -24.5 -137.5t-69.5 -105t-108 -67t-140 -23.5zM376 143q64 0 101 45.5t37 129.5v81q0 82 -37.5 127
t-100.5 45t-101 -44t-38 -129v-81q0 -85 38 -129.5t101 -44.5z" />
    <glyph glyph-name="P" unicode="P" horiz-adv-x="636" 
d="M62 715h277q143 0 207.5 -58t64.5 -169v-18q0 -110 -66.5 -164t-197.5 -54h-91v-252h-194v715zM330 385q48 0 71 20.5t23 65.5v15q0 46 -23.5 64.5t-69.5 18.5h-75v-184h74z" />
    <glyph glyph-name="Q" unicode="Q" horiz-adv-x="751" 
d="M560 -115l-106 110q-19 -4 -39 -5.5t-41 -1.5q-77 0 -140 23.5t-107 66t-68 103t-24 135.5v81q0 76 26.5 136.5t72 103t108 65.5t134.5 23q73 0 135.5 -21.5t108 -63t71 -101.5t25.5 -138v-80q0 -84 -29 -149t-82 -109l67 -70zM237 313q0 -61 20.5 -101.5t56.5 -58.5
l112 96l56 -58q32 46 32 123v85q0 82 -37.5 127t-100.5 45t-101 -44t-38 -129v-85z" />
    <glyph glyph-name="R" unicode="R" horiz-adv-x="668" 
d="M62 715h282q276 0 276 -218v-18q0 -37 -8.5 -65t-23.5 -49t-36 -36.5t-46 -25.5l150 -303h-204l-127 266h-69v-266h-194v715zM334 392q48 0 72.5 19t24.5 63v16q0 42 -24 59.5t-72 17.5h-79v-175h78z" />
    <glyph glyph-name="S" unicode="S" horiz-adv-x="610" 
d="M580 219q0 -50 -17.5 -92t-52 -73t-85 -48.5t-116.5 -17.5q-134 0 -206.5 57t-77.5 176h187q4 -45 25 -68t72 -23q40 0 60.5 19t20.5 50q0 38 -26 53t-89 26q-63 13 -107 31.5t-72.5 45.5t-41.5 64.5t-13 88.5q0 49 18 89t51.5 68.5t81.5 44t109 15.5q121 0 187.5 -52.5
t74.5 -163.5h-182q-5 40 -25 57.5t-56 17.5q-73 0 -73 -62q0 -16 5 -27.5t17 -20t32.5 -15t51.5 -12.5q56 -11 101.5 -26t78 -40.5t50 -64.5t17.5 -97z" />
    <glyph glyph-name="T" unicode="T" horiz-adv-x="579" 
d="M191 564h-170v151h537v-151h-171v-564h-196v564z" />
    <glyph glyph-name="U" unicode="U" horiz-adv-x="706" 
d="M648 715v-446q0 -143 -78.5 -212t-217.5 -69q-142 0 -218.5 69.5t-76.5 209.5v448h195v-441q0 -66 21.5 -98.5t79.5 -32.5q57 0 78 32.5t21 100.5v439h196z" />
    <glyph glyph-name="V" unicode="V" horiz-adv-x="668" 
d="M476 715h180l-205 -715h-230l-210 715h208l128 -505z" />
    <glyph glyph-name="W" unicode="W" horiz-adv-x="920" 
d="M13 715h196l82 -441l94 441h155l102 -445l85 445h180l-156 -715h-186l-99 421l-101 -421h-198z" />
    <glyph glyph-name="X" unicode="X" horiz-adv-x="695" 
d="M337 252l-119 -252h-199l195 367l-181 348h219l102 -221l99 221h197l-169 -341l196 -374h-220z" />
    <glyph glyph-name="Y" unicode="Y" horiz-adv-x="628" 
d="M221 304l-214 411h211l110 -237l109 237h184l-204 -410v-305h-196v304z" />
    <glyph glyph-name="Z" unicode="Z" horiz-adv-x="573" 
d="M541 0h-529v88l307 482h-277v145h509v-85l-308 -482h298v-148z" />
    <glyph glyph-name="bracketleft" unicode="[" horiz-adv-x="384" 
d="M61 774h289v-125h-118v-671h118v-125h-289v921z" />
    <glyph glyph-name="backslash" unicode="\" horiz-adv-x="422" 
d="M443 -146h-138l-304 921h138z" />
    <glyph glyph-name="bracketright" unicode="]" horiz-adv-x="384" 
d="M34 -147v125h118v671h-118v125h288v-921h-288z" />
    <glyph glyph-name="asciicircum" unicode="^" horiz-adv-x="505" 
d="M176 715h153l153 -316h-150l-81 170l-81 -170h-147z" />
    <glyph glyph-name="underscore" unicode="_" horiz-adv-x="415" 
d="M0 -72h415v-84h-415v84z" />
    <glyph glyph-name="grave" unicode="`" horiz-adv-x="402" 
d="M44 744h176l50 -166h-126z" />
    <glyph glyph-name="a" unicode="a" horiz-adv-x="559" 
d="M339 60q-8 -13 -20 -25.5t-30 -23t-42.5 -17t-55.5 -6.5q-33 0 -63.5 8.5t-53 27.5t-36 48t-13.5 70v7q0 91 66 128t190 37h53v18q0 34 -11 55t-48 21q-30 0 -43.5 -16.5t-17.5 -40.5h-172q6 93 71 139t172 46q112 0 171.5 -47.5t59.5 -146.5v-342h-177v60zM260 111
q31 0 52.5 16.5t21.5 45.5v40h-47q-43 0 -62 -11t-19 -40v-6q0 -45 54 -45z" />
    <glyph glyph-name="b" unicode="b" horiz-adv-x="611" 
d="M230 748v-306q20 39 58 66.5t97 27.5q41 0 77.5 -16t64 -47.5t43.5 -79t16 -111.5v-42q0 -64 -16.5 -111.5t-44 -78.5t-64.5 -46.5t-79 -15.5q-57 0 -96 26t-56 68v-82h-184v748h184zM226 244q0 -59 23 -88.5t64 -29.5t63.5 29t22.5 86v42q0 60 -23 88.5t-63 28.5
t-63.5 -30.5t-23.5 -87.5v-38z" />
    <glyph glyph-name="c" unicode="c" horiz-adv-x="558" 
d="M539 203q-5 -104 -68.5 -159.5t-183.5 -55.5q-56 0 -104 15.5t-83 47t-55.5 79t-20.5 111.5v36q0 64 21 112.5t57 81t84.5 49t102.5 16.5q47 0 90.5 -11t77 -35.5t55 -65t24.5 -99.5h-172q-7 71 -70 71q-39 0 -61.5 -27.5t-22.5 -86.5v-41q0 -120 87 -120q31 0 51.5 20
t25.5 62h165v0z" />
    <glyph glyph-name="d" unicode="d" horiz-adv-x="610" 
d="M565 0h-184v85q-18 -40 -56.5 -68.5t-98.5 -28.5q-41 0 -77.5 15t-63.5 46.5t-43 78.5t-16 112v42q0 64 16 112t43.5 79.5t64.5 47t79 15.5q59 0 95.5 -24t56.5 -65v301h184v-748zM384 283q0 58 -22 88t-64 30t-64.5 -28.5t-22.5 -88.5v-44q0 -56 22 -84.5t63 -28.5
q42 0 65 29t23 88v39z" />
    <glyph glyph-name="e" unicode="e" horiz-adv-x="574" 
d="M552 174q-12 -91 -76.5 -138.5t-179.5 -47.5q-60 0 -110 16.5t-86 48.5t-56 79.5t-20 109.5v35q0 61 21 109.5t57.5 81.5t86 50.5t105.5 17.5q53 0 99.5 -15t81.5 -46t55 -79t20 -115v-60h-343q4 -60 29.5 -83.5t63.5 -23.5q37 0 55.5 16.5t25.5 43.5h171zM295 416
q-32 0 -56 -20.5t-31 -75.5h166q-3 96 -79 96z" />
    <glyph glyph-name="f" unicode="f" horiz-adv-x="385" 
d="M74 399h-61v124h61v46q0 98 57.5 142t154.5 44q35 0 59 -2.5t41 -6.5v-134q-11 3 -26 5t-35 2q-35 0 -51 -14t-16 -40v-42h120v-124h-120v-399h-184v399z" />
    <glyph glyph-name="g" unicode="g" horiz-adv-x="611" 
d="M565 36q0 -115 -72 -171t-207 -56q-128 0 -191 49.5t-71 136.5h181q2 -11 7 -21.5t14.5 -18.5t24 -13t36.5 -5q51 0 72.5 26t21.5 69v85q-18 -38 -56 -64.5t-98 -26.5q-41 0 -77.5 14.5t-64 44t-43.5 73t-16 101.5v41q0 57 16 101t43.5 74t65 45.5t79.5 15.5
q58 0 94.5 -23.5t56.5 -64.5v75h184v-487zM298 155q41 0 64 27.5t23 76.5v39q0 49 -22.5 76.5t-63.5 27.5q-42 0 -65 -26.5t-23 -76.5v-43q0 -48 22.5 -74.5t64.5 -26.5z" />
    <glyph glyph-name="h" unicode="h" horiz-adv-x="596" 
d="M46 748h184v-308q20 42 61 69t103 27q71 0 115 -46t44 -139v-351h-184v312q0 78 -64 78q-32 0 -53.5 -20t-21.5 -67v-303h-184v748z" />
    <glyph glyph-name="i" unicode="i" horiz-adv-x="284" 
d="M142 563q-44 0 -72.5 26.5t-28.5 67.5t28.5 67.5t72.5 26.5q42 0 71 -26.5t29 -67.5t-28.5 -67.5t-71.5 -26.5zM50 523h184v-523h-184v523z" />
    <glyph glyph-name="j" unicode="j" horiz-adv-x="283" 
d="M142 563q-44 0 -72.5 26.5t-28.5 67.5t28.5 67.5t72.5 26.5q42 0 71 -26.5t29 -67.5t-28.5 -67.5t-71.5 -26.5zM-13 -48q32 2 47.5 15t15.5 44v512h183v-518q0 -43 -11.5 -77.5t-40 -58.5t-76 -37t-118.5 -13v133z" />
    <glyph glyph-name="k" unicode="k" horiz-adv-x="559" 
d="M230 222v-222h-184v748h184v-428l127 203h189l-157 -236l166 -287h-202z" />
    <glyph glyph-name="l" unicode="l" horiz-adv-x="283" 
d="M50 748h183v-748h-183v748z" />
    <glyph glyph-name="m" unicode="m" horiz-adv-x="889" 
d="M46 523h184v-81q20 38 59 66t98 28q102 0 135 -86q32 45 74 65.5t91 20.5q72 0 115.5 -46t43.5 -138v-352h-183v319q0 36 -15.5 53.5t-41.5 17.5q-32 0 -50.5 -20t-18.5 -60v-310h-181v319q0 36 -16.5 53.5t-42.5 17.5q-31 0 -49 -20t-18 -60v-310h-184v523z" />
    <glyph glyph-name="n" unicode="n" horiz-adv-x="596" 
d="M46 523h184v-83q20 42 61 69t103 27q71 0 115 -46t44 -139v-351h-184v312q0 78 -64 78q-32 0 -53.5 -20t-21.5 -67v-303h-184v523z" />
    <glyph glyph-name="o" unicode="o" horiz-adv-x="594" 
d="M297 -12q-57 0 -107 16.5t-86.5 48.5t-58 79.5t-21.5 109.5v35q0 61 21.5 109.5t58.5 81.5t87 50.5t107 17.5t107 -17t86.5 -49.5t58 -79.5t21.5 -108v-36q0 -62 -21.5 -110t-59 -81t-87 -50t-106.5 -17zM298 123q42 0 64.5 30t22.5 89v41q0 60 -22.5 89t-64.5 29
q-41 0 -65 -28.5t-24 -87.5v-42q0 -60 23 -90t66 -30z" />
    <glyph glyph-name="p" unicode="p" horiz-adv-x="611" 
d="M230 523v-80q20 38 58 65.5t97 27.5q41 0 77.5 -15.5t64 -47t43.5 -79t16 -111.5v-43q0 -65 -16.5 -112t-44 -78.5t-64.5 -46.5t-79 -15q-57 0 -96 25.5t-56 64.5v-252h-184v697h184zM226 243q0 -58 22.5 -87.5t64.5 -29.5t64 29t22 85v44q0 59 -22 87.5t-64 28.5
q-40 0 -63.5 -30t-23.5 -88v-39z" />
    <glyph glyph-name="q" unicode="q" horiz-adv-x="611" 
d="M565 -175h-184v257q-18 -37 -56.5 -65.5t-98.5 -28.5q-41 0 -77 15t-63.5 46.5t-43.5 79t-16 112.5v40q0 64 16 112t43.5 79.5t65 47.5t79.5 16q58 0 94.5 -24t56.5 -65v76h184v-698zM385 282q0 57 -22.5 88t-63.5 31q-42 0 -65 -28.5t-23 -88.5v-42q0 -57 22.5 -86
t63.5 -29q42 0 65 29.5t23 87.5v38z" />
    <glyph glyph-name="r" unicode="r" horiz-adv-x="422" 
d="M46 523h184v-104q23 60 64.5 86t102.5 24v-176q-167 7 -167 -103v-250h-184v523z" />
    <glyph glyph-name="s" unicode="s" horiz-adv-x="506" 
d="M485 168q0 -47 -16.5 -80.5t-46.5 -56t-73 -33t-96 -10.5q-110 0 -170.5 45.5t-63.5 134.5h169q5 -29 18.5 -45t45.5 -16q27 0 40.5 11.5t13.5 29.5q0 24 -23 33t-74 17q-48 8 -82.5 20t-57 31t-33.5 47t-11 69q0 42 17 74t47 53.5t70 32.5t87 11q99 0 158.5 -38
t67.5 -131h-166q-5 26 -19 39t-40 13t-39 -11t-13 -28q0 -22 20.5 -30.5t66.5 -15.5q51 -9 89 -20.5t63.5 -30.5t38 -47t12.5 -68z" />
    <glyph glyph-name="t" unicode="t" horiz-adv-x="411" 
d="M261 630v-107h118v-124h-118v-213q0 -52 62 -52q19 0 34 1.5t27 6.5v-138q-17 -5 -45.5 -9.5t-63.5 -4.5q-99 0 -149 42t-50 136v231h-63v124h63v107h185z" />
    <glyph glyph-name="u" unicode="u" horiz-adv-x="596" 
d="M550 0h-184v80q-20 -42 -58 -67.5t-101 -25.5q-72 0 -118.5 46t-46.5 139v351h184v-320q0 -77 63 -77q35 0 56 20t21 66v311h184v-523z" />
    <glyph glyph-name="v" unicode="v" horiz-adv-x="571" 
d="M6 523h195l96 -323l95 323h173l-179 -523h-199z" />
    <glyph glyph-name="w" unicode="w" horiz-adv-x="814" 
d="M7 523h190l66 -292l78 292h150l70 -292l75 292h171l-155 -523h-175l-72 280l-73 -280h-178z" />
    <glyph glyph-name="x" unicode="x" horiz-adv-x="579" 
d="M169 265l-150 258h208l71 -138l70 138h186l-151 -244l165 -279h-207l-82 154l-85 -154h-185z" />
    <glyph glyph-name="y" unicode="y" horiz-adv-x="568" 
d="M299 255l89 268h174l-261 -697h-177l79 220l-197 477h198z" />
    <glyph glyph-name="z" unicode="z" horiz-adv-x="488" 
d="M462 0h-452v80l233 304h-214v139h441v-78l-241 -307h233v-138z" />
    <glyph glyph-name="braceleft" unicode="{" horiz-adv-x="393" 
d="M29 376q54 1 76.5 23.5t15.5 59.5l-16 93q-20 121 44.5 172t208.5 51v-125q-53 -3 -74 -21.5t-13 -69.5l16 -109q8 -54 -20 -87t-82 -45q54 -13 82 -46.5t20 -87.5l-16 -110q-8 -53 12.5 -73t74.5 -22v-125q-143 0 -208 53t-45 169l16 96q7 37 -15.5 59.5t-76.5 23.5v121
z" />
    <glyph glyph-name="bar" unicode="|" horiz-adv-x="254" 
d="M66 775h122v-922h-122v922z" />
    <glyph glyph-name="braceright" unicode="}" horiz-adv-x="393" 
d="M363 255q-54 -1 -76.5 -23.5t-15.5 -59.5l17 -96q19 -116 -46 -169t-208 -53v125q54 2 74.5 22t12.5 73l-16 110q-8 54 20.5 87.5t82.5 46.5q-54 12 -82.5 45t-20.5 87l16 109q7 51 -13.5 69.5t-73.5 21.5v125q143 0 208.5 -51t45.5 -172l-17 -93q-7 -37 15.5 -59.5
t76.5 -23.5v-121v0z" />
    <glyph glyph-name="asciitilde" unicode="~" horiz-adv-x="494" 
d="M28 214q3 52 15 88t31 58.5t43 33t50 10.5q25 0 46 -6.5t39 -14t33 -14t28 -6.5q20 0 30 11t13 31h110q-2 -48 -14 -84t-31.5 -59t-43.5 -34.5t-50 -11.5t-47 6.5t-38.5 14t-32.5 14t-28 6.5q-20 0 -30 -11.5t-13 -31.5h-110v0z" />
    <glyph glyph-name="uni00A0" unicode="&#xa0;" horiz-adv-x="175" 
 />
    <glyph glyph-name="exclamdown" unicode="&#xa1;" horiz-adv-x="317" 
d="M158 608q21 0 39.5 -7.5t32 -20t21.5 -30t8 -36.5q0 -20 -8 -37.5t-21.5 -30t-32 -20t-39.5 -7.5t-39.5 7.5t-32 20t-21 30t-7.5 37.5q0 19 7.5 36.5t21 30t32 20t39.5 7.5zM255 -117h-195l26 484h143z" />
    <glyph glyph-name="cent" unicode="&#xa2;" horiz-adv-x="563" 
d="M544 196q-5 -91 -61.5 -145t-157.5 -62v-118h-60v118q-51 4 -95 21.5t-75.5 48.5t-49.5 75.5t-18 103.5v42q0 58 18 103.5t50 77.5t75.5 50t94.5 23v92h60v-91q43 -3 81 -16.5t67 -38.5t47 -62t21 -87h-156q-5 33 -19.5 51t-40.5 24v-295q29 6 47 26t22 59v2h150v-2z
M195 238q0 -57 18.5 -86.5t51.5 -38.5v292q-32 -8 -51 -36t-19 -84v-47z" />
    <glyph glyph-name="sterling" unicode="&#xa3;" horiz-adv-x="620" 
d="M600 200q-2 -45 -15 -83t-37 -66t-59 -43.5t-81 -15.5q-36 0 -65 7.5t-53.5 16.5t-45 16.5t-37.5 7.5q-21 0 -32 -11.5t-14 -28.5h-144q3 55 25.5 99.5t65.5 66.5q5 14 7.5 30.5t2.5 38.5q0 28 -6 57h-78v109h49q-6 24 -10 50t-4 54q0 53 20 94t54.5 69t82 42.5
t103.5 14.5q65 0 112.5 -16t79 -45.5t47.5 -71.5t18 -94h-179q-6 40 -22.5 58.5t-49.5 18.5t-52 -20.5t-19 -58.5q0 -23 2 -46.5t5 -48.5h168v-109h-154q1 -14 1.5 -27.5t0.5 -27.5q0 -39 -12 -69q28 -8 51 -15t43 -7q54 0 58 54h173v0z" />
    <glyph glyph-name="yen" unicode="&#xa5;" horiz-adv-x="607" 
d="M407 174v-174h-198v174h-150v72h150v49h-150v72h127l-174 348h211l94 -230l92 230h186l-166 -348h128v-72h-150v-49h150v-72h-150z" />
    <glyph glyph-name="brokenbar" unicode="&#xa6;" horiz-adv-x="255" 
d="M66 774h122v-402h-122v402zM66 299h122v-445h-122v445z" />
    <glyph glyph-name="section" unicode="&#xa7;" horiz-adv-x="587" 
d="M505 45q0 -82 -56.5 -130.5t-156.5 -48.5q-107 0 -164 46t-61 128h158q2 -26 18 -41t45 -15q54 0 54 46v1q0 12 -5.5 20.5t-18 16t-33.5 14.5t-52 15q-49 14 -88 30.5t-66.5 38.5t-42 51.5t-14.5 70.5q0 51 31 85.5t82 49.5q-25 23 -37.5 51.5t-12.5 70.5t16 75t45 56.5
t69.5 36t88.5 12.5q100 0 153 -47t58 -128h-157q-3 26 -15.5 40.5t-41.5 14.5q-26 0 -40.5 -12t-14.5 -33v-1q0 -13 5 -22t17 -16.5t32.5 -14t50.5 -14.5q49 -14 88.5 -30t67.5 -37.5t43 -51t15 -71.5v-2q0 -48 -29.5 -82.5t-81.5 -51.5q28 -23 39.5 -50.5t11.5 -68.5v-2z
M292 245q14 -5 27.5 -10.5t25.5 -10.5q30 7 42 18.5t12 30.5v1q0 24 -24 37.5t-77 30.5q-15 5 -29 10.5t-27 10.5q-55 -8 -55 -49q0 -22 25.5 -36.5t79.5 -32.5z" />
    <glyph glyph-name="dieresis" unicode="&#xa8;" horiz-adv-x="402" 
d="M98 573q-36 0 -60.5 24t-24.5 59t24.5 59t60.5 24q18 0 33.5 -6.5t27 -18t18 -26.5t6.5 -32t-6.5 -32.5t-18 -26.5t-27 -17.5t-33.5 -6.5zM304 573q-18 0 -33 6.5t-26.5 17.5t-18 26.5t-6.5 32.5t6.5 32t18 26.5t26.5 18t33 6.5q36 0 61 -24t25 -59t-25 -59t-61 -24z" />
    <glyph glyph-name="copyright" unicode="&#xa9;" horiz-adv-x="798" 
d="M764 362q0 -77 -28.5 -143.5t-78 -115t-116 -76t-143.5 -27.5q-76 0 -142.5 27.5t-115.5 75.5t-77.5 114t-28.5 143q0 76 28 142t77.5 115t116.5 77t144 28q78 0 144.5 -28t115.5 -76.5t76.5 -114t27.5 -141.5zM95 360q0 -70 24 -127.5t65.5 -98t96.5 -62.5t117 -22
q63 0 118.5 22.5t97 63.5t65.5 98.5t24 127.5q0 69 -23.5 126t-64.5 98t-96 63.5t-119 22.5q-65 0 -120.5 -22.5t-96.5 -63.5t-64.5 -98.5t-23.5 -127.5zM583 307q-5 -73 -52.5 -111.5t-125.5 -38.5q-101 0 -150.5 52t-49.5 140v25q0 45 14.5 80.5t41 60t62.5 38t78 13.5
q76 0 123.5 -34.5t54.5 -112.5h-121q-5 25 -18 38.5t-39 13.5q-33 0 -51 -23.5t-18 -69.5v-31q0 -45 18 -69.5t53 -24.5q54 0 63 54h117z" />
    <glyph glyph-name="ordfeminine" unicode="&#xaa;" horiz-adv-x="460" 
d="M272 346q-11 -21 -37 -39t-76 -18q-27 0 -51 7t-42 22t-28.5 38.5t-10.5 56.5v3q0 72 50 102t147 30h45v16q0 25 -8 38t-33 13q-22 0 -32 -12t-13 -29v-1h-144q5 72 56.5 111t139.5 39q92 0 139 -38.5t47 -115.5v-270h-149v47zM217 392q23 0 37.5 11t14.5 34v29h-36
q-29 0 -42 -8t-13 -28v-4q0 -34 39 -34z" />
    <glyph glyph-name="guillemotleft" unicode="&#xab;" horiz-adv-x="459" 
d="M29 261l116 187h112l-112 -187l112 -187h-112zM202 261l116 187h113l-112 -187l112 -187h-113z" />
    <glyph glyph-name="registered" unicode="&#xae;" horiz-adv-x="499" 
d="M250 293q-46 0 -86.5 16.5t-70.5 45.5t-47 68.5t-17 85.5t17 85.5t47 68.5t70 46t87 17t87.5 -16.5t70 -46t46.5 -69t17 -84.5q0 -46 -17 -85.5t-47 -69t-70.5 -46t-86.5 -16.5zM250 331q38 0 70.5 13t56.5 36.5t37.5 56.5t13.5 73q0 39 -13 72t-37 57t-56.5 37t-71.5 13
t-72 -13.5t-56.5 -37.5t-37 -57t-13.5 -72q0 -40 14 -72.5t38 -56t56.5 -36.5t70.5 -13zM167 622h86q87 0 87 -69v-3q0 -22 -9 -35t-26 -21l47 -91h-68l-39 78h-12v-78h-66v219zM249 524q26 0 26 24v2q0 22 -26 22h-16v-48h16z" />
    <glyph glyph-name="macron" unicode="&#xaf;" horiz-adv-x="402" 
d="M52 703h297v-100h-297v100z" />
    <glyph glyph-name="degree" unicode="&#xb0;" horiz-adv-x="428" 
d="M214 397q-35 0 -65.5 13t-53.5 35.5t-36 52t-13 62.5q0 34 13 64t36 52t53.5 35t65.5 13t65.5 -13t53.5 -35t36 -52t13 -64q0 -33 -13 -62.5t-36 -52t-53.5 -35.5t-65.5 -13zM214 466q38 0 62 27t24 67q0 42 -24 68.5t-62 26.5t-62.5 -26.5t-24.5 -68.5q0 -40 24.5 -67
t62.5 -27z" />
    <glyph glyph-name="plusminus" unicode="&#xb1;" horiz-adv-x="541" 
d="M200 333h-164v126h164v158h140v-158h165v-126h-165v-159h-140v159zM36 115h471v-116h-471v116z" />
    <glyph glyph-name="twosuperior" unicode="&#xb2;" horiz-adv-x="348" 
d="M7 360l122 131q32 35 50 60t18 48v3q0 33 -31 33t-37 -50v-3h-118v2q3 72 45.5 108.5t117.5 36.5q78 0 114 -34t36 -85v-2q0 -40 -21.5 -72t-54.5 -65l-36 -34h114v-94h-319v17z" />
    <glyph glyph-name="threesuperior" unicode="&#xb3;" horiz-adv-x="366" 
d="M342 459q0 -54 -39.5 -87.5t-118.5 -33.5q-44 0 -75 9.5t-50.5 26.5t-29 41.5t-10.5 53.5v2h114v-2q2 -17 12 -29t30 -12q37 0 37 35v1q0 18 -10.5 27.5t-35.5 9.5h-27v74h27q46 0 46 35q0 14 -8 23t-24 9q-32 0 -40 -38v-3h-114v3q4 56 42.5 91.5t114.5 35.5
q71 0 111 -27.5t40 -78.5v-1q0 -32 -18 -52t-50 -28q33 -6 54.5 -28t21.5 -55v-2v0z" />
    <glyph glyph-name="acute" unicode="&#xb4;" horiz-adv-x="402" 
d="M181 744h175l-100 -166h-125z" />
    <glyph glyph-name="paragraph" unicode="&#xb6;" horiz-adv-x="528" 
d="M244 340h-7q-47 0 -86 11.5t-66.5 34.5t-42.5 57.5t-15 81.5q0 48 15.5 84t43.5 59.5t66.5 35t84.5 11.5h228v-808h-77v743h-68v-743h-76v433z" />
    <glyph glyph-name="periodcentered" unicode="&#xb7;" horiz-adv-x="282" 
d="M140 227q-43 0 -71 27.5t-28 69.5q0 41 28 69.5t71 28.5q44 0 72.5 -28.5t28.5 -69.5q0 -42 -28.5 -69.5t-72.5 -27.5z" />
    <glyph glyph-name="cedilla" unicode="&#xb8;" horiz-adv-x="402" 
d="M207 -225q-54 0 -87 23.5t-39 68.5h84q2 -11 9.5 -19t24.5 -8q16 0 24 8.5t8 21.5q0 14 -8.5 23t-24.5 9q-12 0 -20 -3.5t-13 -8.5l-37 37l47 73h70l-29 -44q21 3 41 -1t35 -15t24 -28.5t9 -41.5q0 -45 -32 -70t-86 -25z" />
    <glyph glyph-name="onesuperior" unicode="&#xb9;" horiz-adv-x="280" 
d="M99 598l-78 -47v107l98 67h111v-380h-131v253z" />
    <glyph glyph-name="ordmasculine" unicode="&#xba;" horiz-adv-x="492" 
d="M246 289q-46 0 -86 13t-69 38.5t-46 63.5t-17 87v24q0 49 17 88t46 65.5t69 40.5t87 14q46 0 86 -13.5t69 -39.5t46 -64t17 -87v-24q0 -50 -17 -88t-46.5 -64.5t-69.5 -40t-86 -13.5zM247 402q62 0 62 88v33q0 87 -62 87q-29 0 -46.5 -21t-17.5 -66v-31q0 -90 64 -90z
" />
    <glyph glyph-name="guillemotright" unicode="&#xbb;" horiz-adv-x="459" 
d="M141 261l-113 187h113l116 -187l-116 -187h-113zM314 261l-113 187h113l116 -187l-116 -187h-113z" />
    <glyph glyph-name="onequarter" unicode="&#xbc;" horiz-adv-x="778" 
d="M103 587l-79 -47v108l97 67h113v-384h-131v256zM608 715h92l-550 -715h-92zM582 72h-182v46l152 266h156v-225h46v-87h-46v-72h-126v72zM586 159v137l-76 -137h76z" />
    <glyph glyph-name="onehalf" unicode="&#xbd;" horiz-adv-x="800" 
d="M602 715h92l-550 -715h-92zM103 587l-79 -47v108l97 67h113v-384h-131v256zM774 0h-319v16l122 133q32 35 50.5 61t18.5 49v1q0 34 -31 34q-16 0 -25.5 -12.5t-12.5 -41.5h-118q2 75 45 112.5t118 37.5q77 0 113.5 -33.5t36.5 -87.5v-1q0 -41 -21.5 -73t-54.5 -65
l-37 -36h115v-94z" />
    <glyph glyph-name="threequarters" unicode="&#xbe;" horiz-adv-x="820" 
d="M345 445q0 -54 -39.5 -87.5t-119.5 -33.5q-86 0 -124 36.5t-40 97.5h114q2 -20 12 -32t30 -12q18 0 27.5 9.5t9.5 26.5v3q0 17 -10.5 26t-35.5 9h-27v74h27q46 0 46 36q0 33 -32 33q-17 0 -27 -10.5t-12 -31.5h-115q4 60 42.5 96t114.5 36q72 0 111.5 -27.5t39.5 -78.5
v-3q0 -63 -68 -80q33 -6 54.5 -28t21.5 -57v-2zM662 715h92l-550 -715h-92zM623 72h-182v46l152 266h156v-225h46v-87h-46v-72h-126v72zM627 159v137l-76 -137h76z" />
    <glyph glyph-name="questiondown" unicode="&#xbf;" horiz-adv-x="530" 
d="M289 609q21 0 39.5 -7.5t32 -20t21.5 -30t8 -36.5q0 -20 -8 -37.5t-21.5 -30.5t-32 -20.5t-39.5 -7.5q-43 0 -72 27.5t-29 68.5q0 19 8 36.5t21.5 30t32 20t39.5 7.5zM512 98q-4 -110 -71.5 -167t-180.5 -57q-112 0 -172 47.5t-60 138.5q0 50 20.5 85t52.5 70
q18 19 36 36t33 33.5t25 34t12 36.5v13h163v-21q0 -28 -7.5 -51t-20 -43t-28.5 -38t-34 -37q-26 -28 -45.5 -50.5t-19.5 -54.5q0 -28 13 -42.5t44 -14.5q29 0 47.5 20.5t23.5 61.5h169z" />
    <glyph glyph-name="Agrave" unicode="&#xc0;" horiz-adv-x="683" 
d="M187 901h181l46 -144h-132zM433 136h-207l-34 -136h-180l199 715h261l199 -715h-204zM259 270h141l-71 283z" />
    <glyph glyph-name="Aacute" unicode="&#xc1;" horiz-adv-x="683" 
d="M314 901h180l-97 -144h-132zM433 136h-207l-34 -136h-180l199 715h261l199 -715h-204zM259 270h141l-71 283z" />
    <glyph glyph-name="Acircumflex" unicode="&#xc2;" horiz-adv-x="683" 
d="M269 902h146l105 -145h-124l-57 49l-58 -49h-121zM433 136h-207l-34 -136h-180l199 715h261l199 -715h-204zM259 270h141l-71 283z" />
    <glyph glyph-name="Atilde" unicode="&#xc3;" horiz-adv-x="683" 
d="M404 756q-21 0 -38 5.5t-31.5 11.5t-26.5 11.5t-23 5.5q-12 0 -20 -9.5t-11 -23.5h-97q5 79 38.5 115.5t78.5 36.5q20 0 36.5 -5t31.5 -11.5t28 -11.5t25 -5q24 0 30 33h97q-3 -41 -13.5 -69.5t-26.5 -47.5t-36 -27.5t-42 -8.5zM433 136h-207l-34 -136h-180l199 715h261
l199 -715h-204zM259 270h141l-71 283z" />
    <glyph glyph-name="Adieresis" unicode="&#xc4;" horiz-adv-x="683" 
d="M233 754q-35 0 -59.5 23.5t-24.5 58.5q0 34 24.5 57.5t59.5 23.5t60 -23.5t25 -57.5q0 -35 -25 -58.5t-60 -23.5zM446 754q-35 0 -59 23.5t-24 58.5q0 34 24 57.5t59 23.5q36 0 60.5 -23.5t24.5 -57.5q0 -35 -24.5 -58.5t-60.5 -23.5zM433 136h-207l-34 -136h-180
l199 715h261l199 -715h-204zM259 270h141l-71 283z" />
    <glyph glyph-name="Aring" unicode="&#xc5;" horiz-adv-x="683" 
d="M340 741q-24 0 -45.5 9t-37.5 24.5t-25 36t-9 43.5t9 43.5t25 36t37.5 24.5t45.5 9t45.5 -9t37.5 -24.5t25 -36t9 -43.5t-9 -43.5t-25 -36t-37.5 -24.5t-45.5 -9zM340 804q20 0 33 14t13 36t-13 35.5t-33 13.5t-32.5 -13.5t-12.5 -35.5t12.5 -36t32.5 -14zM433 136h-207
l-34 -136h-180l199 715h261l199 -715h-204zM259 270h141l-71 283z" />
    <glyph glyph-name="AE" unicode="&#xc6;" horiz-adv-x="918" 
d="M422 147h-174l-54 -147h-183l274 715h588v-151h-257v-130h203v-139h-203v-144h271v-151h-465v147zM296 278h126v286h-21z" />
    <glyph glyph-name="Ccedilla" unicode="&#xc7;" horiz-adv-x="697" 
d="M465 -130q0 -45 -32 -70t-86 -25t-87 23.5t-39 68.5h84q2 -11 9.5 -19t24.5 -8q16 0 24 8.5t8 21.5q0 14 -8.5 23t-24.5 9q-12 0 -20 -3.5t-13 -8.5l-37 37l41 64q-136 16 -205 101.5t-69 225.5v78q0 76 25 137t68.5 104t103 65.5t128.5 22.5q63 0 115.5 -14.5t91.5 -46
t63.5 -80.5t30.5 -118h-200q-8 54 -31.5 80t-70.5 26q-57 0 -89.5 -44t-32.5 -128v-83q0 -85 32 -129t94 -44q45 0 74.5 26.5t37.5 83.5h193q-5 -65 -28 -114t-61 -82.5t-89.5 -51t-112.5 -18.5l-21 -32q21 3 41 -1t35 -15t24 -28.5t9 -41.5z" />
    <glyph glyph-name="Egrave" unicode="&#xc8;" horiz-adv-x="566" 
d="M142 901h181l46 -144h-132zM62 715h458v-151h-264v-130h210v-139h-210v-144h279v-151h-473v715z" />
    <glyph glyph-name="Eacute" unicode="&#xc9;" horiz-adv-x="566" 
d="M270 901h180l-97 -144h-132zM62 715h458v-151h-264v-130h210v-139h-210v-144h279v-151h-473v715z" />
    <glyph glyph-name="Ecircumflex" unicode="&#xca;" horiz-adv-x="566" 
d="M224 902h146l105 -145h-124l-57 49l-58 -49h-121zM62 715h458v-151h-264v-130h210v-139h-210v-144h279v-151h-473v715z" />
    <glyph glyph-name="Edieresis" unicode="&#xcb;" horiz-adv-x="566" 
d="M188 754q-35 0 -59.5 23.5t-24.5 58.5q0 34 24.5 57.5t59.5 23.5t60 -23.5t25 -57.5q0 -35 -25 -58.5t-60 -23.5zM401 754q-35 0 -59 23.5t-24 58.5q0 34 24 57.5t59 23.5q36 0 60.5 -23.5t24.5 -57.5q0 -35 -24.5 -58.5t-60.5 -23.5zM62 715h458v-151h-264v-130h210
v-139h-210v-144h279v-151h-473v715z" />
    <glyph glyph-name="Igrave" unicode="&#xcc;" horiz-adv-x="328" 
d="M11 901h181l46 -144h-132zM65 715h197v-715h-197v715z" />
    <glyph glyph-name="Iacute" unicode="&#xcd;" horiz-adv-x="328" 
d="M139 901h180l-97 -144h-132zM65 715h197v-715h-197v715z" />
    <glyph glyph-name="Icircumflex" unicode="&#xce;" horiz-adv-x="328" 
d="M93 902h146l105 -145h-124l-57 49l-58 -49h-121zM65 715h197v-715h-197v715z" />
    <glyph glyph-name="Idieresis" unicode="&#xcf;" horiz-adv-x="328" 
d="M57 754q-35 0 -59.5 23.5t-24.5 58.5q0 34 24.5 57.5t59.5 23.5t60 -23.5t25 -57.5q0 -35 -25 -58.5t-60 -23.5zM270 754q-35 0 -59 23.5t-24 58.5q0 34 24 57.5t59 23.5q36 0 60.5 -23.5t24.5 -57.5q0 -35 -24.5 -58.5t-60.5 -23.5zM65 715h197v-715h-197v715z" />
    <glyph glyph-name="Eth" unicode="&#xd0;" horiz-adv-x="712" 
d="M678 327q0 -158 -88 -242.5t-262 -84.5h-250v293h-52v136h52v286h249q175 0 263 -80.5t88 -239.5v-68zM321 151q82 0 118 42.5t36 131.5v67q0 92 -36.5 131.5t-118.5 39.5h-49v-134h106v-136h-106v-142h50z" />
    <glyph glyph-name="Ntilde" unicode="&#xd1;" horiz-adv-x="716" 
d="M439 756q-21 0 -38 5.5t-31.5 11.5t-26.5 11.5t-23 5.5q-12 0 -20 -9.5t-11 -23.5h-97q5 79 38.5 115.5t78.5 36.5q20 0 36.5 -5t31.5 -11.5t28 -11.5t25 -5q24 0 30 33h97q-3 -41 -13.5 -69.5t-26.5 -47.5t-36 -27.5t-42 -8.5zM62 715h218l201 -397v397h173v-715h-189
l-230 449v-449h-173v715z" />
    <glyph glyph-name="Ograve" unicode="&#xd2;" horiz-adv-x="750" 
d="M221 901h181l46 -144h-132zM374 -12q-77 0 -140 23.5t-107 66t-68 103t-24 135.5v81q0 76 26.5 136.5t72 103t108 65.5t134.5 23q73 0 135.5 -21.5t108 -63t71 -101.5t25.5 -138v-80q0 -76 -24.5 -137.5t-69.5 -105t-108 -67t-140 -23.5zM376 143q64 0 101 45.5t37 129.5
v81q0 82 -37.5 127t-100.5 45t-101 -44t-38 -129v-81q0 -85 38 -129.5t101 -44.5z" />
    <glyph glyph-name="Oacute" unicode="&#xd3;" horiz-adv-x="750" 
d="M348 901h180l-97 -144h-132zM374 -12q-77 0 -140 23.5t-107 66t-68 103t-24 135.5v81q0 76 26.5 136.5t72 103t108 65.5t134.5 23q73 0 135.5 -21.5t108 -63t71 -101.5t25.5 -138v-80q0 -76 -24.5 -137.5t-69.5 -105t-108 -67t-140 -23.5zM376 143q64 0 101 45.5
t37 129.5v81q0 82 -37.5 127t-100.5 45t-101 -44t-38 -129v-81q0 -85 38 -129.5t101 -44.5z" />
    <glyph glyph-name="Ocircumflex" unicode="&#xd4;" horiz-adv-x="750" 
d="M303 902h146l105 -145h-124l-57 49l-58 -49h-121zM374 -12q-77 0 -140 23.5t-107 66t-68 103t-24 135.5v81q0 76 26.5 136.5t72 103t108 65.5t134.5 23q73 0 135.5 -21.5t108 -63t71 -101.5t25.5 -138v-80q0 -76 -24.5 -137.5t-69.5 -105t-108 -67t-140 -23.5zM376 143
q64 0 101 45.5t37 129.5v81q0 82 -37.5 127t-100.5 45t-101 -44t-38 -129v-81q0 -85 38 -129.5t101 -44.5z" />
    <glyph glyph-name="Otilde" unicode="&#xd5;" horiz-adv-x="750" 
d="M439 756q-21 0 -38 5.5t-31.5 11.5t-26.5 11.5t-23 5.5q-12 0 -20 -9.5t-11 -23.5h-97q5 79 38.5 115.5t78.5 36.5q20 0 36.5 -5t31.5 -11.5t28 -11.5t25 -5q24 0 30 33h97q-3 -41 -13.5 -69.5t-26.5 -47.5t-36 -27.5t-42 -8.5zM374 -12q-77 0 -140 23.5t-107 66t-68 103
t-24 135.5v81q0 76 26.5 136.5t72 103t108 65.5t134.5 23q73 0 135.5 -21.5t108 -63t71 -101.5t25.5 -138v-80q0 -76 -24.5 -137.5t-69.5 -105t-108 -67t-140 -23.5zM376 143q64 0 101 45.5t37 129.5v81q0 82 -37.5 127t-100.5 45t-101 -44t-38 -129v-81q0 -85 38 -129.5
t101 -44.5z" />
    <glyph glyph-name="Odieresis" unicode="&#xd6;" horiz-adv-x="750" 
d="M266 754q-35 0 -59.5 23.5t-24.5 58.5q0 34 24.5 57.5t59.5 23.5t60 -23.5t25 -57.5q0 -35 -25 -58.5t-60 -23.5zM479 754q-35 0 -59 23.5t-24 58.5q0 34 24 57.5t59 23.5q36 0 60.5 -23.5t24.5 -57.5q0 -35 -24.5 -58.5t-60.5 -23.5zM374 -12q-77 0 -140 23.5t-107 66
t-68 103t-24 135.5v81q0 76 26.5 136.5t72 103t108 65.5t134.5 23q73 0 135.5 -21.5t108 -63t71 -101.5t25.5 -138v-80q0 -76 -24.5 -137.5t-69.5 -105t-108 -67t-140 -23.5zM376 143q64 0 101 45.5t37 129.5v81q0 82 -37.5 127t-100.5 45t-101 -44t-38 -129v-81
q0 -85 38 -129.5t101 -44.5z" />
    <glyph glyph-name="multiply" unicode="&#xd7;" horiz-adv-x="538" 
d="M37 191l142 143l-144 145l93 91l139 -143l140 140l92 -89l-142 -144l144 -144l-93 -91l-141 144l-138 -141z" />
    <glyph glyph-name="Oslash" unicode="&#xd8;" horiz-adv-x="739" 
d="M367 -12q-66 0 -120 16.5t-96 47.5l-70 -83l-50 44l72 85q-72 84 -72 217v85q0 74 26 134t71 102.5t107 65.5t134 23q126 0 213 -61l62 74l49 -44l-62 -73q37 -41 57 -95t20 -123v-85q0 -75 -24 -136t-68.5 -104t-107.5 -66.5t-141 -23.5zM231 316q0 -33 6 -60l232 275
q-36 42 -100 42q-65 0 -101.5 -44.5t-36.5 -128.5v-84zM508 402q0 37 -7 64l-234 -277q36 -47 104 -47q64 0 100.5 45.5t36.5 129.5v85z" />
    <glyph glyph-name="Ugrave" unicode="&#xd9;" horiz-adv-x="706" 
d="M197 901h181l46 -144h-132zM648 715v-446q0 -143 -78.5 -212t-217.5 -69q-142 0 -218.5 69.5t-76.5 209.5v448h195v-441q0 -66 21.5 -98.5t79.5 -32.5q57 0 78 32.5t21 100.5v439h196z" />
    <glyph glyph-name="Uacute" unicode="&#xda;" horiz-adv-x="706" 
d="M325 901h180l-97 -144h-132zM648 715v-446q0 -143 -78.5 -212t-217.5 -69q-142 0 -218.5 69.5t-76.5 209.5v448h195v-441q0 -66 21.5 -98.5t79.5 -32.5q57 0 78 32.5t21 100.5v439h196z" />
    <glyph glyph-name="Ucircumflex" unicode="&#xdb;" horiz-adv-x="706" 
d="M279 902h146l105 -145h-124l-57 49l-58 -49h-121zM648 715v-446q0 -143 -78.5 -212t-217.5 -69q-142 0 -218.5 69.5t-76.5 209.5v448h195v-441q0 -66 21.5 -98.5t79.5 -32.5q57 0 78 32.5t21 100.5v439h196z" />
    <glyph glyph-name="Udieresis" unicode="&#xdc;" horiz-adv-x="706" 
d="M243 754q-35 0 -59.5 23.5t-24.5 58.5q0 34 24.5 57.5t59.5 23.5t60 -23.5t25 -57.5q0 -35 -25 -58.5t-60 -23.5zM456 754q-35 0 -59 23.5t-24 58.5q0 34 24 57.5t59 23.5q36 0 60.5 -23.5t24.5 -57.5q0 -35 -24.5 -58.5t-60.5 -23.5zM648 715v-446q0 -143 -78.5 -212
t-217.5 -69q-142 0 -218.5 69.5t-76.5 209.5v448h195v-441q0 -66 21.5 -98.5t79.5 -32.5q57 0 78 32.5t21 100.5v439h196z" />
    <glyph glyph-name="Yacute" unicode="&#xdd;" horiz-adv-x="628" 
d="M296 901h180l-97 -144h-132zM221 304l-214 411h211l110 -237l109 237h184l-204 -410v-305h-196v304z" />
    <glyph glyph-name="Thorn" unicode="&#xde;" horiz-adv-x="616" 
d="M62 715h196v-122h60q144 0 208 -55t64 -164v-16q0 -109 -66.5 -163t-197.5 -54h-68v-141h-196v715zM309 276q46 0 70 19t24 64v13q0 44 -24 62t-69 18h-52v-176h51z" />
    <glyph glyph-name="germandbls" unicode="&#xdf;" horiz-adv-x="595" 
d="M353 -8q-27 0 -49.5 3t-35.5 7v128q8 -2 18.5 -4t23.5 -2q17 0 32.5 5t27.5 16.5t19 31.5t7 50v31q0 34 -9 57.5t-25.5 37t-38.5 19t-49 4.5v118q45 0 64.5 23.5t19.5 55.5v5q0 70 -67 70q-33 0 -51.5 -22.5t-18.5 -63.5v-562h-174v551q0 57 20 97t54 66t80 38t97 12
q106 0 165.5 -45.5t59.5 -133.5v-6q0 -52 -31 -87.5t-81 -49.5q32 -8 61.5 -23t51.5 -39t35 -58.5t13 -79.5v-24q0 -57 -16 -99.5t-45 -70.5t-69 -42t-89 -14z" />
    <glyph glyph-name="agrave" unicode="&#xe0;" horiz-adv-x="544" 
d="M115 744h176l50 -166h-126zM339 60q-8 -13 -20 -25.5t-30 -23t-42.5 -17t-55.5 -6.5q-33 0 -63.5 8.5t-53 27.5t-36 48t-13.5 70v7q0 91 66 128t190 37h53v18q0 34 -11 55t-48 21q-30 0 -43.5 -16.5t-17.5 -40.5h-172q6 93 71 139t172 46q112 0 171.5 -47.5t59.5 -146.5
v-342h-177v60zM260 111q31 0 52.5 16.5t21.5 45.5v40h-47q-43 0 -62 -11t-19 -40v-6q0 -45 54 -45z" />
    <glyph glyph-name="aacute" unicode="&#xe1;" horiz-adv-x="544" 
d="M255 744h175l-100 -166h-125zM339 60q-8 -13 -20 -25.5t-30 -23t-42.5 -17t-55.5 -6.5q-33 0 -63.5 8.5t-53 27.5t-36 48t-13.5 70v7q0 91 66 128t190 37h53v18q0 34 -11 55t-48 21q-30 0 -43.5 -16.5t-17.5 -40.5h-172q6 93 71 139t172 46q112 0 171.5 -47.5
t59.5 -146.5v-342h-177v60zM260 111q31 0 52.5 16.5t21.5 45.5v40h-47q-43 0 -62 -11t-19 -40v-6q0 -45 54 -45z" />
    <glyph glyph-name="acircumflex" unicode="&#xe2;" horiz-adv-x="544" 
d="M209 742h128l110 -163h-120l-57 56l-59 -56h-117zM339 60q-8 -13 -20 -25.5t-30 -23t-42.5 -17t-55.5 -6.5q-33 0 -63.5 8.5t-53 27.5t-36 48t-13.5 70v7q0 91 66 128t190 37h53v18q0 34 -11 55t-48 21q-30 0 -43.5 -16.5t-17.5 -40.5h-172q6 93 71 139t172 46
q112 0 171.5 -47.5t59.5 -146.5v-342h-177v60zM260 111q31 0 52.5 16.5t21.5 45.5v40h-47q-43 0 -62 -11t-19 -40v-6q0 -45 54 -45z" />
    <glyph glyph-name="atilde" unicode="&#xe3;" horiz-adv-x="544" 
d="M334 579q-21 0 -37 5t-29.5 11.5t-25 11.5t-22.5 5t-19.5 -9t-10.5 -24h-93q5 81 35 118t75 37q19 0 35.5 -5t30.5 -11.5t26 -11.5t24 -5q25 0 31 33h92q-5 -81 -37 -118t-75 -37zM339 60q-8 -13 -20 -25.5t-30 -23t-42.5 -17t-55.5 -6.5q-33 0 -63.5 8.5t-53 27.5
t-36 48t-13.5 70v7q0 91 66 128t190 37h53v18q0 34 -11 55t-48 21q-30 0 -43.5 -16.5t-17.5 -40.5h-172q6 93 71 139t172 46q112 0 171.5 -47.5t59.5 -146.5v-342h-177v60zM260 111q31 0 52.5 16.5t21.5 45.5v40h-47q-43 0 -62 -11t-19 -40v-6q0 -45 54 -45z" />
    <glyph glyph-name="adieresis" unicode="&#xe4;" horiz-adv-x="544" 
d="M169 573q-36 0 -60.5 24t-24.5 59t24.5 59t60.5 24q18 0 33.5 -6.5t27 -18t18 -26.5t6.5 -32t-6.5 -32.5t-18 -26.5t-27 -17.5t-33.5 -6.5zM375 573q-18 0 -33 6.5t-26.5 17.5t-18 26.5t-6.5 32.5t6.5 32t18 26.5t26.5 18t33 6.5q36 0 61 -24t25 -59t-25 -59t-61 -24z
M339 60q-8 -13 -20 -25.5t-30 -23t-42.5 -17t-55.5 -6.5q-33 0 -63.5 8.5t-53 27.5t-36 48t-13.5 70v7q0 91 66 128t190 37h53v18q0 34 -11 55t-48 21q-30 0 -43.5 -16.5t-17.5 -40.5h-172q6 93 71 139t172 46q112 0 171.5 -47.5t59.5 -146.5v-342h-177v60zM260 111
q31 0 52.5 16.5t21.5 45.5v40h-47q-43 0 -62 -11t-19 -40v-6q0 -45 54 -45z" />
    <glyph glyph-name="aring" unicode="&#xe5;" horiz-adv-x="544" 
d="M272 573q-24 0 -45.5 9t-37 24t-24.5 35.5t-9 43.5t9 43.5t24.5 36t37 24.5t45.5 9t45.5 -9t37 -24.5t24.5 -36t9 -43.5t-9 -43.5t-24.5 -35.5t-37 -24t-45.5 -9zM272 637q20 0 32.5 13.5t12.5 34.5q0 22 -12.5 35.5t-32.5 13.5t-32.5 -13.5t-12.5 -35.5
q0 -21 12.5 -34.5t32.5 -13.5zM339 60q-8 -13 -20 -25.5t-30 -23t-42.5 -17t-55.5 -6.5q-33 0 -63.5 8.5t-53 27.5t-36 48t-13.5 70v7q0 91 66 128t190 37h53v18q0 34 -11 55t-48 21q-30 0 -43.5 -16.5t-17.5 -40.5h-172q6 93 71 139t172 46q112 0 171.5 -47.5t59.5 -146.5
v-342h-177v60zM260 111q31 0 52.5 16.5t21.5 45.5v40h-47q-43 0 -62 -11t-19 -40v-6q0 -45 54 -45z" />
    <glyph glyph-name="ae" unicode="&#xe6;" horiz-adv-x="792" 
d="M769 168q-7 -88 -64.5 -133.5t-160.5 -45.5q-126 0 -180 77q-23 -34 -61.5 -55.5t-101.5 -21.5q-81 0 -129.5 37t-48.5 115v14q0 88 60.5 125t172.5 37h47v30q0 33 -10 51t-42 18q-29 0 -40.5 -15.5t-13.5 -42.5h-158q4 89 62 133t155 44q102 0 141 -51q56 51 144 51
q47 0 88.5 -13t72 -41t48.5 -72t18 -105v-81h-302v-7q0 -60 20 -84.5t57 -24.5q35 0 50.5 15.5t18.5 45.5h157zM539 423q-30 0 -50.5 -22.5t-22.5 -83.5h140v16q0 48 -16 69t-51 21zM238 102q30 0 47.5 16t17.5 47v58h-40q-38 0 -56 -11.5t-18 -43.5v-16q0 -50 49 -50z" />
    <glyph glyph-name="ccedilla" unicode="&#xe7;" horiz-adv-x="543" 
d="M381 -130q0 -45 -32 -70t-86 -25t-87 23.5t-39 68.5h84q2 -11 9.5 -19t24.5 -8q16 0 24 8.5t8 21.5q0 14 -8.5 23t-24.5 9q-12 0 -20 -3.5t-13 -8.5l-37 37l42 66q-44 7 -81 26.5t-64 50t-42 73.5t-15 98v36q0 64 21 112.5t57 81t84.5 49t102.5 16.5q47 0 90.5 -11
t77 -35.5t55 -65t24.5 -99.5h-172q-7 71 -70 71q-39 0 -61.5 -27.5t-22.5 -86.5v-41q0 -120 87 -120q31 0 51.5 20t25.5 62h165q-5 -104 -68 -159.5t-178 -55.5l-21 -32q21 3 41 -1t35 -15t24 -28.5t9 -41.5z" />
    <glyph glyph-name="egrave" unicode="&#xe8;" horiz-adv-x="558" 
d="M124 744h176l50 -166h-126zM552 174q-12 -91 -76.5 -138.5t-179.5 -47.5q-60 0 -110 16.5t-86 48.5t-56 79.5t-20 109.5v35q0 61 21 109.5t57.5 81.5t86 50.5t105.5 17.5q53 0 99.5 -15t81.5 -46t55 -79t20 -115v-60h-343q4 -60 29.5 -83.5t63.5 -23.5q37 0 55.5 16.5
t25.5 43.5h171zM295 416q-32 0 -56 -20.5t-31 -75.5h166q-3 96 -79 96z" />
    <glyph glyph-name="eacute" unicode="&#xe9;" horiz-adv-x="558" 
d="M265 744h175l-100 -166h-125zM552 174q-12 -91 -76.5 -138.5t-179.5 -47.5q-60 0 -110 16.5t-86 48.5t-56 79.5t-20 109.5v35q0 61 21 109.5t57.5 81.5t86 50.5t105.5 17.5q53 0 99.5 -15t81.5 -46t55 -79t20 -115v-60h-343q4 -60 29.5 -83.5t63.5 -23.5q37 0 55.5 16.5
t25.5 43.5h171zM295 416q-32 0 -56 -20.5t-31 -75.5h166q-3 96 -79 96z" />
    <glyph glyph-name="ecircumflex" unicode="&#xea;" horiz-adv-x="558" 
d="M220 742h128l110 -163h-120l-57 56l-59 -56h-117zM552 174q-12 -91 -76.5 -138.5t-179.5 -47.5q-60 0 -110 16.5t-86 48.5t-56 79.5t-20 109.5v35q0 61 21 109.5t57.5 81.5t86 50.5t105.5 17.5q53 0 99.5 -15t81.5 -46t55 -79t20 -115v-60h-343q4 -60 29.5 -83.5
t63.5 -23.5q37 0 55.5 16.5t25.5 43.5h171zM295 416q-32 0 -56 -20.5t-31 -75.5h166q-3 96 -79 96z" />
    <glyph glyph-name="edieresis" unicode="&#xeb;" horiz-adv-x="558" 
d="M179 573q-36 0 -60.5 24t-24.5 59t24.5 59t60.5 24q18 0 33.5 -6.5t27 -18t18 -26.5t6.5 -32t-6.5 -32.5t-18 -26.5t-27 -17.5t-33.5 -6.5zM385 573q-18 0 -33 6.5t-26.5 17.5t-18 26.5t-6.5 32.5t6.5 32t18 26.5t26.5 18t33 6.5q36 0 61 -24t25 -59t-25 -59t-61 -24z
M552 174q-12 -91 -76.5 -138.5t-179.5 -47.5q-60 0 -110 16.5t-86 48.5t-56 79.5t-20 109.5v35q0 61 21 109.5t57.5 81.5t86 50.5t105.5 17.5q53 0 99.5 -15t81.5 -46t55 -79t20 -115v-60h-343q4 -60 29.5 -83.5t63.5 -23.5q37 0 55.5 16.5t25.5 43.5h171zM295 416
q-32 0 -56 -20.5t-31 -75.5h166q-3 96 -79 96z" />
    <glyph glyph-name="igrave" unicode="&#xec;" horiz-adv-x="274" 
d="M-19 744h176l50 -166h-126zM51 523h172v-523h-172v523z" />
    <glyph glyph-name="iacute" unicode="&#xed;" horiz-adv-x="274" 
d="M121 744h175l-100 -166h-125zM51 523h172v-523h-172v523z" />
    <glyph glyph-name="icircumflex" unicode="&#xee;" horiz-adv-x="274" 
d="M76 742h128l110 -163h-120l-57 56l-59 -56h-117zM51 523h172v-523h-172v523z" />
    <glyph glyph-name="idieresis" unicode="&#xef;" horiz-adv-x="274" 
d="M37 574q-35 0 -59 23.5t-24 58.5q0 34 24 57.5t59 23.5t59 -23.5t24 -57.5q0 -35 -24 -58.5t-59 -23.5zM236 574q-35 0 -58.5 23.5t-23.5 58.5q0 34 23.5 57.5t58.5 23.5t59.5 -23.5t24.5 -57.5q0 -35 -24.5 -58.5t-59.5 -23.5zM51 523h172v-523h-172v523z" />
    <glyph glyph-name="eth" unicode="&#xf0;" horiz-adv-x="584" 
d="M556 251q0 -62 -19.5 -111t-55 -83t-85 -51.5t-108.5 -17.5q-56 0 -104 17t-83.5 49t-55.5 79.5t-20 108.5v46q0 60 17.5 105t46.5 75.5t66 46t76 15.5q42 0 67.5 -14t45.5 -37q-17 35 -42.5 67.5t-55.5 63.5l-138 -50l-23 55l112 41q-31 27 -63 51t-62 44h204
q15 -9 31 -19t33 -23l101 38l24 -57l-70 -26q32 -29 61 -65.5t51.5 -80t35.5 -94.5t13 -110v-63zM291 116q43 0 66 31t23 90v53q0 59 -23 89t-67 30q-42 0 -66 -30t-24 -89v-52q0 -60 23.5 -91t67.5 -31z" />
    <glyph glyph-name="ntilde" unicode="&#xf1;" horiz-adv-x="579" 
d="M354 579q-21 0 -37 5t-29.5 11.5t-25 11.5t-22.5 5t-19.5 -9t-10.5 -24h-93q5 81 35 118t75 37q19 0 35.5 -5t30.5 -11.5t26 -11.5t24 -5q25 0 31 33h92q-5 -81 -37 -118t-75 -37zM46 523h184v-83q20 42 61 69t103 27q71 0 115 -46t44 -139v-351h-184v312q0 78 -64 78
q-32 0 -53.5 -20t-21.5 -67v-303h-184v523z" />
    <glyph glyph-name="ograve" unicode="&#xf2;" horiz-adv-x="579" 
d="M131 744h176l50 -166h-126zM297 -12q-57 0 -107 16.5t-86.5 48.5t-58 79.5t-21.5 109.5v35q0 61 21.5 109.5t58.5 81.5t87 50.5t107 17.5t107 -17t86.5 -49.5t58 -79.5t21.5 -108v-36q0 -62 -21.5 -110t-59 -81t-87 -50t-106.5 -17zM298 123q42 0 64.5 30t22.5 89v41
q0 60 -22.5 89t-64.5 29q-41 0 -65 -28.5t-24 -87.5v-42q0 -60 23 -90t66 -30z" />
    <glyph glyph-name="oacute" unicode="&#xf3;" horiz-adv-x="579" 
d="M271 744h175l-100 -166h-125zM297 -12q-57 0 -107 16.5t-86.5 48.5t-58 79.5t-21.5 109.5v35q0 61 21.5 109.5t58.5 81.5t87 50.5t107 17.5t107 -17t86.5 -49.5t58 -79.5t21.5 -108v-36q0 -62 -21.5 -110t-59 -81t-87 -50t-106.5 -17zM298 123q42 0 64.5 30t22.5 89v41
q0 60 -22.5 89t-64.5 29q-41 0 -65 -28.5t-24 -87.5v-42q0 -60 23 -90t66 -30z" />
    <glyph glyph-name="ocircumflex" unicode="&#xf4;" horiz-adv-x="579" 
d="M226 742h128l110 -163h-120l-57 56l-59 -56h-117zM297 -12q-57 0 -107 16.5t-86.5 48.5t-58 79.5t-21.5 109.5v35q0 61 21.5 109.5t58.5 81.5t87 50.5t107 17.5t107 -17t86.5 -49.5t58 -79.5t21.5 -108v-36q0 -62 -21.5 -110t-59 -81t-87 -50t-106.5 -17zM298 123
q42 0 64.5 30t22.5 89v41q0 60 -22.5 89t-64.5 29q-41 0 -65 -28.5t-24 -87.5v-42q0 -60 23 -90t66 -30z" />
    <glyph glyph-name="otilde" unicode="&#xf5;" horiz-adv-x="579" 
d="M351 579q-21 0 -37 5t-29.5 11.5t-25 11.5t-22.5 5t-19.5 -9t-10.5 -24h-93q5 81 35 118t75 37q19 0 35.5 -5t30.5 -11.5t26 -11.5t24 -5q25 0 31 33h92q-5 -81 -37 -118t-75 -37zM297 -12q-57 0 -107 16.5t-86.5 48.5t-58 79.5t-21.5 109.5v35q0 61 21.5 109.5
t58.5 81.5t87 50.5t107 17.5t107 -17t86.5 -49.5t58 -79.5t21.5 -108v-36q0 -62 -21.5 -110t-59 -81t-87 -50t-106.5 -17zM298 123q42 0 64.5 30t22.5 89v41q0 60 -22.5 89t-64.5 29q-41 0 -65 -28.5t-24 -87.5v-42q0 -60 23 -90t66 -30z" />
    <glyph glyph-name="odieresis" unicode="&#xf6;" horiz-adv-x="579" 
d="M185 573q-36 0 -60.5 24t-24.5 59t24.5 59t60.5 24q18 0 33.5 -6.5t27 -18t18 -26.5t6.5 -32t-6.5 -32.5t-18 -26.5t-27 -17.5t-33.5 -6.5zM391 573q-18 0 -33 6.5t-26.5 17.5t-18 26.5t-6.5 32.5t6.5 32t18 26.5t26.5 18t33 6.5q36 0 61 -24t25 -59t-25 -59t-61 -24z
M297 -12q-57 0 -107 16.5t-86.5 48.5t-58 79.5t-21.5 109.5v35q0 61 21.5 109.5t58.5 81.5t87 50.5t107 17.5t107 -17t86.5 -49.5t58 -79.5t21.5 -108v-36q0 -62 -21.5 -110t-59 -81t-87 -50t-106.5 -17zM298 123q42 0 64.5 30t22.5 89v41q0 60 -22.5 89t-64.5 29
q-41 0 -65 -28.5t-24 -87.5v-42q0 -60 23 -90t66 -30z" />
    <glyph glyph-name="divide" unicode="&#xf7;" horiz-adv-x="543" 
d="M272 448q-19 0 -35.5 7t-29 19t-19.5 28t-7 35t7 35t19.5 28t29 18.5t35.5 6.5q38 0 64 -25t26 -63t-26 -63.5t-64 -25.5zM36 401h471v-121h-471v121zM272 55q-19 0 -35.5 6.5t-29 18.5t-19.5 28t-7 35t7 35t19.5 28t29 19t35.5 7q38 0 64 -25.5t26 -63.5t-26 -63
t-64 -25z" />
    <glyph glyph-name="oslash" unicode="&#xf8;" horiz-adv-x="578" 
d="M289 -11q-94 0 -161 44l-59 -67l-46 38l59 68q-27 31 -42.5 72.5t-15.5 92.5v45q0 60 20.5 107t56.5 79.5t84.5 50t104.5 17.5q93 0 160 -44l56 64l46 -37l-57 -65q28 -32 43.5 -74t15.5 -94v-44q0 -60 -20.5 -107t-56 -79.5t-84 -49.5t-104.5 -17zM195 236q0 -9 0.5 -17
t1.5 -16l158 180q-23 26 -65 26q-44 0 -69.5 -29.5t-25.5 -88.5v-55zM383 290q0 9 -0.5 17t-1.5 16l-158 -181q24 -27 67 -27q45 0 69 31t24 91v53z" />
    <glyph glyph-name="ugrave" unicode="&#xf9;" horiz-adv-x="579" 
d="M130 744h176l50 -166h-126zM550 0h-184v80q-20 -42 -58 -67.5t-101 -25.5q-72 0 -118.5 46t-46.5 139v351h184v-320q0 -77 63 -77q35 0 56 20t21 66v311h184v-523z" />
    <glyph glyph-name="uacute" unicode="&#xfa;" horiz-adv-x="579" 
d="M271 744h175l-100 -166h-125zM550 0h-184v80q-20 -42 -58 -67.5t-101 -25.5q-72 0 -118.5 46t-46.5 139v351h184v-320q0 -77 63 -77q35 0 56 20t21 66v311h184v-523z" />
    <glyph glyph-name="ucircumflex" unicode="&#xfb;" horiz-adv-x="579" 
d="M226 742h128l110 -163h-120l-57 56l-59 -56h-117zM550 0h-184v80q-20 -42 -58 -67.5t-101 -25.5q-72 0 -118.5 46t-46.5 139v351h184v-320q0 -77 63 -77q35 0 56 20t21 66v311h184v-523z" />
    <glyph glyph-name="udieresis" unicode="&#xfc;" horiz-adv-x="579" 
d="M184 573q-36 0 -60.5 24t-24.5 59t24.5 59t60.5 24q18 0 33.5 -6.5t27 -18t18 -26.5t6.5 -32t-6.5 -32.5t-18 -26.5t-27 -17.5t-33.5 -6.5zM390 573q-18 0 -33 6.5t-26.5 17.5t-18 26.5t-6.5 32.5t6.5 32t18 26.5t26.5 18t33 6.5q36 0 61 -24t25 -59t-25 -59t-61 -24z
M550 0h-184v80q-20 -42 -58 -67.5t-101 -25.5q-72 0 -118.5 46t-46.5 139v351h184v-320q0 -77 63 -77q35 0 56 20t21 66v311h184v-523z" />
    <glyph glyph-name="yacute" unicode="&#xfd;" horiz-adv-x="548" 
d="M266 744h175l-100 -166h-125zM299 255l89 268h174l-261 -697h-177l79 220l-197 477h198z" />
    <glyph glyph-name="thorn" unicode="&#xfe;" horiz-adv-x="599" 
d="M47 750h175v-307q20 38 58 65.5t96 27.5q41 0 77 -16t63 -47.5t42.5 -78.5t15.5 -110v-46q0 -63 -16 -110t-43 -77.5t-63.5 -46t-78.5 -15.5q-56 0 -95 25t-56 64v-252h-175v924zM308 119q42 0 65.5 30.5t23.5 88.5v48q0 61 -23.5 90.5t-64.5 29.5q-42 0 -66.5 -30.5
t-24.5 -90.5v-45q0 -61 24 -91t66 -30z" />
    <glyph glyph-name="ydieresis" unicode="&#xff;" horiz-adv-x="551" 
d="M180 573q-36 0 -60.5 24t-24.5 59t24.5 59t60.5 24q18 0 33.5 -6.5t27 -18t18 -26.5t6.5 -32t-6.5 -32.5t-18 -26.5t-27 -17.5t-33.5 -6.5zM386 573q-18 0 -33 6.5t-26.5 17.5t-18 26.5t-6.5 32.5t6.5 32t18 26.5t26.5 18t33 6.5q36 0 61 -24t25 -59t-25 -59t-61 -24z
M299 255l89 268h174l-261 -697h-177l79 220l-197 477h198z" />
    <glyph glyph-name="Amacron" unicode="&#x100;" horiz-adv-x="683" 
d="M184 874h311v-106h-311v106zM433 136h-207l-34 -136h-180l199 715h261l199 -715h-204zM259 270h141l-71 283z" />
    <glyph glyph-name="amacron" unicode="&#x101;" horiz-adv-x="544" 
d="M124 703h297v-100h-297v100zM339 60q-8 -13 -20 -25.5t-30 -23t-42.5 -17t-55.5 -6.5q-33 0 -63.5 8.5t-53 27.5t-36 48t-13.5 70v7q0 91 66 128t190 37h53v18q0 34 -11 55t-48 21q-30 0 -43.5 -16.5t-17.5 -40.5h-172q6 93 71 139t172 46q112 0 171.5 -47.5t59.5 -146.5
v-342h-177v60zM260 111q31 0 52.5 16.5t21.5 45.5v40h-47q-43 0 -62 -11t-19 -40v-6q0 -45 54 -45z" />
    <glyph glyph-name="Abreve" unicode="&#x102;" horiz-adv-x="683" 
d="M338 750q-71 0 -113 39.5t-47 111.5h111q2 -21 14.5 -33t34.5 -12t35.5 12.5t15.5 32.5h111q-5 -72 -48.5 -111.5t-113.5 -39.5zM433 136h-207l-34 -136h-180l199 715h261l199 -715h-204zM259 270h141l-71 283z" />
    <glyph glyph-name="abreve" unicode="&#x103;" horiz-adv-x="544" 
d="M271 580q-69 0 -111 40t-45 119h106q2 -23 14.5 -36.5t35.5 -13.5t36.5 13.5t15.5 36.5h106q-4 -79 -47.5 -119t-110.5 -40zM339 60q-8 -13 -20 -25.5t-30 -23t-42.5 -17t-55.5 -6.5q-33 0 -63.5 8.5t-53 27.5t-36 48t-13.5 70v7q0 91 66 128t190 37h53v18q0 34 -11 55
t-48 21q-30 0 -43.5 -16.5t-17.5 -40.5h-172q6 93 71 139t172 46q112 0 171.5 -47.5t59.5 -146.5v-342h-177v60zM260 111q31 0 52.5 16.5t21.5 45.5v40h-47q-43 0 -62 -11t-19 -40v-6q0 -45 54 -45z" />
    <glyph glyph-name="Aogonek" unicode="&#x104;" horiz-adv-x="683" 
d="M471 -103q0 38 26 63t57 40h-87l-34 136h-207l-34 -136h-180l199 715h261l199 -715h-18q-20 -17 -30.5 -31t-10.5 -30q0 -28 31 -28q15 0 27 4v-81q-13 -6 -35 -11t-51 -5q-48 0 -80.5 20.5t-32.5 58.5zM259 270h141l-71 283z" />
    <glyph glyph-name="aogonek" unicode="&#x105;" horiz-adv-x="544" 
d="M304 -103q0 38 26 63t57 40h-48v60q-8 -13 -20 -25.5t-30 -23t-42.5 -17t-55.5 -6.5q-33 0 -63.5 8.5t-53 27.5t-36 48t-13.5 70v7q0 91 66 128t190 37h53v18q0 34 -11 55t-48 21q-30 0 -43.5 -16.5t-17.5 -40.5h-172q6 93 71 139t172 46q112 0 171.5 -47.5t59.5 -146.5
v-342h-30q-20 -17 -30.5 -31t-10.5 -30q0 -28 31 -28q15 0 27 4v-81q-13 -6 -35 -11t-51 -5q-48 0 -80.5 20.5t-32.5 58.5zM260 111q31 0 52.5 16.5t21.5 45.5v40h-47q-43 0 -62 -11t-19 -40v-6q0 -45 54 -45z" />
    <glyph glyph-name="Cacute" unicode="&#x106;" horiz-adv-x="697" 
d="M336 901h180l-97 -144h-132zM668 254q-5 -66 -29 -116t-63.5 -83.5t-92.5 -50t-117 -16.5q-81 0 -143 23t-104 66t-63 104t-21 137v78q0 76 25 137t68.5 104t103 65.5t128.5 22.5q63 0 115.5 -14.5t91.5 -46t63.5 -80.5t30.5 -118h-200q-8 54 -31.5 80t-70.5 26
q-57 0 -89.5 -44t-32.5 -128v-83q0 -85 32 -129t94 -44q45 0 74.5 26.5t37.5 83.5h193z" />
    <glyph glyph-name="cacute" unicode="&#x107;" horiz-adv-x="543" 
d="M261 744h175l-100 -166h-125zM539 203q-5 -104 -68.5 -159.5t-183.5 -55.5q-56 0 -104 15.5t-83 47t-55.5 79t-20.5 111.5v36q0 64 21 112.5t57 81t84.5 49t102.5 16.5q47 0 90.5 -11t77 -35.5t55 -65t24.5 -99.5h-172q-7 71 -70 71q-39 0 -61.5 -27.5t-22.5 -86.5v-41
q0 -120 87 -120q31 0 51.5 20t25.5 62h165z" />
    <glyph glyph-name="Ccircumflex" unicode="&#x108;" horiz-adv-x="697" 
d="M291 902h146l105 -145h-124l-57 49l-58 -49h-121zM668 254q-5 -66 -29 -116t-63.5 -83.5t-92.5 -50t-117 -16.5q-81 0 -143 23t-104 66t-63 104t-21 137v78q0 76 25 137t68.5 104t103 65.5t128.5 22.5q63 0 115.5 -14.5t91.5 -46t63.5 -80.5t30.5 -118h-200
q-8 54 -31.5 80t-70.5 26q-57 0 -89.5 -44t-32.5 -128v-83q0 -85 32 -129t94 -44q45 0 74.5 26.5t37.5 83.5h193z" />
    <glyph glyph-name="ccircumflex" unicode="&#x109;" horiz-adv-x="543" 
d="M217 742h128l110 -163h-120l-57 56l-59 -56h-117zM539 203q-5 -104 -68.5 -159.5t-183.5 -55.5q-56 0 -104 15.5t-83 47t-55.5 79t-20.5 111.5v36q0 64 21 112.5t57 81t84.5 49t102.5 16.5q47 0 90.5 -11t77 -35.5t55 -65t24.5 -99.5h-172q-7 71 -70 71
q-39 0 -61.5 -27.5t-22.5 -86.5v-41q0 -120 87 -120q31 0 51.5 20t25.5 62h165z" />
    <glyph glyph-name="Cdotaccent" unicode="&#x10a;" horiz-adv-x="697" 
d="M361 754q-40 0 -66.5 24.5t-26.5 62.5q0 37 26.5 62t66.5 25q39 0 65.5 -25t26.5 -62q0 -38 -26.5 -62.5t-65.5 -24.5zM668 254q-5 -66 -29 -116t-63.5 -83.5t-92.5 -50t-117 -16.5q-81 0 -143 23t-104 66t-63 104t-21 137v78q0 76 25 137t68.5 104t103 65.5t128.5 22.5
q63 0 115.5 -14.5t91.5 -46t63.5 -80.5t30.5 -118h-200q-8 54 -31.5 80t-70.5 26q-57 0 -89.5 -44t-32.5 -128v-83q0 -85 32 -129t94 -44q45 0 74.5 26.5t37.5 83.5h193z" />
    <glyph glyph-name="cdotaccent" unicode="&#x10b;" horiz-adv-x="543" 
d="M280 573q-40 0 -67 24.5t-27 62.5t27 63t67 25q39 0 66 -25t27 -63t-27 -62.5t-66 -24.5zM539 203q-5 -104 -68.5 -159.5t-183.5 -55.5q-56 0 -104 15.5t-83 47t-55.5 79t-20.5 111.5v36q0 64 21 112.5t57 81t84.5 49t102.5 16.5q47 0 90.5 -11t77 -35.5t55 -65
t24.5 -99.5h-172q-7 71 -70 71q-39 0 -61.5 -27.5t-22.5 -86.5v-41q0 -120 87 -120q31 0 51.5 20t25.5 62h165z" />
    <glyph glyph-name="Ccaron" unicode="&#x10c;" horiz-adv-x="697" 
d="M181 902h124l57 -50l58 50h121l-109 -145h-146zM668 254q-5 -66 -29 -116t-63.5 -83.5t-92.5 -50t-117 -16.5q-81 0 -143 23t-104 66t-63 104t-21 137v78q0 76 25 137t68.5 104t103 65.5t128.5 22.5q63 0 115.5 -14.5t91.5 -46t63.5 -80.5t30.5 -118h-200q-8 54 -31.5 80
t-70.5 26q-57 0 -89.5 -44t-32.5 -128v-83q0 -85 32 -129t94 -44q45 0 74.5 26.5t37.5 83.5h193z" />
    <glyph glyph-name="ccaron" unicode="&#x10d;" horiz-adv-x="543" 
d="M101 743h119l58 -55l59 55h117l-115 -162h-128zM539 203q-5 -104 -68.5 -159.5t-183.5 -55.5q-56 0 -104 15.5t-83 47t-55.5 79t-20.5 111.5v36q0 64 21 112.5t57 81t84.5 49t102.5 16.5q47 0 90.5 -11t77 -35.5t55 -65t24.5 -99.5h-172q-7 71 -70 71q-39 0 -61.5 -27.5
t-22.5 -86.5v-41q0 -120 87 -120q31 0 51.5 20t25.5 62h165z" />
    <glyph glyph-name="Dcaron" unicode="&#x10e;" horiz-adv-x="694" 
d="M134 902h124l57 -50l58 50h121l-109 -145h-146zM313 715q172 0 259.5 -79.5t87.5 -237.5v-74q0 -157 -87.5 -240.5t-259.5 -83.5h-251v715h251zM257 565v-415h50q81 0 116 42t35 131v71q0 90 -36 130.5t-117 40.5h-48z" />
    <glyph glyph-name="dcaron" unicode="&#x10f;" horiz-adv-x="594" 
d="M590 750h126l-45 -172h-89zM565 0h-184v85q-18 -40 -56.5 -68.5t-98.5 -28.5q-41 0 -77.5 15t-63.5 46.5t-43 78.5t-16 112v42q0 64 16 112t43.5 79.5t64.5 47t79 15.5q59 0 95.5 -24t56.5 -65v301h184v-748zM384 283q0 58 -22 88t-64 30t-64.5 -28.5t-22.5 -88.5v-44
q0 -56 22 -84.5t63 -28.5q42 0 65 29t23 88v39z" />
    <glyph glyph-name="Dcroat" unicode="&#x110;" horiz-adv-x="712" 
d="M678 327q0 -158 -88 -242.5t-262 -84.5h-250v293h-52v136h52v286h249q175 0 263 -80.5t88 -239.5v-68zM321 151q82 0 118 42.5t36 131.5v67q0 92 -36.5 131.5t-118.5 39.5h-49v-134h106v-136h-106v-142h50z" />
    <glyph glyph-name="dcroat" unicode="&#x111;" horiz-adv-x="594" 
d="M381 85q-18 -40 -56.5 -68.5t-98.5 -28.5q-41 0 -77.5 15t-63.5 46.5t-43 78.5t-16 112v42q0 64 16 112t43.5 79.5t64.5 47t79 15.5q59 0 95.5 -24t56.5 -65v137h-146v91h146v73h184v-73h41v-91h-41v-584h-184v85zM384 283q0 58 -22 88t-64 30t-64.5 -28.5t-22.5 -88.5
v-44q0 -56 22 -84.5t63 -28.5q42 0 65 29t23 88v39z" />
    <glyph glyph-name="Emacron" unicode="&#x112;" horiz-adv-x="566" 
d="M139 874h311v-106h-311v106zM62 715h458v-151h-264v-130h210v-139h-210v-144h279v-151h-473v715z" />
    <glyph glyph-name="emacron" unicode="&#x113;" horiz-adv-x="558" 
d="M133 703h297v-100h-297v100zM552 174q-12 -91 -76.5 -138.5t-179.5 -47.5q-60 0 -110 16.5t-86 48.5t-56 79.5t-20 109.5v35q0 61 21 109.5t57.5 81.5t86 50.5t105.5 17.5q53 0 99.5 -15t81.5 -46t55 -79t20 -115v-60h-343q4 -60 29.5 -83.5t63.5 -23.5q37 0 55.5 16.5
t25.5 43.5h171zM295 416q-32 0 -56 -20.5t-31 -75.5h166q-3 96 -79 96z" />
    <glyph glyph-name="Ebreve" unicode="&#x114;" horiz-adv-x="566" 
d="M294 750q-71 0 -113 39.5t-47 111.5h111q2 -21 14.5 -33t34.5 -12t35.5 12.5t15.5 32.5h111q-5 -72 -48.5 -111.5t-113.5 -39.5zM62 715h458v-151h-264v-130h210v-139h-210v-144h279v-151h-473v715z" />
    <glyph glyph-name="ebreve" unicode="&#x115;" horiz-adv-x="558" 
d="M278 580q-69 0 -111 40t-45 119h106q2 -23 14.5 -36.5t35.5 -13.5t36.5 13.5t15.5 36.5h106q-4 -79 -47.5 -119t-110.5 -40zM552 174q-12 -91 -76.5 -138.5t-179.5 -47.5q-60 0 -110 16.5t-86 48.5t-56 79.5t-20 109.5v35q0 61 21 109.5t57.5 81.5t86 50.5t105.5 17.5
q53 0 99.5 -15t81.5 -46t55 -79t20 -115v-60h-343q4 -60 29.5 -83.5t63.5 -23.5q37 0 55.5 16.5t25.5 43.5h171zM295 416q-32 0 -56 -20.5t-31 -75.5h166q-3 96 -79 96z" />
    <glyph glyph-name="Edotaccent" unicode="&#x116;" horiz-adv-x="566" 
d="M296 754q-40 0 -66.5 24.5t-26.5 62.5q0 37 26.5 62t66.5 25q39 0 65.5 -25t26.5 -62q0 -38 -26.5 -62.5t-65.5 -24.5zM62 715h458v-151h-264v-130h210v-139h-210v-144h279v-151h-473v715z" />
    <glyph glyph-name="edotaccent" unicode="&#x117;" horiz-adv-x="558" 
d="M282 573q-40 0 -67 24.5t-27 62.5t27 63t67 25q39 0 66 -25t27 -63t-27 -62.5t-66 -24.5zM552 174q-12 -91 -76.5 -138.5t-179.5 -47.5q-60 0 -110 16.5t-86 48.5t-56 79.5t-20 109.5v35q0 61 21 109.5t57.5 81.5t86 50.5t105.5 17.5q53 0 99.5 -15t81.5 -46t55 -79
t20 -115v-60h-343q4 -60 29.5 -83.5t63.5 -23.5q37 0 55.5 16.5t25.5 43.5h171zM295 416q-32 0 -56 -20.5t-31 -75.5h166q-3 96 -79 96z" />
    <glyph glyph-name="Eogonek" unicode="&#x118;" horiz-adv-x="566" 
d="M305 -103q0 38 26 63t57 40h-326v715h458v-151h-264v-130h210v-139h-210v-144h279v-151h-48q-20 -17 -30.5 -31t-10.5 -30q0 -28 31 -28q15 0 27 4v-81q-13 -6 -35 -11t-51 -5q-48 0 -80.5 20.5t-32.5 58.5z" />
    <glyph glyph-name="eogonek" unicode="&#x119;" horiz-adv-x="558" 
d="M1 20h556v-20h-556v20z" />
    <glyph glyph-name="Ecaron" unicode="&#x11a;" horiz-adv-x="566" 
d="M116 902h124l57 -50l58 50h121l-109 -145h-146zM62 715h458v-151h-264v-130h210v-139h-210v-144h279v-151h-473v715z" />
    <glyph glyph-name="ecaron" unicode="&#x11b;" horiz-adv-x="558" 
d="M105 743h119l58 -55l59 55h117l-115 -162h-128zM552 174q-12 -91 -76.5 -138.5t-179.5 -47.5q-60 0 -110 16.5t-86 48.5t-56 79.5t-20 109.5v35q0 61 21 109.5t57.5 81.5t86 50.5t105.5 17.5q53 0 99.5 -15t81.5 -46t55 -79t20 -115v-60h-343q4 -60 29.5 -83.5
t63.5 -23.5q37 0 55.5 16.5t25.5 43.5h171zM295 416q-32 0 -56 -20.5t-31 -75.5h166q-3 96 -79 96z" />
    <glyph glyph-name="Gcircumflex" unicode="&#x11c;" horiz-adv-x="722" 
d="M298 902h146l105 -145h-124l-57 49l-58 -49h-121zM684 284q0 -68 -19.5 -122.5t-59 -93t-98.5 -59.5t-138 -21q-81 0 -143 23.5t-104.5 66t-64.5 103.5t-22 136v80q0 76 25.5 137t70 103.5t105.5 65t132 22.5q59 0 111.5 -13.5t93 -43.5t66.5 -77.5t31 -115.5h-193
q-8 51 -34 74t-74 23q-60 0 -96 -45.5t-36 -128.5v-85q0 -38 7.5 -70.5t24 -55.5t42.5 -36t64 -13q62 0 90 32.5t30 84.5h-116v137h305v-108z" />
    <glyph glyph-name="gcircumflex" unicode="&#x11d;" horiz-adv-x="595" 
d="M223 742h128l110 -163h-120l-57 56l-59 -56h-117zM565 36q0 -115 -72 -171t-207 -56q-128 0 -191 49.5t-71 136.5h181q2 -11 7 -21.5t14.5 -18.5t24 -13t36.5 -5q51 0 72.5 26t21.5 69v85q-18 -38 -56 -64.5t-98 -26.5q-41 0 -77.5 14.5t-64 44t-43.5 73t-16 101.5v41
q0 57 16 101t43.5 74t65 45.5t79.5 15.5q58 0 94.5 -23.5t56.5 -64.5v75h184v-487zM298 155q41 0 64 27.5t23 76.5v39q0 49 -22.5 76.5t-63.5 27.5q-42 0 -65 -26.5t-23 -76.5v-43q0 -48 22.5 -74.5t64.5 -26.5z" />
    <glyph glyph-name="Gbreve" unicode="&#x11e;" horiz-adv-x="722" 
d="M368 750q-71 0 -113 39.5t-47 111.5h111q2 -21 14.5 -33t34.5 -12t35.5 12.5t15.5 32.5h111q-5 -72 -48.5 -111.5t-113.5 -39.5zM684 284q0 -68 -19.5 -122.5t-59 -93t-98.5 -59.5t-138 -21q-81 0 -143 23.5t-104.5 66t-64.5 103.5t-22 136v80q0 76 25.5 137t70 103.5
t105.5 65t132 22.5q59 0 111.5 -13.5t93 -43.5t66.5 -77.5t31 -115.5h-193q-8 51 -34 74t-74 23q-60 0 -96 -45.5t-36 -128.5v-85q0 -38 7.5 -70.5t24 -55.5t42.5 -36t64 -13q62 0 90 32.5t30 84.5h-116v137h305v-108z" />
    <glyph glyph-name="gbreve" unicode="&#x11f;" horiz-adv-x="595" 
d="M284 580q-69 0 -111 40t-45 119h106q2 -23 14.5 -36.5t35.5 -13.5t36.5 13.5t15.5 36.5h106q-4 -79 -47.5 -119t-110.5 -40zM565 36q0 -115 -72 -171t-207 -56q-128 0 -191 49.5t-71 136.5h181q2 -11 7 -21.5t14.5 -18.5t24 -13t36.5 -5q51 0 72.5 26t21.5 69v85
q-18 -38 -56 -64.5t-98 -26.5q-41 0 -77.5 14.5t-64 44t-43.5 73t-16 101.5v41q0 57 16 101t43.5 74t65 45.5t79.5 15.5q58 0 94.5 -23.5t56.5 -64.5v75h184v-487zM298 155q41 0 64 27.5t23 76.5v39q0 49 -22.5 76.5t-63.5 27.5q-42 0 -65 -26.5t-23 -76.5v-43
q0 -48 22.5 -74.5t64.5 -26.5z" />
    <glyph glyph-name="Gdotaccent" unicode="&#x120;" horiz-adv-x="722" 
d="M370 754q-40 0 -66.5 24.5t-26.5 62.5q0 37 26.5 62t66.5 25q39 0 65.5 -25t26.5 -62q0 -38 -26.5 -62.5t-65.5 -24.5zM684 284q0 -68 -19.5 -122.5t-59 -93t-98.5 -59.5t-138 -21q-81 0 -143 23.5t-104.5 66t-64.5 103.5t-22 136v80q0 76 25.5 137t70 103.5t105.5 65
t132 22.5q59 0 111.5 -13.5t93 -43.5t66.5 -77.5t31 -115.5h-193q-8 51 -34 74t-74 23q-60 0 -96 -45.5t-36 -128.5v-85q0 -38 7.5 -70.5t24 -55.5t42.5 -36t64 -13q62 0 90 32.5t30 84.5h-116v137h305v-108z" />
    <glyph glyph-name="gdotaccent" unicode="&#x121;" horiz-adv-x="595" 
d="M285 573q-40 0 -67 24.5t-27 62.5t27 63t67 25q39 0 66 -25t27 -63t-27 -62.5t-66 -24.5zM565 36q0 -115 -72 -171t-207 -56q-128 0 -191 49.5t-71 136.5h181q2 -11 7 -21.5t14.5 -18.5t24 -13t36.5 -5q51 0 72.5 26t21.5 69v85q-18 -38 -56 -64.5t-98 -26.5
q-41 0 -77.5 14.5t-64 44t-43.5 73t-16 101.5v41q0 57 16 101t43.5 74t65 45.5t79.5 15.5q58 0 94.5 -23.5t56.5 -64.5v75h184v-487zM298 155q41 0 64 27.5t23 76.5v39q0 49 -22.5 76.5t-63.5 27.5q-42 0 -65 -26.5t-23 -76.5v-43q0 -48 22.5 -74.5t64.5 -26.5z" />
    <glyph glyph-name="uni0122" unicode="&#x122;" horiz-adv-x="722" 
d="M684 284q0 -68 -19.5 -122.5t-59 -93t-98.5 -59.5t-138 -21q-81 0 -143 23.5t-104.5 66t-64.5 103.5t-22 136v80q0 76 25.5 137t70 103.5t105.5 65t132 22.5q59 0 111.5 -13.5t93 -43.5t66.5 -77.5t31 -115.5h-193q-8 51 -34 74t-74 23q-60 0 -96 -45.5t-36 -128.5v-85
q0 -38 7.5 -70.5t24 -55.5t42.5 -36t64 -13q62 0 90 32.5t30 84.5h-116v137h305v-108zM256 -199l38 163l155 -6l-94 -182z" />
    <glyph glyph-name="uni0123" unicode="&#x123;" horiz-adv-x="595" 
d="M211 579l94 181l98 -25l-38 -162zM565 36q0 -115 -72 -171t-207 -56q-128 0 -191 49.5t-71 136.5h181q2 -11 7 -21.5t14.5 -18.5t24 -13t36.5 -5q51 0 72.5 26t21.5 69v85q-18 -38 -56 -64.5t-98 -26.5q-41 0 -77.5 14.5t-64 44t-43.5 73t-16 101.5v41q0 57 16 101
t43.5 74t65 45.5t79.5 15.5q58 0 94.5 -23.5t56.5 -64.5v75h184v-487zM298 155q41 0 64 27.5t23 76.5v39q0 49 -22.5 76.5t-63.5 27.5q-42 0 -65 -26.5t-23 -76.5v-43q0 -48 22.5 -74.5t64.5 -26.5z" />
    <glyph glyph-name="Hcircumflex" unicode="&#x124;" horiz-adv-x="719" 
d="M290 902h146l105 -145h-124l-57 49l-58 -49h-121zM62 715h194v-274h207v274h194v-715h-194v287h-207v-287h-194v715z" />
    <glyph glyph-name="hcircumflex" unicode="&#x125;" horiz-adv-x="579" 
d="M224 940h146l105 -145h-124l-57 49l-58 -49h-121zM46 748h184v-308q20 42 61 69t103 27q71 0 115 -46t44 -139v-351h-184v312q0 78 -64 78q-32 0 -53.5 -20t-21.5 -67v-303h-184v748z" />
    <glyph glyph-name="Hbar" unicode="&#x126;" horiz-adv-x="722" 
d="M257 0h-194v522h-58v95h58v98h194v-98h207v98h194v-98h62v-95h-62v-522h-194v287h-207v-287zM464 441v81h-207v-81h207z" />
    <glyph glyph-name="hbar" unicode="&#x127;" horiz-adv-x="579" 
d="M231 0h-184v584h-51v91h51v73h184v-73h136v-91h-136v-144q20 42 61 69t103 27q71 0 115 -46t44 -139v-351h-184v312q0 78 -64 78q-32 0 -53.5 -20t-21.5 -67v-303z" />
    <glyph glyph-name="Itilde" unicode="&#x128;" horiz-adv-x="328" 
d="M229 756q-21 0 -38 5.5t-31.5 11.5t-26.5 11.5t-23 5.5q-12 0 -20 -9.5t-11 -23.5h-97q5 79 38.5 115.5t78.5 36.5q20 0 36.5 -5t31.5 -11.5t28 -11.5t25 -5q24 0 30 33h97q-3 -41 -13.5 -69.5t-26.5 -47.5t-36 -27.5t-42 -8.5zM65 715h197v-715h-197v715z" />
    <glyph glyph-name="itilde" unicode="&#x129;" horiz-adv-x="274" 
d="M201 579q-21 0 -37 5t-29.5 11.5t-25 11.5t-22.5 5t-19.5 -9t-10.5 -24h-93q5 81 35 118t75 37q19 0 35.5 -5t30.5 -11.5t26 -11.5t24 -5q25 0 31 33h92q-5 -81 -37 -118t-75 -37zM51 523h172v-523h-172v523z" />
    <glyph glyph-name="Imacron" unicode="&#x12a;" horiz-adv-x="328" 
d="M8 874h311v-106h-311v106zM65 715h197v-715h-197v715z" />
    <glyph glyph-name="imacron" unicode="&#x12b;" horiz-adv-x="274" 
d="M19 703h236v-100h-236v100zM51 523h172v-523h-172v523z" />
    <glyph glyph-name="Ibreve" unicode="&#x12c;" horiz-adv-x="328" 
d="M163 750q-71 0 -113 39.5t-47 111.5h111q2 -21 14.5 -33t34.5 -12t35.5 12.5t15.5 32.5h111q-5 -72 -48.5 -111.5t-113.5 -39.5zM65 715h197v-715h-197v715z" />
    <glyph glyph-name="ibreve" unicode="&#x12d;" horiz-adv-x="274" 
d="M137 580q-69 0 -111 40t-45 119h106q2 -23 14.5 -36.5t35.5 -13.5t36.5 13.5t15.5 36.5h106q-4 -79 -47.5 -119t-110.5 -40zM51 523h172v-523h-172v523z" />
    <glyph glyph-name="Iogonek" unicode="&#x12e;" horiz-adv-x="328" 
d="M1 20h326v-20h-326v20z" />
    <glyph glyph-name="iogonek" unicode="&#x12f;" horiz-adv-x="274" 
d="M1 20h272v-20h-272v20z" />
    <glyph glyph-name="Idotaccent" unicode="&#x130;" horiz-adv-x="328" 
d="M165 754q-40 0 -66.5 24.5t-26.5 62.5q0 37 26.5 62t66.5 25q39 0 65.5 -25t26.5 -62q0 -38 -26.5 -62.5t-65.5 -24.5zM65 715h197v-715h-197v715z" />
    <glyph glyph-name="dotlessi" unicode="&#x131;" horiz-adv-x="274" 
d="M51 523h172v-523h-172v523z" />
    <glyph glyph-name="IJ" unicode="&#x132;" horiz-adv-x="748" 
d="M66 715h198v-715h-198v715zM457 -8q-46 0 -74 6.5t-48 16.5v147q16 -5 34 -9t44 -4q40 0 64 20.5t24 72.5v473h197v-476q0 -122 -60.5 -184.5t-180.5 -62.5z" />
    <glyph glyph-name="ij" unicode="&#x133;" horiz-adv-x="553" 
d="M142 563q-44 0 -72.5 26.5t-28.5 67.5t28.5 67.5t72.5 26.5q42 0 71 -26.5t29 -67.5t-28.5 -67.5t-71.5 -26.5zM418 563q-44 0 -72.5 26.5t-28.5 67.5t28.5 67.5t72.5 26.5q42 0 71 -26.5t29 -67.5t-28.5 -67.5t-71.5 -26.5zM50 523h184v-523h-184v523zM263 -48
q32 2 47.5 15t15.5 44v512h183v-518q0 -43 -11.5 -77.5t-40 -58.5t-76 -37t-118.5 -13v133z" />
    <glyph glyph-name="Jcircumflex" unicode="&#x134;" horiz-adv-x="441" 
d="M220 902h146l105 -145h-124l-57 49l-58 -49h-121zM149 -8q-46 0 -73.5 6.5t-47.5 16.5v147q15 -6 33 -9.5t44 -3.5q40 0 64 20t24 72v474h195v-477q0 -121 -59.5 -183.5t-179.5 -62.5z" />
    <glyph glyph-name="jcircumflex" unicode="&#x135;" horiz-adv-x="273" 
d="M75 742h128l110 -163h-120l-57 56l-59 -56h-117zM-13 -56q32 2 48 16t16 45v518h171v-523q0 -42 -11.5 -75.5t-38.5 -57t-72.5 -36.5t-112.5 -13v126z" />
    <glyph glyph-name="uni0136" unicode="&#x136;" horiz-adv-x="674" 
d="M257 308v-308h-195v715h195v-288l194 288h201l-231 -329l243 -386h-220zM235 -199l38 163l155 -6l-94 -182z" />
    <glyph glyph-name="uni0137" unicode="&#x137;" horiz-adv-x="542" 
d="M230 222v-222h-184v748h184v-428l127 203h189l-157 -236l166 -287h-202zM168 -199l38 163l155 -6l-94 -182z" />
    <glyph glyph-name="Lacute" unicode="&#x139;" horiz-adv-x="534" 
d="M137 901h180l-97 -144h-132zM61 715h196v-563h246v-152h-442v715z" />
    <glyph glyph-name="lacute" unicode="&#x13a;" horiz-adv-x="274" 
d="M114 939h180l-97 -144h-132zM50 748h183v-748h-183v748z" />
    <glyph glyph-name="uni013B" unicode="&#x13b;" horiz-adv-x="534" 
d="M61 715h196v-563h246v-152h-442v715zM167 -199l38 163l155 -6l-94 -182z" />
    <glyph glyph-name="uni013C" unicode="&#x13c;" horiz-adv-x="274" 
d="M50 748h183v-748h-183v748zM25 -199l38 163l155 -6l-94 -182z" />
    <glyph glyph-name="Lcaron" unicode="&#x13d;" horiz-adv-x="534" 
d="M330 716h130l-46 -179h-93zM61 715h196v-563h246v-152h-442v715z" />
    <glyph glyph-name="lcaron" unicode="&#x13e;" horiz-adv-x="273" 
d="M265 750h126l-45 -172h-89zM50 748h183v-748h-183v748z" />
    <glyph glyph-name="Ldot" unicode="&#x13f;" horiz-adv-x="558" 
d="M61 715h196v-563h246v-152h-442v715zM448 299q-42 0 -69.5 27t-27.5 68q0 19 7.5 36.5t20.5 30t30.5 20t38.5 7.5q43 0 71 -27.5t28 -66.5q0 -41 -28 -68t-71 -27z" />
    <glyph glyph-name="ldot" unicode="&#x140;" horiz-adv-x="437" 
d="M50 748h183v-748h-183v748zM354 267q-42 0 -69 27.5t-27 67.5t27 67.5t69 27.5q43 0 71 -27.5t28 -67.5t-28 -67.5t-71 -27.5z" />
    <glyph glyph-name="Lslash" unicode="&#x141;" horiz-adv-x="553" 
d="M518 0h-442v247l-55 -20v110l55 20v358h196v-287l170 61v-110l-170 -61v-166h246v-152z" />
    <glyph glyph-name="lslash" unicode="&#x142;" horiz-adv-x="311" 
d="M251 384v-384h-183v295l-54 -26v114l54 26v339h183v-250l50 24v-114z" />
    <glyph glyph-name="Nacute" unicode="&#x143;" horiz-adv-x="716" 
d="M349 901h180l-97 -144h-132zM62 715h218l201 -397v397h173v-715h-189l-230 449v-449h-173v715z" />
    <glyph glyph-name="nacute" unicode="&#x144;" horiz-adv-x="579" 
d="M274 744h175l-100 -166h-125zM46 523h184v-83q20 42 61 69t103 27q71 0 115 -46t44 -139v-351h-184v312q0 78 -64 78q-32 0 -53.5 -20t-21.5 -67v-303h-184v523z" />
    <glyph glyph-name="uni0145" unicode="&#x145;" horiz-adv-x="716" 
d="M62 715h218l201 -397v397h173v-715h-189l-230 449v-449h-173v715zM243 -199l38 163l155 -6l-94 -182z" />
    <glyph glyph-name="uni0146" unicode="&#x146;" horiz-adv-x="579" 
d="M46 523h184v-83q20 42 61 69t103 27q71 0 115 -46t44 -139v-351h-184v312q0 78 -64 78q-32 0 -53.5 -20t-21.5 -67v-303h-184v523zM177 -199l38 163l155 -6l-94 -182z" />
    <glyph glyph-name="Ncaron" unicode="&#x147;" horiz-adv-x="716" 
d="M194 902h124l57 -50l58 50h121l-109 -145h-146zM62 715h218l201 -397v397h173v-715h-189l-230 449v-449h-173v715z" />
    <glyph glyph-name="ncaron" unicode="&#x148;" horiz-adv-x="579" 
d="M114 743h119l58 -55l59 55h117l-115 -162h-128zM46 523h184v-83q20 42 61 69t103 27q71 0 115 -46t44 -139v-351h-184v312q0 78 -64 78q-32 0 -53.5 -20t-21.5 -67v-303h-184v523z" />
    <glyph glyph-name="napostrophe" unicode="&#x149;" horiz-adv-x="694" 
d="M-31 520q33 3 51 15t20 30q-39 2 -59.5 23t-20.5 55q0 37 26 58t62 21q42 0 68.5 -26.5t26.5 -74.5v-13q0 -72 -45 -111.5t-129 -40.5v64zM156 523h184v-83q20 42 61 69t103 27q71 0 115 -46t44 -139v-351h-184v312q0 78 -64 78q-32 0 -53.5 -20t-21.5 -67v-303h-184v523
z" />
    <glyph glyph-name="Eng" unicode="&#x14a;" horiz-adv-x="721" 
d="M437 -184q-45 0 -70.5 6t-45.5 16v136q16 -5 31 -9t40 -4q29 0 49.5 11.5t26.5 36.5l-232 440v-449h-174v715h220l202 -391v391h174v-693q0 -93 -53.5 -149.5t-167.5 -56.5z" />
    <glyph glyph-name="eng" unicode="&#x14b;" horiz-adv-x="583" 
d="M305 -56q31 3 45.5 16.5t14.5 46.5v312q0 41 -16 59.5t-49 18.5q-35 0 -57 -20.5t-22 -67.5v-309h-174v523h174v-82q20 40 59.5 67.5t101.5 27.5q70 0 113.5 -45t43.5 -138v-352q0 -42 -11.5 -76t-39 -57.5t-72.5 -36.5t-111 -13v126z" />
    <glyph glyph-name="Omacron" unicode="&#x14c;" horiz-adv-x="750" 
d="M218 874h311v-106h-311v106zM374 -12q-77 0 -140 23.5t-107 66t-68 103t-24 135.5v81q0 76 26.5 136.5t72 103t108 65.5t134.5 23q73 0 135.5 -21.5t108 -63t71 -101.5t25.5 -138v-80q0 -76 -24.5 -137.5t-69.5 -105t-108 -67t-140 -23.5zM376 143q64 0 101 45.5
t37 129.5v81q0 82 -37.5 127t-100.5 45t-101 -44t-38 -129v-81q0 -85 38 -129.5t101 -44.5z" />
    <glyph glyph-name="omacron" unicode="&#x14d;" horiz-adv-x="579" 
d="M139 703h297v-100h-297v100zM297 -12q-57 0 -107 16.5t-86.5 48.5t-58 79.5t-21.5 109.5v35q0 61 21.5 109.5t58.5 81.5t87 50.5t107 17.5t107 -17t86.5 -49.5t58 -79.5t21.5 -108v-36q0 -62 -21.5 -110t-59 -81t-87 -50t-106.5 -17zM298 123q42 0 64.5 30t22.5 89v41
q0 60 -22.5 89t-64.5 29q-41 0 -65 -28.5t-24 -87.5v-42q0 -60 23 -90t66 -30z" />
    <glyph glyph-name="Obreve" unicode="&#x14e;" horiz-adv-x="750" 
d="M373 750q-71 0 -113 39.5t-47 111.5h111q2 -21 14.5 -33t34.5 -12t35.5 12.5t15.5 32.5h111q-5 -72 -48.5 -111.5t-113.5 -39.5zM374 -12q-77 0 -140 23.5t-107 66t-68 103t-24 135.5v81q0 76 26.5 136.5t72 103t108 65.5t134.5 23q73 0 135.5 -21.5t108 -63t71 -101.5
t25.5 -138v-80q0 -76 -24.5 -137.5t-69.5 -105t-108 -67t-140 -23.5zM376 143q64 0 101 45.5t37 129.5v81q0 82 -37.5 127t-100.5 45t-101 -44t-38 -129v-81q0 -85 38 -129.5t101 -44.5z" />
    <glyph glyph-name="obreve" unicode="&#x14f;" horiz-adv-x="579" 
d="M287 580q-69 0 -111 40t-45 119h106q2 -23 14.5 -36.5t35.5 -13.5t36.5 13.5t15.5 36.5h106q-4 -79 -47.5 -119t-110.5 -40zM297 -12q-57 0 -107 16.5t-86.5 48.5t-58 79.5t-21.5 109.5v35q0 61 21.5 109.5t58.5 81.5t87 50.5t107 17.5t107 -17t86.5 -49.5t58 -79.5
t21.5 -108v-36q0 -62 -21.5 -110t-59 -81t-87 -50t-106.5 -17zM298 123q42 0 64.5 30t22.5 89v41q0 60 -22.5 89t-64.5 29q-41 0 -65 -28.5t-24 -87.5v-42q0 -60 23 -90t66 -30z" />
    <glyph glyph-name="Ohungarumlaut" unicode="&#x150;" horiz-adv-x="750" 
d="M248 901h149l-69 -144h-116zM435 901h149l-69 -144h-117zM374 -12q-77 0 -140 23.5t-107 66t-68 103t-24 135.5v81q0 76 26.5 136.5t72 103t108 65.5t134.5 23q73 0 135.5 -21.5t108 -63t71 -101.5t25.5 -138v-80q0 -76 -24.5 -137.5t-69.5 -105t-108 -67t-140 -23.5z
M376 143q64 0 101 45.5t37 129.5v81q0 82 -37.5 127t-100.5 45t-101 -44t-38 -129v-81q0 -85 38 -129.5t101 -44.5z" />
    <glyph glyph-name="ohungarumlaut" unicode="&#x151;" horiz-adv-x="579" 
d="M180 744h136l-70 -166h-105zM350 744h137l-71 -166h-103zM297 -12q-57 0 -107 16.5t-86.5 48.5t-58 79.5t-21.5 109.5v35q0 61 21.5 109.5t58.5 81.5t87 50.5t107 17.5t107 -17t86.5 -49.5t58 -79.5t21.5 -108v-36q0 -62 -21.5 -110t-59 -81t-87 -50t-106.5 -17zM298 123
q42 0 64.5 30t22.5 89v41q0 60 -22.5 89t-64.5 29q-41 0 -65 -28.5t-24 -87.5v-42q0 -60 23 -90t66 -30z" />
    <glyph glyph-name="OE" unicode="&#x152;" horiz-adv-x="903" 
d="M380 0q-171 0 -260.5 80.5t-89.5 240.5v65q0 159 89.5 244t260.5 85h478v-151h-250v-130h197v-139h-197v-144h264v-151h-492zM415 150v414h-29q-82 0 -117.5 -43t-35.5 -134v-62q0 -92 36 -133.5t119 -41.5h27z" />
    <glyph glyph-name="oe" unicode="&#x153;" horiz-adv-x="913" 
d="M889 171q-11 -90 -72.5 -136t-170.5 -46q-118 0 -181 72q-32 -35 -77 -53.5t-101 -18.5q-55 0 -102.5 16.5t-83 48.5t-55.5 78t-20 106v42q0 60 20.5 107.5t55.5 80.5t83 50.5t104 17.5q116 0 179 -74q32 36 77.5 55t99.5 19q50 0 94 -14.5t77 -44.5t52.5 -77t19.5 -112
v-66h-336q3 -63 29 -88.5t66 -25.5q37 0 56 17t25 46h161zM642 421q-33 0 -58 -22t-31 -80h169q-1 54 -22 78t-58 24zM292 116q43 0 66.5 30.5t23.5 90.5v51q0 60 -23.5 90t-66.5 30q-42 0 -67 -29.5t-25 -89.5v-51q0 -60 23.5 -91t68.5 -31z" />
    <glyph glyph-name="Racute" unicode="&#x154;" horiz-adv-x="647" 
d="M290 901h180l-97 -144h-132zM62 715h282q276 0 276 -218v-18q0 -37 -8.5 -65t-23.5 -49t-36 -36.5t-46 -25.5l150 -303h-204l-127 266h-69v-266h-194v715zM334 392q48 0 72.5 19t24.5 63v16q0 42 -24 59.5t-72 17.5h-79v-175h78z" />
    <glyph glyph-name="racute" unicode="&#x155;" horiz-adv-x="400" 
d="M203 744h175l-100 -166h-125zM46 523h184v-104q23 60 64.5 86t102.5 24v-176q-167 7 -167 -103v-250h-184v523z" />
    <glyph glyph-name="uni0156" unicode="&#x156;" horiz-adv-x="647" 
d="M62 715h282q276 0 276 -218v-18q0 -37 -8.5 -65t-23.5 -49t-36 -36.5t-46 -25.5l150 -303h-204l-127 266h-69v-266h-194v715zM334 392q48 0 72.5 19t24.5 63v16q0 42 -24 59.5t-72 17.5h-79v-175h78zM227 -199l38 163l155 -6l-94 -182z" />
    <glyph glyph-name="uni0157" unicode="&#x157;" horiz-adv-x="400" 
d="M46 523h184v-104q23 60 64.5 86t102.5 24v-176q-167 7 -167 -103v-250h-184v523zM24 -199l38 163l155 -6l-94 -182z" />
    <glyph glyph-name="Rcaron" unicode="&#x158;" horiz-adv-x="647" 
d="M134 902h124l57 -50l58 50h121l-109 -145h-146zM62 715h282q276 0 276 -218v-18q0 -37 -8.5 -65t-23.5 -49t-36 -36.5t-46 -25.5l150 -303h-204l-127 266h-69v-266h-194v715zM334 392q48 0 72.5 19t24.5 63v16q0 42 -24 59.5t-72 17.5h-79v-175h78z" />
    <glyph glyph-name="rcaron" unicode="&#x159;" horiz-adv-x="400" 
d="M44 743h119l58 -55l59 55h117l-115 -162h-128zM46 523h184v-104q23 60 64.5 86t102.5 24v-176q-167 7 -167 -103v-250h-184v523z" />
    <glyph glyph-name="Sacute" unicode="&#x15a;" horiz-adv-x="610" 
d="M273 901h180l-97 -144h-132zM580 219q0 -50 -17.5 -92t-52 -73t-85 -48.5t-116.5 -17.5q-134 0 -206.5 57t-77.5 176h187q4 -45 25 -68t72 -23q40 0 60.5 19t20.5 50q0 38 -26 53t-89 26q-63 13 -107 31.5t-72.5 45.5t-41.5 64.5t-13 88.5q0 49 18 89t51.5 68.5t81.5 44
t109 15.5q121 0 187.5 -52.5t74.5 -163.5h-182q-5 40 -25 57.5t-56 17.5q-73 0 -73 -62q0 -16 5 -27.5t17 -20t32.5 -15t51.5 -12.5q56 -11 101.5 -26t78 -40.5t50 -64.5t17.5 -97z" />
    <glyph glyph-name="sacute" unicode="&#x15b;" horiz-adv-x="493" 
d="M224 744h175l-100 -166h-125zM485 168q0 -47 -16.5 -80.5t-46.5 -56t-73 -33t-96 -10.5q-110 0 -170.5 45.5t-63.5 134.5h169q5 -29 18.5 -45t45.5 -16q27 0 40.5 11.5t13.5 29.5q0 24 -23 33t-74 17q-48 8 -82.5 20t-57 31t-33.5 47t-11 69q0 42 17 74t47 53.5t70 32.5
t87 11q99 0 158.5 -38t67.5 -131h-166q-5 26 -19 39t-40 13t-39 -11t-13 -28q0 -22 20.5 -30.5t66.5 -15.5q51 -9 89 -20.5t63.5 -30.5t38 -47t12.5 -68z" />
    <glyph glyph-name="Scircumflex" unicode="&#x15c;" horiz-adv-x="610" 
d="M228 902h146l105 -145h-124l-57 49l-58 -49h-121zM580 219q0 -50 -17.5 -92t-52 -73t-85 -48.5t-116.5 -17.5q-134 0 -206.5 57t-77.5 176h187q4 -45 25 -68t72 -23q40 0 60.5 19t20.5 50q0 38 -26 53t-89 26q-63 13 -107 31.5t-72.5 45.5t-41.5 64.5t-13 88.5
q0 49 18 89t51.5 68.5t81.5 44t109 15.5q121 0 187.5 -52.5t74.5 -163.5h-182q-5 40 -25 57.5t-56 17.5q-73 0 -73 -62q0 -16 5 -27.5t17 -20t32.5 -15t51.5 -12.5q56 -11 101.5 -26t78 -40.5t50 -64.5t17.5 -97z" />
    <glyph glyph-name="scircumflex" unicode="&#x15d;" horiz-adv-x="493" 
d="M178 742h128l110 -163h-120l-57 56l-59 -56h-117zM485 168q0 -47 -16.5 -80.5t-46.5 -56t-73 -33t-96 -10.5q-110 0 -170.5 45.5t-63.5 134.5h169q5 -29 18.5 -45t45.5 -16q27 0 40.5 11.5t13.5 29.5q0 24 -23 33t-74 17q-48 8 -82.5 20t-57 31t-33.5 47t-11 69
q0 42 17 74t47 53.5t70 32.5t87 11q99 0 158.5 -38t67.5 -131h-166q-5 26 -19 39t-40 13t-39 -11t-13 -28q0 -22 20.5 -30.5t66.5 -15.5q51 -9 89 -20.5t63.5 -30.5t38 -47t12.5 -68z" />
    <glyph glyph-name="uni015E" unicode="&#x15e;" horiz-adv-x="610" 
d="M408 -130q0 -45 -32 -70t-86 -25t-87 23.5t-39 68.5h84q2 -11 9.5 -19t24.5 -8q16 0 24 8.5t8 21.5q0 14 -8.5 23t-24.5 9q-12 0 -20 -3.5t-13 -8.5l-37 37l41 64q-107 11 -165 67.5t-62 162.5h187q4 -45 25 -68t72 -23q40 0 60.5 19t20.5 50q0 38 -26 53t-89 26
q-63 13 -107 31.5t-72.5 45.5t-41.5 64.5t-13 88.5q0 49 18 89t51.5 68.5t81.5 44t109 15.5q121 0 187.5 -52.5t74.5 -163.5h-182q-5 40 -25 57.5t-56 17.5q-73 0 -73 -62q0 -16 5 -27.5t17 -20t32.5 -15t51.5 -12.5q56 -11 101.5 -26t78 -40.5t50 -64.5t17.5 -97
q0 -48 -17 -90t-50 -72.5t-81.5 -49t-111.5 -19.5l-21 -32q21 3 41 -1t35 -15t24 -28.5t9 -41.5z" />
    <glyph glyph-name="uni015F" unicode="&#x15f;" horiz-adv-x="493" 
d="M350 -130q0 -45 -32 -70t-86 -25t-87 23.5t-39 68.5h84q2 -11 9.5 -19t24.5 -8q16 0 24 8.5t8 21.5q0 14 -8.5 23t-24.5 9q-12 0 -20 -3.5t-13 -8.5l-37 37l42 65q-83 11 -128.5 55.5t-47.5 120.5h169q5 -29 18.5 -45t45.5 -16q27 0 40.5 11.5t13.5 29.5q0 24 -23 33
t-74 17q-48 8 -82.5 20t-57 31t-33.5 47t-11 69q0 42 17 74t47 53.5t70 32.5t87 11q99 0 158.5 -38t67.5 -131h-166q-5 26 -19 39t-40 13t-39 -11t-13 -28q0 -22 20.5 -30.5t66.5 -15.5q51 -9 89 -20.5t63.5 -30.5t38 -47t12.5 -68q0 -91 -60 -134.5t-163 -45.5l-21 -32
q21 3 41 -1t35 -15t24 -28.5t9 -41.5z" />
    <glyph glyph-name="Scaron" unicode="&#x160;" horiz-adv-x="610" 
d="M118 902h124l57 -50l58 50h121l-109 -145h-146zM580 219q0 -50 -17.5 -92t-52 -73t-85 -48.5t-116.5 -17.5q-134 0 -206.5 57t-77.5 176h187q4 -45 25 -68t72 -23q40 0 60.5 19t20.5 50q0 38 -26 53t-89 26q-63 13 -107 31.5t-72.5 45.5t-41.5 64.5t-13 88.5q0 49 18 89
t51.5 68.5t81.5 44t109 15.5q121 0 187.5 -52.5t74.5 -163.5h-182q-5 40 -25 57.5t-56 17.5q-73 0 -73 -62q0 -16 5 -27.5t17 -20t32.5 -15t51.5 -12.5q56 -11 101.5 -26t78 -40.5t50 -64.5t17.5 -97z" />
    <glyph glyph-name="scaron" unicode="&#x161;" horiz-adv-x="493" 
d="M60 743h119l58 -55l59 55h117l-115 -162h-128zM485 168q0 -47 -16.5 -80.5t-46.5 -56t-73 -33t-96 -10.5q-110 0 -170.5 45.5t-63.5 134.5h169q5 -29 18.5 -45t45.5 -16q27 0 40.5 11.5t13.5 29.5q0 24 -23 33t-74 17q-48 8 -82.5 20t-57 31t-33.5 47t-11 69q0 42 17 74
t47 53.5t70 32.5t87 11q99 0 158.5 -38t67.5 -131h-166q-5 26 -19 39t-40 13t-39 -11t-13 -28q0 -22 20.5 -30.5t66.5 -15.5q51 -9 89 -20.5t63.5 -30.5t38 -47t12.5 -68z" />
    <glyph glyph-name="Tcommaaccent" unicode="&#x162;" horiz-adv-x="579" 
d="M191 564h-170v151h537v-151h-171v-564h-196v564zM176 -199l38 163l155 -6l-94 -182z" />
    <glyph glyph-name="tcommaaccent" unicode="&#x163;" horiz-adv-x="370" 
d="M261 630v-107h118v-124h-118v-213q0 -52 62 -52q19 0 34 1.5t27 6.5v-138q-17 -5 -45.5 -9.5t-63.5 -4.5q-99 0 -149 42t-50 136v231h-63v124h63v107h185zM90 -199l38 163l155 -6l-94 -182z" />
    <glyph glyph-name="Tcaron" unicode="&#x164;" horiz-adv-x="579" 
d="M107 902h124l57 -50l58 50h121l-109 -145h-146zM191 564h-170v151h537v-151h-171v-564h-196v564z" />
    <glyph glyph-name="tcaron" unicode="&#x165;" horiz-adv-x="370" 
d="M295 750h126l-45 -172h-89zM261 630v-107h118v-124h-118v-213q0 -52 62 -52q19 0 34 1.5t27 6.5v-138q-17 -5 -45.5 -9.5t-63.5 -4.5q-99 0 -149 42t-50 136v231h-63v124h63v107h185z" />
    <glyph glyph-name="Tbar" unicode="&#x166;" horiz-adv-x="579" 
d="M387 292v-292h-196v292h-114v126h114v146h-170v151h537v-151h-171v-146h119v-126h-119z" />
    <glyph glyph-name="tbar" unicode="&#x167;" horiz-adv-x="370" 
d="M384 4q-17 -5 -45.5 -9.5t-63.5 -4.5q-99 0 -149 42t-50 136v87h-62v81h62v63h-63v124h63v107h185v-107h118v-124h-118v-63h82v-81h-82v-69q0 -52 62 -52q19 0 34 1.5t27 6.5v-138v0z" />
    <glyph glyph-name="Utilde" unicode="&#x168;" horiz-adv-x="706" 
d="M414 756q-21 0 -38 5.5t-31.5 11.5t-26.5 11.5t-23 5.5q-12 0 -20 -9.5t-11 -23.5h-97q5 79 38.5 115.5t78.5 36.5q20 0 36.5 -5t31.5 -11.5t28 -11.5t25 -5q24 0 30 33h97q-3 -41 -13.5 -69.5t-26.5 -47.5t-36 -27.5t-42 -8.5zM648 715v-446q0 -143 -78.5 -212
t-217.5 -69q-142 0 -218.5 69.5t-76.5 209.5v448h195v-441q0 -66 21.5 -98.5t79.5 -32.5q57 0 78 32.5t21 100.5v439h196z" />
    <glyph glyph-name="utilde" unicode="&#x169;" horiz-adv-x="579" 
d="M351 579q-21 0 -37 5t-29.5 11.5t-25 11.5t-22.5 5t-19.5 -9t-10.5 -24h-93q5 81 35 118t75 37q19 0 35.5 -5t30.5 -11.5t26 -11.5t24 -5q25 0 31 33h92q-5 -81 -37 -118t-75 -37zM550 0h-184v80q-20 -42 -58 -67.5t-101 -25.5q-72 0 -118.5 46t-46.5 139v351h184v-320
q0 -77 63 -77q35 0 56 20t21 66v311h184v-523z" />
    <glyph glyph-name="Umacron" unicode="&#x16a;" horiz-adv-x="706" 
d="M194 874h311v-106h-311v106zM648 715v-446q0 -143 -78.5 -212t-217.5 -69q-142 0 -218.5 69.5t-76.5 209.5v448h195v-441q0 -66 21.5 -98.5t79.5 -32.5q57 0 78 32.5t21 100.5v439h196z" />
    <glyph glyph-name="umacron" unicode="&#x16b;" horiz-adv-x="579" 
d="M139 703h297v-100h-297v100zM550 0h-184v80q-20 -42 -58 -67.5t-101 -25.5q-72 0 -118.5 46t-46.5 139v351h184v-320q0 -77 63 -77q35 0 56 20t21 66v311h184v-523z" />
    <glyph glyph-name="Ubreve" unicode="&#x16c;" horiz-adv-x="706" 
d="M349 750q-71 0 -113 39.5t-47 111.5h111q2 -21 14.5 -33t34.5 -12t35.5 12.5t15.5 32.5h111q-5 -72 -48.5 -111.5t-113.5 -39.5zM648 715v-446q0 -143 -78.5 -212t-217.5 -69q-142 0 -218.5 69.5t-76.5 209.5v448h195v-441q0 -66 21.5 -98.5t79.5 -32.5q57 0 78 32.5
t21 100.5v439h196z" />
    <glyph glyph-name="ubreve" unicode="&#x16d;" horiz-adv-x="579" 
d="M287 580q-69 0 -111 40t-45 119h106q2 -23 14.5 -36.5t35.5 -13.5t36.5 13.5t15.5 36.5h106q-4 -79 -47.5 -119t-110.5 -40zM550 0h-184v80q-20 -42 -58 -67.5t-101 -25.5q-72 0 -118.5 46t-46.5 139v351h184v-320q0 -77 63 -77q35 0 56 20t21 66v311h184v-523z" />
    <glyph glyph-name="Uring" unicode="&#x16e;" horiz-adv-x="706" 
d="M350 725q-24 0 -45.5 9t-37.5 24.5t-25 36t-9 43.5t9 43.5t25 36t37.5 24.5t45.5 9t45.5 -9t37.5 -24.5t25 -36t9 -43.5t-9 -43.5t-25 -36t-37.5 -24.5t-45.5 -9zM350 788q20 0 33 14t13 36t-13 35.5t-33 13.5t-32.5 -13.5t-12.5 -35.5t12.5 -36t32.5 -14zM648 715v-446
q0 -143 -78.5 -212t-217.5 -69q-142 0 -218.5 69.5t-76.5 209.5v448h195v-441q0 -66 21.5 -98.5t79.5 -32.5q57 0 78 32.5t21 100.5v439h196z" />
    <glyph glyph-name="uring" unicode="&#x16f;" horiz-adv-x="579" 
d="M287 557q-24 0 -45.5 9t-37 24t-24.5 35.5t-9 43.5t9 43.5t24.5 36t37 24.5t45.5 9t45.5 -9t37 -24.5t24.5 -36t9 -43.5t-9 -43.5t-24.5 -35.5t-37 -24t-45.5 -9zM287 621q20 0 32.5 13.5t12.5 34.5q0 22 -12.5 35.5t-32.5 13.5t-32.5 -13.5t-12.5 -35.5
q0 -21 12.5 -34.5t32.5 -13.5zM550 0h-184v80q-20 -42 -58 -67.5t-101 -25.5q-72 0 -118.5 46t-46.5 139v351h184v-320q0 -77 63 -77q35 0 56 20t21 66v311h184v-523z" />
    <glyph glyph-name="Uhungarumlaut" unicode="&#x170;" horiz-adv-x="706" 
d="M225 901h149l-69 -144h-116zM412 901h149l-69 -144h-117zM648 715v-446q0 -143 -78.5 -212t-217.5 -69q-142 0 -218.5 69.5t-76.5 209.5v448h195v-441q0 -66 21.5 -98.5t79.5 -32.5q57 0 78 32.5t21 100.5v439h196z" />
    <glyph glyph-name="uhungarumlaut" unicode="&#x171;" horiz-adv-x="579" 
d="M179 744h136l-70 -166h-105zM349 744h137l-71 -166h-103zM550 0h-184v80q-20 -42 -58 -67.5t-101 -25.5q-72 0 -118.5 46t-46.5 139v351h184v-320q0 -77 63 -77q35 0 56 20t21 66v311h184v-523z" />
    <glyph glyph-name="Uogonek" unicode="&#x172;" horiz-adv-x="706" 
d="M1 20h704v-20h-704v20z" />
    <glyph glyph-name="uogonek" unicode="&#x173;" horiz-adv-x="579" 
d="M339 -103q0 38 26 63t57 40h-56v80q-20 -42 -58 -67.5t-101 -25.5q-72 0 -118.5 46t-46.5 139v351h184v-320q0 -77 63 -77q35 0 56 20t21 66v311h184v-523h-29q-20 -17 -30.5 -31t-10.5 -30q0 -28 31 -28q15 0 27 4v-81q-13 -6 -35 -11t-51 -5q-48 0 -80.5 20.5
t-32.5 58.5z" />
    <glyph glyph-name="Wcircumflex" unicode="&#x174;" horiz-adv-x="920" 
d="M392 902h146l105 -145h-124l-57 49l-58 -49h-121zM13 715h196l82 -441l94 441h155l102 -445l85 445h180l-156 -715h-186l-99 421l-101 -421h-198z" />
    <glyph glyph-name="wcircumflex" unicode="&#x175;" horiz-adv-x="792" 
d="M334 742h128l110 -163h-120l-57 56l-59 -56h-117zM7 523h190l66 -292l78 292h150l70 -292l75 292h171l-155 -523h-175l-72 280l-73 -280h-178z" />
    <glyph glyph-name="Ycircumflex" unicode="&#x176;" horiz-adv-x="628" 
d="M251 902h146l105 -145h-124l-57 49l-58 -49h-121zM221 304l-214 411h211l110 -237l109 237h184l-204 -410v-305h-196v304z" />
    <glyph glyph-name="ycircumflex" unicode="&#x177;" horiz-adv-x="551" 
d="M220 742h128l110 -163h-120l-57 56l-59 -56h-117zM299 255l89 268h174l-261 -697h-177l79 220l-197 477h198z" />
    <glyph glyph-name="Ydieresis" unicode="&#x178;" horiz-adv-x="628" 
d="M215 754q-35 0 -59.5 23.5t-24.5 58.5q0 34 24.5 57.5t59.5 23.5t60 -23.5t25 -57.5q0 -35 -25 -58.5t-60 -23.5zM428 754q-35 0 -59 23.5t-24 58.5q0 34 24 57.5t59 23.5q36 0 60.5 -23.5t24.5 -57.5q0 -35 -24.5 -58.5t-60.5 -23.5zM221 304l-214 411h211l110 -237
l109 237h184l-204 -410v-305h-196v304z" />
    <glyph glyph-name="Zacute" unicode="&#x179;" horiz-adv-x="573" 
d="M266 901h180l-97 -144h-132zM541 0h-529v88l307 482h-277v145h509v-85l-308 -482h298v-148z" />
    <glyph glyph-name="zacute" unicode="&#x17a;" horiz-adv-x="474" 
d="M227 744h175l-100 -166h-125zM462 0h-452v80l233 304h-214v139h441v-78l-241 -307h233v-138z" />
    <glyph glyph-name="Zdotaccent" unicode="&#x17b;" horiz-adv-x="573" 
d="M292 754q-40 0 -66.5 24.5t-26.5 62.5q0 37 26.5 62t66.5 25q39 0 65.5 -25t26.5 -62q0 -38 -26.5 -62.5t-65.5 -24.5zM541 0h-529v88l307 482h-277v145h509v-85l-308 -482h298v-148z" />
    <glyph glyph-name="zdotaccent" unicode="&#x17c;" horiz-adv-x="474" 
d="M245 573q-40 0 -67 24.5t-27 62.5t27 63t67 25q39 0 66 -25t27 -63t-27 -62.5t-66 -24.5zM462 0h-452v80l233 304h-214v139h441v-78l-241 -307h233v-138z" />
    <glyph glyph-name="Zcaron" unicode="&#x17d;" horiz-adv-x="573" 
d="M111 902h124l57 -50l58 50h121l-109 -145h-146zM541 0h-529v88l307 482h-277v145h509v-85l-308 -482h298v-148z" />
    <glyph glyph-name="zcaron" unicode="&#x17e;" horiz-adv-x="474" 
d="M68 743h119l58 -55l59 55h117l-115 -162h-128zM462 0h-452v80l233 304h-214v139h441v-78l-241 -307h233v-138z" />
    <glyph glyph-name="uni0192" unicode="&#x192;" horiz-adv-x="426" 
d="M265 299l-63 -472h-174l62 472h-68v119h83l16 119q13 101 69.5 143.5t147.5 42.5q43 0 73 -9v-132q-9 3 -21 5t-26 2q-59 0 -69 -65l-14 -106h107v-119h-123z" />
    <glyph glyph-name="Aringacute" unicode="&#x1fa;" horiz-adv-x="683" 
d="M322 1126h180l-97 -144h-132zM342 739q-24 0 -45.5 9t-37.5 24.5t-25 36t-9 43.5t9 43.5t25 36t37.5 24.5t45.5 9t45.5 -9t37.5 -24.5t25 -36t9 -43.5t-9 -43.5t-25 -36t-37.5 -24.5t-45.5 -9zM342 802q20 0 33 14t13 36t-13 35.5t-33 13.5t-32.5 -13.5t-12.5 -35.5
t12.5 -36t32.5 -14zM433 136h-207l-34 -136h-180l199 715h261l199 -715h-204zM259 270h141l-71 283z" />
    <glyph glyph-name="aringacute" unicode="&#x1fb;" horiz-adv-x="544" 
d="M256 963h180l-97 -144h-132zM273 568q-24 0 -45.5 9t-37 24t-24.5 35.5t-9 43.5t9 43.5t24.5 36t37 24.5t45.5 9t45.5 -9t37 -24.5t24.5 -36t9 -43.5t-9 -43.5t-24.5 -35.5t-37 -24t-45.5 -9zM273 632q20 0 32.5 13.5t12.5 34.5q0 22 -12.5 35.5t-32.5 13.5t-32.5 -13.5
t-12.5 -35.5q0 -21 12.5 -34.5t32.5 -13.5zM339 60q-8 -13 -20 -25.5t-30 -23t-42.5 -17t-55.5 -6.5q-33 0 -63.5 8.5t-53 27.5t-36 48t-13.5 70v7q0 91 66 128t190 37h53v18q0 34 -11 55t-48 21q-30 0 -43.5 -16.5t-17.5 -40.5h-172q6 93 71 139t172 46q112 0 171.5 -47.5
t59.5 -146.5v-342h-177v60zM260 111q31 0 52.5 16.5t21.5 45.5v40h-47q-43 0 -62 -11t-19 -40v-6q0 -45 54 -45z" />
    <glyph glyph-name="AEacute" unicode="&#x1fc;" horiz-adv-x="918" 
d="M532 901h180l-97 -144h-132zM422 147h-174l-54 -147h-183l274 715h588v-151h-257v-130h203v-139h-203v-144h271v-151h-465v147zM296 278h126v286h-21z" />
    <glyph glyph-name="aeacute" unicode="&#x1fd;" horiz-adv-x="853" 
d="M420 744h175l-100 -166h-125zM769 168q-7 -88 -64.5 -133.5t-160.5 -45.5q-126 0 -180 77q-23 -34 -61.5 -55.5t-101.5 -21.5q-81 0 -129.5 37t-48.5 115v14q0 88 60.5 125t172.5 37h47v30q0 33 -10 51t-42 18q-29 0 -40.5 -15.5t-13.5 -42.5h-158q4 89 62 133t155 44
q102 0 141 -51q56 51 144 51q47 0 88.5 -13t72 -41t48.5 -72t18 -105v-81h-302v-7q0 -60 20 -84.5t57 -24.5q35 0 50.5 15.5t18.5 45.5h157zM539 423q-30 0 -50.5 -22.5t-22.5 -83.5h140v16q0 48 -16 69t-51 21zM238 102q30 0 47.5 16t17.5 47v58h-40q-38 0 -56 -11.5
t-18 -43.5v-16q0 -50 49 -50z" />
    <glyph glyph-name="Oslashacute" unicode="&#x1fe;" horiz-adv-x="749" 
d="M348 901h180l-97 -144h-132zM367 -12q-66 0 -120 16.5t-96 47.5l-70 -83l-50 44l72 85q-72 84 -72 217v85q0 74 26 134t71 102.5t107 65.5t134 23q126 0 213 -61l62 74l49 -44l-62 -73q37 -41 57 -95t20 -123v-85q0 -75 -24 -136t-68.5 -104t-107.5 -66.5t-141 -23.5z
M231 316q0 -33 6 -60l232 275q-36 42 -100 42q-65 0 -101.5 -44.5t-36.5 -128.5v-84zM508 402q0 37 -7 64l-234 -277q36 -47 104 -47q64 0 100.5 45.5t36.5 129.5v85z" />
    <glyph glyph-name="oslashacute" unicode="&#x1ff;" horiz-adv-x="577" 
d="M271 744h175l-100 -166h-125zM289 -11q-94 0 -161 44l-59 -67l-46 38l59 68q-27 31 -42.5 72.5t-15.5 92.5v45q0 60 20.5 107t56.5 79.5t84.5 50t104.5 17.5q93 0 160 -44l56 64l46 -37l-57 -65q28 -32 43.5 -74t15.5 -94v-44q0 -60 -20.5 -107t-56 -79.5t-84 -49.5
t-104.5 -17zM195 236q0 -9 0.5 -17t1.5 -16l158 180q-23 26 -65 26q-44 0 -69.5 -29.5t-25.5 -88.5v-55zM383 290q0 9 -0.5 17t-1.5 16l-158 -181q24 -27 67 -27q45 0 69 31t24 91v53z" />
    <glyph glyph-name="uni0218" unicode="&#x218;" horiz-adv-x="610" 
d="M580 219q0 -50 -17.5 -92t-52 -73t-85 -48.5t-116.5 -17.5q-134 0 -206.5 57t-77.5 176h187q4 -45 25 -68t72 -23q40 0 60.5 19t20.5 50q0 38 -26 53t-89 26q-63 13 -107 31.5t-72.5 45.5t-41.5 64.5t-13 88.5q0 49 18 89t51.5 68.5t81.5 44t109 15.5q121 0 187.5 -52.5
t74.5 -163.5h-182q-5 40 -25 57.5t-56 17.5q-73 0 -73 -62q0 -16 5 -27.5t17 -20t32.5 -15t51.5 -12.5q56 -11 101.5 -26t78 -40.5t50 -64.5t17.5 -97zM185 -199l38 163l155 -6l-94 -182z" />
    <glyph glyph-name="uni0219" unicode="&#x219;" horiz-adv-x="492" 
d="M484 168q0 -47 -16.5 -80.5t-46.5 -56t-73 -33t-96 -10.5q-110 0 -170.5 45.5t-63.5 134.5h169q5 -29 18.5 -45t45.5 -16q27 0 40.5 11.5t13.5 29.5q0 24 -23 33t-74 17q-48 8 -82.5 20t-57 31t-33.5 47t-11 69q0 42 17 74t47 53.5t70 32.5t87 11q99 0 158.5 -38
t67.5 -131h-166q-5 26 -19 39t-40 13t-39 -11t-13 -28q0 -22 20.5 -30.5t66.5 -15.5q51 -9 89 -20.5t63.5 -30.5t38 -47t12.5 -68zM126 -199l38 163l155 -6l-94 -182z" />
    <glyph glyph-name="uni021A" unicode="&#x21a;" horiz-adv-x="579" 
d="M191 564h-170v151h537v-151h-171v-564h-196v564zM176 -199l38 163l155 -6l-94 -182z" />
    <glyph glyph-name="uni021B" unicode="&#x21b;" horiz-adv-x="370" 
d="M261 630v-107h118v-124h-118v-213q0 -52 62 -52q19 0 34 1.5t27 6.5v-138q-17 -5 -45.5 -9.5t-63.5 -4.5q-99 0 -149 42t-50 136v231h-63v124h63v107h185zM90 -199l38 163l155 -6l-94 -182z" />
    <glyph glyph-name="uni0237" unicode="&#x237;" horiz-adv-x="273" 
d="M-13 -56q32 2 48 16t16 45v518h171v-523q0 -42 -11.5 -75.5t-38.5 -57t-72.5 -36.5t-112.5 -13v126z" />
    <glyph glyph-name="circumflex" unicode="&#x2c6;" horiz-adv-x="402" 
d="M139 742h128l110 -163h-120l-57 56l-59 -56h-117z" />
    <glyph glyph-name="caron" unicode="&#x2c7;" horiz-adv-x="402" 
d="M24 743h119l58 -55l59 55h117l-115 -162h-128z" />
    <glyph glyph-name="breve" unicode="&#x2d8;" horiz-adv-x="402" 
d="M200 580q-69 0 -111 40t-45 119h106q2 -23 14.5 -36.5t35.5 -13.5t36.5 13.5t15.5 36.5h106q-4 -79 -47.5 -119t-110.5 -40z" />
    <glyph glyph-name="dotaccent" unicode="&#x2d9;" horiz-adv-x="402" 
d="M201 573q-40 0 -67 24.5t-27 62.5t27 63t67 25q39 0 66 -25t27 -63t-27 -62.5t-66 -24.5z" />
    <glyph glyph-name="ring" unicode="&#x2da;" horiz-adv-x="402" 
d="M201 573q-24 0 -45.5 9t-37 24t-24.5 35.5t-9 43.5t9 43.5t24.5 36t37 24.5t45.5 9t45.5 -9t37 -24.5t24.5 -36t9 -43.5t-9 -43.5t-24.5 -35.5t-37 -24t-45.5 -9zM201 637q20 0 32.5 13.5t12.5 34.5q0 22 -12.5 35.5t-32.5 13.5t-32.5 -13.5t-12.5 -35.5
q0 -21 12.5 -34.5t32.5 -13.5z" />
    <glyph glyph-name="ogonek" unicode="&#x2db;" horiz-adv-x="402" 
d="M196 -182q-48 0 -80.5 20.5t-32.5 58.5t26 63t57 40h99q-20 -17 -30.5 -31t-10.5 -30q0 -28 31 -28q15 0 27 4v-81q-13 -6 -35 -11t-51 -5z" />
    <glyph glyph-name="tilde" unicode="&#x2dc;" horiz-adv-x="402" 
d="M264 579q-21 0 -37 5t-29.5 11.5t-25 11.5t-22.5 5t-19.5 -9t-10.5 -24h-93q5 81 35 118t75 37q19 0 35.5 -5t30.5 -11.5t26 -11.5t24 -5q25 0 31 33h92q-5 -81 -37 -118t-75 -37z" />
    <glyph glyph-name="hungarumlaut" unicode="&#x2dd;" horiz-adv-x="402" 
d="M97 744h136l-70 -166h-105zM267 744h137l-71 -166h-103z" />
    <glyph glyph-name="Wgrave" unicode="&#x1e80;" horiz-adv-x="920" 
d="M310 901h181l46 -144h-132zM13 715h196l82 -441l94 441h155l102 -445l85 445h180l-156 -715h-186l-99 421l-101 -421h-198z" />
    <glyph glyph-name="wgrave" unicode="&#x1e81;" horiz-adv-x="792" 
d="M244 744h176l50 -166h-126zM7 523h190l66 -292l78 292h150l70 -292l75 292h171l-155 -523h-175l-72 280l-73 -280h-178z" />
    <glyph glyph-name="Wacute" unicode="&#x1e82;" horiz-adv-x="920" 
d="M442 901h180l-97 -144h-132zM13 715h196l82 -441l94 441h155l102 -445l85 445h180l-156 -715h-186l-99 421l-101 -421h-198z" />
    <glyph glyph-name="wacute" unicode="&#x1e83;" horiz-adv-x="792" 
d="M389 744h175l-100 -166h-125zM7 523h190l66 -292l78 292h150l70 -292l75 292h171l-155 -523h-175l-72 280l-73 -280h-178z" />
    <glyph glyph-name="Wdieresis" unicode="&#x1e84;" horiz-adv-x="920" 
d="M357 754q-35 0 -59.5 23.5t-24.5 58.5q0 34 24.5 57.5t59.5 23.5t60 -23.5t25 -57.5q0 -35 -25 -58.5t-60 -23.5zM570 754q-35 0 -59 23.5t-24 58.5q0 34 24 57.5t59 23.5q36 0 60.5 -23.5t24.5 -57.5q0 -35 -24.5 -58.5t-60.5 -23.5zM13 715h196l82 -441l94 441h155
l102 -445l85 445h180l-156 -715h-186l-99 421l-101 -421h-198z" />
    <glyph glyph-name="wdieresis" unicode="&#x1e85;" horiz-adv-x="792" 
d="M299 573q-36 0 -60.5 24t-24.5 59t24.5 59t60.5 24q18 0 33.5 -6.5t27 -18t18 -26.5t6.5 -32t-6.5 -32.5t-18 -26.5t-27 -17.5t-33.5 -6.5zM505 573q-18 0 -33 6.5t-26.5 17.5t-18 26.5t-6.5 32.5t6.5 32t18 26.5t26.5 18t33 6.5q36 0 61 -24t25 -59t-25 -59t-61 -24z
M7 523h190l66 -292l78 292h150l70 -292l75 292h171l-155 -523h-175l-72 280l-73 -280h-178z" />
    <glyph glyph-name="Ygrave" unicode="&#x1ef2;" horiz-adv-x="628" 
d="M170 901h181l46 -144h-132zM221 304l-214 411h211l110 -237l109 237h184l-204 -410v-305h-196v304z" />
    <glyph glyph-name="ygrave" unicode="&#x1ef3;" horiz-adv-x="551" 
d="M127 744h176l50 -166h-126zM299 255l89 268h174l-261 -697h-177l79 220l-197 477h198z" />
    <glyph glyph-name="uni2009" unicode="&#x2009;" horiz-adv-x="90" 
 />
    <glyph glyph-name="endash" unicode="&#x2013;" horiz-adv-x="549" 
d="M46 342h457v-102h-457v102z" />
    <glyph glyph-name="emdash" unicode="&#x2014;" horiz-adv-x="962" 
d="M46 342h871v-102h-871v102z" />
    <glyph glyph-name="quoteleft" unicode="&#x2018;" horiz-adv-x="244" 
d="M206 654q-69 -6 -71 -44q38 -2 58.5 -23t20.5 -55q0 -37 -26 -58t-62 -21q-42 0 -68 26.5t-26 74.5v13q0 72 44.5 111t129.5 41v-65z" />
    <glyph glyph-name="quoteright" unicode="&#x2019;" horiz-adv-x="244" 
d="M40 520q33 3 51 15t20 30q-39 2 -59.5 23t-20.5 55q0 37 26 58t62 21q42 0 68.5 -26.5t26.5 -74.5v-13q0 -72 -45 -111.5t-129 -40.5v64z" />
    <glyph glyph-name="quotesinglbase" unicode="&#x201a;" horiz-adv-x="289" 
d="M35 -62l71 251l153 -47l-126 -240z" />
    <glyph glyph-name="quotedblleft" unicode="&#x201c;" horiz-adv-x="456" 
d="M206 654q-69 -6 -71 -44q38 -2 58.5 -23t20.5 -55q0 -37 -26 -58t-62 -21q-42 0 -68 26.5t-26 74.5v13q0 72 44.5 111t129.5 41v-65zM416 654q-68 -6 -70 -44q38 -2 58.5 -23t20.5 -55q0 -37 -26 -58t-63 -21q-41 0 -67.5 26.5t-26.5 74.5v13q0 72 44.5 111t129.5 41v-65
z" />
    <glyph glyph-name="quotedblright" unicode="&#x201d;" horiz-adv-x="456" 
d="M40 520q33 3 51 15t20 30q-39 2 -59.5 23t-20.5 55q0 37 26 58t62 21q42 0 68.5 -26.5t26.5 -74.5v-13q0 -72 -45 -111.5t-129 -40.5v64zM250 520q34 3 51.5 15t18.5 30q-38 2 -58.5 23t-20.5 55q0 37 26 58t63 21q41 0 67.5 -26.5t26.5 -74.5v-13q0 -72 -44.5 -111.5
t-129.5 -40.5v64z" />
    <glyph glyph-name="quotedblbase" unicode="&#x201e;" horiz-adv-x="503" 
d="M35 -62l71 251l153 -47l-126 -240zM249 -62l70 251l154 -47l-127 -240z" />
    <glyph glyph-name="dagger" unicode="&#x2020;" horiz-adv-x="384" 
d="M123 483h-99v120h99v112h138v-112h99v-120h-99v-255h-138v255z" />
    <glyph glyph-name="daggerdbl" unicode="&#x2021;" horiz-adv-x="384" 
d="M123 325h-99v110h99v73h-99v109h99v98h138v-98h99v-109h-99v-73h99v-110h-99v-97h-138v97z" />
    <glyph glyph-name="bullet" unicode="&#x2022;" horiz-adv-x="355" 
d="M178 166q-30 0 -55.5 11t-44.5 29.5t-29.5 44t-10.5 54.5t10.5 54.5t29.5 44.5t44.5 30t55.5 11t55.5 -11t44 -30t29 -44.5t10.5 -54.5t-10.5 -54.5t-29 -44t-44 -29.5t-55.5 -11z" />
    <glyph glyph-name="ellipsis" unicode="&#x2026;" horiz-adv-x="836" 
d="M139 -10q-43 0 -71 27.5t-28 67.5q0 41 28 69t71 28q21 0 39 -7.5t31.5 -20.5t21 -31t7.5 -38q0 -40 -28.5 -67.5t-70.5 -27.5zM417 -10q-42 0 -70 27.5t-28 67.5q0 20 7.5 38t20.5 31t31 20.5t39 7.5q43 0 71.5 -28t28.5 -69q0 -40 -28.5 -67.5t-71.5 -27.5zM696 -10
q-43 0 -71 27.5t-28 67.5q0 41 28 69t71 28q21 0 39 -7.5t31.5 -20.5t21 -31t7.5 -38q0 -40 -28.5 -67.5t-70.5 -27.5z" />
    <glyph glyph-name="perthousand" unicode="&#x2030;" horiz-adv-x="1168" 
d="M204 373q-41 0 -74 12.5t-56 35t-35.5 53.5t-12.5 69v13q0 37 14 68t38 53t56.5 34t70.5 12q37 0 70 -11.5t57 -33t38 -51.5t14 -67v-14q0 -38 -13 -69.5t-36.5 -54.5t-56.5 -36t-74 -13zM592 715h93l-491 -715h-93zM205 474q25 0 38.5 18.5t13.5 50.5v14q0 32 -13 50
t-39 18q-24 0 -38 -18t-14 -50v-14q0 -33 14 -51t38 -18zM577 -11q-42 0 -75 12.5t-56 34.5t-35.5 53t-12.5 69v13q0 37 14 68t38 53t57 34t71 12q37 0 69.5 -11.5t56.5 -32.5t38 -51.5t14 -67.5v-13q0 -38 -13 -70t-36 -55t-56.5 -35.5t-73.5 -12.5zM963 -11
q-84 0 -131.5 47t-47.5 122v13q0 37 14 68t38 53t56.5 34t70.5 12t71 -11.5t57 -32.5t38 -51.5t14 -67.5v-13q0 -38 -13 -70t-36.5 -55t-57 -35.5t-73.5 -12.5zM578 89q25 0 38 18.5t13 50.5v15q0 31 -13 49t-38 18t-39 -18t-14 -49v-15q0 -33 14 -51t39 -18zM963 89
q25 0 39 18.5t14 50.5v15q0 31 -13.5 49t-39.5 18q-24 0 -38 -18t-14 -49v-15q0 -33 14 -51t38 -18z" />
    <glyph glyph-name="uni2032" unicode="&#x2032;" horiz-adv-x="235" 
d="M51 715h162l-60 -263h-121z" />
    <glyph glyph-name="uni2033" unicode="&#x2033;" horiz-adv-x="436" 
d="M51 715h162l-60 -263h-121zM253 715h161l-59 -263h-121z" />
    <glyph glyph-name="guilsinglleft" unicode="&#x2039;" horiz-adv-x="291" 
d="M29 261l116 187h118l-112 -187l112 -187h-118z" />
    <glyph glyph-name="guilsinglright" unicode="&#x203a;" horiz-adv-x="291" 
d="M141 261l-113 187h118l116 -187l-116 -187h-118z" />
    <glyph glyph-name="fraction" unicode="&#x2044;" horiz-adv-x="178" 
d="M318 715h92l-550 -715h-92z" />
    <glyph glyph-name="zero.sup" unicode="&#x2070;" horiz-adv-x="411" 
d="M204 381q-87 0 -133.5 46.5t-46.5 135.5v35q0 45 13.5 78.5t37.5 56.5t57 34.5t72 11.5t72.5 -10.5t58 -32.5t38.5 -55.5t14 -79.5v-34q0 -90 -48.5 -138t-134.5 -48zM205 481q28 0 40 20t12 64v33q0 45 -12.5 64.5t-40.5 19.5q-26 0 -38 -19.5t-12 -65.5v-33
q0 -44 12 -63.5t39 -19.5z" />
    <glyph glyph-name="four.sup" unicode="&#x2074;" horiz-adv-x="387" 
d="M194 461h-182v46l152 266h156v-226h46v-86h-46v-72h-126v72zM198 547v137l-76 -137h76z" />
    <glyph glyph-name="five.sup" unicode="&#x2075;" horiz-adv-x="359" 
d="M336 519q0 -64 -41 -100.5t-119 -36.5q-81 0 -117.5 35.5t-38.5 93.5h116q2 -17 10.5 -26t26.5 -9q16 0 25 11.5t9 30.5v5q0 21 -11 32.5t-31 11.5q-16 0 -27 -7.5t-16 -17.5h-90l10 231h272v-92h-181l-3 -80q11 17 32 30.5t61 13.5q51 0 82 -30.5t31 -90.5v-5v0z" />
    <glyph glyph-name="six.sup" unicode="&#x2076;" horiz-adv-x="383" 
d="M362 514q0 -61 -43 -96.5t-119 -35.5q-93 0 -134.5 49.5t-41.5 134.5v31q0 88 49.5 135t129.5 47q142 0 152 -121h-118q-5 28 -33 28q-26 0 -37.5 -22t-12.5 -61v-11q11 20 31.5 31.5t55.5 11.5q24 0 46 -6t38.5 -19.5t26.5 -35.5t10 -53v-7zM199 468q18 0 28 11.5
t10 31.5v8q0 19 -10.5 31t-28.5 12t-28.5 -12t-10.5 -30v-11q0 -17 10 -29t30 -12z" />
    <glyph glyph-name="seven.sup" unicode="&#x2077;" horiz-adv-x="337" 
d="M165 670h-146v103h306v-14l-132 -370h-129z" />
    <glyph glyph-name="eight.sup" unicode="&#x2078;" horiz-adv-x="375" 
d="M187 382q-82 0 -124 29t-42 85v3q0 31 17 55.5t53 35.5q-26 11 -40.5 29.5t-14.5 48.5v2q0 26 11.5 46.5t32 34.5t48.5 21t60 7q68 0 110 -27.5t42 -80.5v-3q0 -29 -14.5 -48t-40.5 -29q36 -11 52.5 -34t16.5 -55v-4q0 -55 -43 -85.5t-124 -30.5zM188 621q16 0 25.5 9
t9.5 26v5q0 17 -10 25t-25 8t-25.5 -8.5t-10.5 -25.5v-4q0 -17 11 -26t25 -9zM187 469q18 0 29 10.5t11 27.5v8q0 17 -11 27.5t-29 10.5q-17 0 -28.5 -10.5t-11.5 -28.5v-7q0 -18 11.5 -28t28.5 -10z" />
    <glyph glyph-name="nine.sup" unicode="&#x2079;" horiz-adv-x="383" 
d="M359 562q0 -89 -44.5 -135t-131.5 -46q-72 0 -112 31.5t-44 91.5h118q4 -30 35 -30q26 0 37.5 19.5t11.5 57.5v14q-12 -17 -30 -28.5t-53 -11.5q-26 0 -48.5 6t-39.5 20t-27 35.5t-10 53.5v6q0 61 43 96.5t118 35.5q46 0 79 -13t55 -37t32.5 -58t10.5 -75v-33zM183 599
q18 0 28.5 11t10.5 31v7q0 20 -9.5 31.5t-29.5 11.5q-18 0 -28.5 -11.5t-10.5 -31.5v-7q0 -19 10 -30.5t29 -11.5z" />
    <glyph glyph-name="plus.sup" unicode="&#x207a;" horiz-adv-x="351" 
d="M128 541h-94v93h94v99h94v-99h95v-93h-95v-96h-94v96z" />
    <glyph glyph-name="minus.sup" unicode="&#x207b;" horiz-adv-x="351" 
d="M34 634h283v-93h-283v93z" />
    <glyph glyph-name="zero.sub" unicode="&#x2080;" horiz-adv-x="411" 
d="M204 -128q-87 0 -133.5 46t-46.5 135v36q0 44 13.5 78t37.5 56.5t57 34t72 11.5t72.5 -10.5t58 -32.5t38.5 -55.5t14 -79.5v-34q0 -91 -48.5 -138t-134.5 -47zM205 -29q28 0 40 20t12 63v34q0 45 -12.5 64t-40.5 19q-26 0 -38 -19.5t-12 -64.5v-33q0 -44 12 -63.5
t39 -19.5z" />
    <glyph glyph-name="one.sub" unicode="&#x2081;" horiz-adv-x="281" 
d="M100 135l-79 -47v108l97 67h113v-385h-131v257z" />
    <glyph glyph-name="two.sub" unicode="&#x2082;" horiz-adv-x="348" 
d="M326 -122h-319v18l122 132q32 35 50.5 61t18.5 49v1q0 34 -31 34q-16 0 -25.5 -12.5t-12.5 -41.5h-118q2 75 45 112.5t118 37.5q77 0 113.5 -34t36.5 -87v-1q0 -41 -21.5 -73t-54.5 -65l-37 -36h115v-95z" />
    <glyph glyph-name="three.sub" unicode="&#x2083;" horiz-adv-x="366" 
d="M342 -7q0 -54 -39.5 -87.5t-119.5 -33.5q-86 0 -124 36t-40 98h114q3 -43 42 -43q37 0 37 35v3q0 18 -10.5 26.5t-35.5 8.5h-27v75h27q46 0 46 35q0 15 -7.5 24t-24.5 9t-27 -10.5t-12 -31.5h-115q4 61 42.5 96.5t114.5 35.5q72 0 111.5 -27.5t39.5 -79.5v-1
q0 -64 -68 -81q33 -6 54.5 -27.5t21.5 -56.5v-3v0z" />
    <glyph glyph-name="four.sub" unicode="&#x2084;" horiz-adv-x="387" 
d="M194 -49h-182v46l152 266h156v-225h46v-87h-46v-73h-126v73zM198 38v136l-76 -136h76z" />
    <glyph glyph-name="five.sub" unicode="&#x2085;" horiz-adv-x="359" 
d="M336 9q0 -64 -41 -100.5t-119 -36.5q-81 0 -117.5 35.5t-38.5 93.5h116q2 -17 10.5 -26t26.5 -9q16 0 25 11.5t9 30.5v5q0 21 -11 32.5t-31 11.5q-16 0 -27 -7.5t-16 -17.5h-90l10 231h272v-92h-181l-3 -80q11 16 32 30t61 14q51 0 82 -30.5t31 -90.5v-5v0z" />
    <glyph glyph-name="six.sub" unicode="&#x2086;" horiz-adv-x="383" 
d="M362 4q0 -61 -43 -96.5t-119 -35.5q-93 0 -134.5 49.5t-41.5 134.5v31q0 88 49.5 135t129.5 47q141 0 152 -121h-118q-2 13 -10 21t-23 8q-26 0 -37.5 -22t-12.5 -63v-10q11 19 31.5 31t55.5 12q24 0 46 -6t38.5 -19.5t26.5 -35.5t10 -53v-7zM199 -43q18 0 28 12t10 32v8
q0 19 -10.5 30.5t-28.5 11.5t-28.5 -11.5t-10.5 -30.5v-9q0 -19 10 -31t30 -12z" />
    <glyph glyph-name="seven.sub" unicode="&#x2087;" horiz-adv-x="337" 
d="M165 160h-146v103h306v-14l-132 -371h-129z" />
    <glyph glyph-name="eight.sub" unicode="&#x2088;" horiz-adv-x="375" 
d="M187 -128q-82 0 -124 29t-42 85v3q0 32 17 56t53 35q-26 11 -40.5 29.5t-14.5 48.5v2q0 27 11.5 47t32 34t48.5 21t60 7q68 0 110 -27t42 -81v-3q0 -29 -14.5 -48t-40.5 -29q36 -11 52.5 -34.5t16.5 -54.5v-3q0 -56 -43 -86.5t-124 -30.5zM188 111q16 0 25.5 9t9.5 26v5
q0 16 -10 25t-25 9t-25.5 -9.5t-10.5 -24.5v-6q0 -16 11 -25t25 -9zM187 -41q18 0 29 10.5t11 27.5v8q0 17 -11 27.5t-29 10.5q-17 0 -28.5 -10.5t-11.5 -28.5v-7q0 -17 11.5 -27.5t28.5 -10.5z" />
    <glyph glyph-name="nine.sub" unicode="&#x2089;" horiz-adv-x="383" 
d="M359 52q0 -89 -44.5 -134.5t-131.5 -45.5q-72 0 -112 31t-44 91h118q2 -15 10 -23t25 -8q26 0 37.5 20.5t11.5 58.5v14q-12 -18 -30 -29.5t-53 -11.5q-26 0 -48.5 6t-39.5 20t-27 35.5t-10 53.5v6q0 61 43 97t118 36q91 0 134 -50.5t43 -132.5v-34zM183 89q18 0 28.5 11
t10.5 31v8q0 18 -9.5 30t-29.5 12q-18 0 -28.5 -11.5t-10.5 -31.5v-7q0 -20 10 -31t29 -11z" />
    <glyph glyph-name="plus.sub" unicode="&#x208a;" horiz-adv-x="351" 
d="M128 26h-94v93h94v98h94v-98h95v-93h-95v-98h-94v98z" />
    <glyph glyph-name="minus.sub" unicode="&#x208b;" horiz-adv-x="351" 
d="M34 119h283v-93h-283v93z" />
    <glyph glyph-name="Euro" unicode="&#x20ac;" horiz-adv-x="669" 
d="M644 246q-13 -126 -82 -192t-200 -66q-66 0 -117.5 19.5t-87.5 55.5t-56.5 86t-25.5 111h-54v72h53v49h-53v72h55q6 61 29 111t61 86t89 55.5t113 19.5q124 0 192.5 -60t78.5 -185v-1h-183v3q-6 46 -27 69.5t-63 23.5q-47 0 -70.5 -32.5t-28.5 -89.5h151l-12 -72h-141
v-49h133l-12 -72h-120q5 -57 28.5 -88t72.5 -31q46 0 67 26t28 79v4h182v-4v0z" />
    <glyph glyph-name="trademark" unicode="&#x2122;" horiz-adv-x="694" 
d="M313 715h117l52 -150l54 150h120v-312h-99v178l-65 -178h-31l-64 178v-178h-84v312zM103 637h-75v78h249v-78h-75v-234h-99v234z" />
    <glyph glyph-name="onethird" unicode="&#x2153;" horiz-adv-x="801" 
d="M104 587l-79 -47v108l97 67h113v-384h-131v256zM604 715h92l-550 -715h-92zM773 114q0 -54 -39.5 -87t-119.5 -33q-86 0 -124 36t-40 98h114q3 -44 42 -44q37 0 37 36v2q0 18 -10.5 27t-35.5 9h-27v74h27q46 0 46 35v1q0 32 -32 32q-17 0 -27 -10.5t-12 -31.5h-115
q4 61 42.5 96.5t114.5 35.5q71 0 111 -27t40 -79v-2q0 -64 -68 -81q33 -6 54.5 -27.5t21.5 -56.5v-3z" />
    <glyph glyph-name="twothirds" unicode="&#x2154;" horiz-adv-x="857" 
d="M329 331h-319v16l122 132q32 36 50.5 61t18.5 49v2q0 34 -31 34q-32 0 -38 -54h-118q2 75 45 112.5t118 37.5q77 0 113.5 -34t36.5 -87v-1q0 -41 -21.5 -73t-54.5 -66l-37 -36h115v-93zM674 715h92l-550 -715h-92zM829 114q0 -54 -39.5 -87t-119.5 -33q-86 0 -124 36
t-40 98h114q3 -44 42 -44q37 0 37 36v2q0 18 -10.5 27t-35.5 9h-27v74h27q46 0 46 35v1q0 32 -32 32q-17 0 -27 -10.5t-12 -31.5h-115q4 61 42.5 96.5t114.5 35.5q71 0 111 -27t40 -79v-2q0 -64 -68 -81q33 -6 54.5 -27.5t21.5 -56.5v-3z" />
    <glyph glyph-name="oneeighth" unicode="&#x215b;" horiz-adv-x="806" 
d="M103 587l-79 -47v108l97 67h113v-384h-131v256zM600 715h92l-550 -715h-92zM614 -6q-166 0 -166 113v4q0 31 17 55t53 35q-26 11 -40.5 29.5t-14.5 47.5v4q0 26 11.5 46t32 34t48.5 21t60 7q68 0 110 -27t42 -81v-3q0 -29 -14.5 -48t-40.5 -29q36 -11 52.5 -34t16.5 -55
v-4q0 -55 -43 -85t-124 -30zM615 232q16 0 25.5 9t9.5 26v6q0 15 -10 24t-25 9t-25.5 -9.5t-10.5 -24.5v-6q0 -16 11 -25t25 -9zM614 80q18 0 29 10.5t11 27.5v8q0 17 -11 27.5t-29 10.5q-17 0 -28.5 -10.5t-11.5 -28.5v-7q0 -18 11.5 -28t28.5 -10z" />
    <glyph glyph-name="threeeighths" unicode="&#x215c;" horiz-adv-x="841" 
d="M345 445q0 -54 -39.5 -87.5t-119.5 -33.5q-86 0 -124 36.5t-40 97.5h114q2 -20 12 -32t30 -12q18 0 27.5 9.5t9.5 26.5v3q0 17 -10.5 26t-35.5 9h-27v74h27q46 0 46 36q0 33 -32 33q-17 0 -27 -10.5t-12 -31.5h-115q4 60 42.5 96t114.5 36q72 0 111.5 -27.5t39.5 -78.5
v-3q0 -63 -68 -80q33 -6 54.5 -28t21.5 -57v-2zM651 715h92l-550 -715h-92zM650 -6q-166 0 -166 113v4q0 31 17 55t53 35q-26 11 -40.5 29.5t-14.5 47.5v4q0 26 11.5 46t32 34t48.5 21t60 7q68 0 110 -27t42 -81v-3q0 -29 -14.5 -48t-40.5 -29q36 -11 52.5 -34t16.5 -55v-4
q0 -55 -43 -85t-124 -30zM651 232q16 0 25.5 9t9.5 26v6q0 15 -10 24t-25 9t-25.5 -9.5t-10.5 -24.5v-6q0 -16 11 -25t25 -9zM650 80q18 0 29 10.5t11 27.5v8q0 17 -11 27.5t-29 10.5q-17 0 -28.5 -10.5t-11.5 -28.5v-7q0 -18 11.5 -28t28.5 -10z" />
    <glyph glyph-name="fiveeighths" unicode="&#x215d;" horiz-adv-x="833" 
d="M339 461q0 -65 -41 -101t-119 -36q-81 0 -117.5 35.5t-38.5 92.5h116q2 -16 10.5 -25t26.5 -9q16 0 25 11t9 31v5q0 21 -11 32t-31 11q-16 0 -27 -7t-16 -18h-90l10 232h272v-92h-181l-3 -80q11 17 32 30t61 13q51 0 82 -30t31 -90v-5zM639 715h92l-550 -715h-92zM642 -6
q-166 0 -166 113v4q0 31 17 55t53 35q-26 11 -40.5 29.5t-14.5 47.5v4q0 26 11.5 46t32 34t48.5 21t60 7q68 0 110 -27t42 -81v-3q0 -29 -14.5 -48t-40.5 -29q36 -11 52.5 -34t16.5 -55v-4q0 -55 -43 -85t-124 -30zM643 232q16 0 25.5 9t9.5 26v6q0 15 -10 24t-25 9
t-25.5 -9.5t-10.5 -24.5v-6q0 -16 11 -25t25 -9zM642 80q18 0 29 10.5t11 27.5v8q0 17 -11 27.5t-29 10.5q-17 0 -28.5 -10.5t-11.5 -28.5v-7q0 -18 11.5 -28t28.5 -10z" />
    <glyph glyph-name="seveneighths" unicode="&#x215e;" horiz-adv-x="800" 
d="M168 612h-146v103h306v-14l-132 -370h-129zM590 715h92l-550 -715h-92zM610 -6q-166 0 -166 113v4q0 31 17 55t53 35q-26 11 -40.5 29.5t-14.5 47.5v4q0 26 11.5 46t32 34t48.5 21t60 7q68 0 110 -27t42 -81v-3q0 -29 -14.5 -48t-40.5 -29q36 -11 52.5 -34t16.5 -55v-4
q0 -55 -43 -85t-124 -30zM611 232q16 0 25.5 9t9.5 26v6q0 15 -10 24t-25 9t-25.5 -9.5t-10.5 -24.5v-6q0 -16 11 -25t25 -9zM610 80q18 0 29 10.5t11 27.5v8q0 17 -11 27.5t-29 10.5q-17 0 -28.5 -10.5t-11.5 -28.5v-7q0 -18 11.5 -28t28.5 -10z" />
    <glyph glyph-name="minus" unicode="&#x2212;" horiz-adv-x="543" 
d="M36 274v132h471v-132h-471z" />
    <glyph glyph-name="approxequal" unicode="&#x2248;" 
d="M34 340q3 45 14.5 77.5t29.5 53t41.5 30t49.5 9.5q29 0 57.5 -6t55 -13t50 -13t41.5 -6q19 0 30.5 11t13.5 31h100q-2 -44 -13.5 -76t-30 -53t-42 -31t-48.5 -10q-30 0 -59 6t-55.5 13t-49.5 13t-41 6q-19 0 -30 -11t-15 -31h-99zM34 128q3 45 14.5 77.5t29.5 53.5
t41.5 30.5t49.5 9.5q29 0 57.5 -6t55 -13.5t50 -13.5t41.5 -6q39 0 44 43h100q-2 -44 -13.5 -76t-30 -53t-42 -31.5t-48.5 -10.5q-30 0 -59 6t-55.5 13.5t-49.5 13.5t-41 6q-19 0 -30 -11.5t-15 -31.5h-99z" />
    <glyph glyph-name="notequal" unicode="&#x2260;" horiz-adv-x="532" 
d="M261 169l-37 -95h-110l37 95h-114v118h160l29 72h-189v119h235l37 94h110l-37 -94h113v-119h-159l-29 -72h188v-118h-234z" />
    <glyph glyph-name="lessequal" unicode="&#x2264;" horiz-adv-x="490" 
d="M38 362v32l406 217v-154l-161 -78l161 -80v-155zM38 117h406v-117h-406v117z" />
    <glyph glyph-name="greaterequal" unicode="&#x2265;" horiz-adv-x="490" 
d="M46 300l162 79l-162 78v154l406 -217v-32l-406 -218v156zM46 117h406v-117h-406v117z" />
    <glyph glyph-name="uni24C5" unicode="&#x24c5;" horiz-adv-x="798" 
d="M764 362q0 -77 -28.5 -143.5t-78 -115t-116 -76t-143.5 -27.5q-76 0 -142.5 27.5t-115.5 75.5t-77.5 114t-28.5 143q0 76 28 142t77.5 115t116.5 77t144 28q78 0 144.5 -28t115.5 -76.5t76.5 -114t27.5 -141.5zM95 360q0 -70 24 -127.5t65.5 -98t96.5 -62.5t117 -22
q63 0 118.5 22.5t97 63.5t65.5 98.5t24 127.5q0 69 -23.5 126t-64.5 98t-96 63.5t-119 22.5q-65 0 -120.5 -22.5t-96.5 -63.5t-64.5 -98.5t-23.5 -127.5zM262 559h153q85 0 121 -35t36 -98v-2q0 -127 -152 -127h-39v-130h-119v392zM408 379q50 0 50 46q0 43 -49 43h-28v-89
h27z" />
    <glyph glyph-name="zero.den" unicode="&#xe402;" horiz-adv-x="411" 
d="M204 -8q-87 0 -133.5 47t-46.5 136v35q0 44 13.5 78t37.5 56.5t57 34t72 11.5t72.5 -10.5t58 -32t38.5 -55.5t14 -80v-34q0 -90 -48.5 -138t-134.5 -48zM205 92q28 0 40 20t12 64v33q0 45 -12.5 64.5t-40.5 19.5q-26 0 -38 -19.5t-12 -64.5v-34q0 -44 12 -63.5t39 -19.5z
" />
    <glyph glyph-name="one.den" unicode="&#xe403;" horiz-adv-x="281" 
d="M100 257l-79 -47v108l97 66h113v-384h-131v257z" />
    <glyph glyph-name="two.den" unicode="&#xe404;" horiz-adv-x="348" 
d="M326 0h-319v16l122 133q32 35 50.5 61t18.5 49v1q0 34 -31 34q-16 0 -25.5 -12.5t-12.5 -41.5h-118q2 75 45 112.5t118 37.5q77 0 113.5 -33.5t36.5 -87.5v-1q0 -41 -21.5 -73t-54.5 -65l-37 -36h115v-94z" />
    <glyph glyph-name="three.den" unicode="&#xe405;" horiz-adv-x="366" 
d="M342 114q0 -54 -39.5 -87t-119.5 -33q-86 0 -124 36t-40 98h114q3 -44 42 -44q37 0 37 36v2q0 18 -10.5 27t-35.5 9h-27v74h27q46 0 46 35v1q0 32 -32 32q-17 0 -27 -10.5t-12 -31.5h-115q4 61 42.5 96.5t114.5 35.5q71 0 111 -27t40 -79v-2q0 -64 -68 -81
q33 -6 54.5 -27.5t21.5 -56.5v-3v0z" />
    <glyph glyph-name="four.den" unicode="&#xe406;" horiz-adv-x="387" 
d="M194 72h-182v46l152 266h156v-225h46v-87h-46v-72h-126v72zM198 159v137l-76 -137h76z" />
    <glyph glyph-name="five.den" unicode="&#xe407;" horiz-adv-x="359" 
d="M336 130q0 -64 -41 -100t-119 -36q-81 0 -117.5 35t-38.5 93h116q2 -17 10.5 -25.5t26.5 -8.5q16 0 26 10.5t10 30.5v5q0 21 -12 32t-32 11q-16 0 -27 -7t-16 -17h-90l10 231h272v-92h-181l-3 -80q11 17 32 30.5t61 13.5q51 0 82 -30t31 -90v-6v0z" />
    <glyph glyph-name="six.den" unicode="&#xe408;" horiz-adv-x="383" 
d="M362 125q0 -61 -43 -96t-119 -35q-93 0 -134.5 49t-41.5 134v31q0 88 49.5 135t129.5 47q142 0 152 -121h-118q-2 13 -10 21t-23 8q-26 0 -37.5 -22t-12.5 -62v-11q11 20 31.5 31.5t55.5 11.5q24 0 46 -6t38.5 -19.5t26.5 -35t10 -52.5v-8zM199 79q18 0 28 11.5t10 31.5
v8q0 20 -10.5 31.5t-28.5 11.5t-28.5 -11.5t-10.5 -30.5v-10q0 -18 10 -30t30 -12z" />
    <glyph glyph-name="seven.den" unicode="&#xe409;" horiz-adv-x="337" 
d="M165 281h-146v103h306v-14l-132 -370h-129z" />
    <glyph glyph-name="eight.den" unicode="&#xe40a;" horiz-adv-x="375" 
d="M187 -6q-166 0 -166 113v4q0 31 17 55t53 35q-26 11 -40.5 29.5t-14.5 47.5v4q0 26 11.5 46t32 34t48.5 21t60 7q68 0 110 -27t42 -81v-3q0 -29 -14.5 -48t-40.5 -29q36 -11 52.5 -34t16.5 -55v-4q0 -55 -43 -85t-124 -30zM188 232q16 0 25.5 9t9.5 26v6q0 15 -10 24
t-25 9t-25.5 -9.5t-10.5 -24.5v-6q0 -16 11 -25t25 -9zM187 80q18 0 29 10.5t11 27.5v8q0 17 -11 27.5t-29 10.5q-17 0 -28.5 -10.5t-11.5 -28.5v-7q0 -18 11.5 -28t28.5 -10z" />
    <glyph glyph-name="nine.den" unicode="&#xe40b;" horiz-adv-x="383" 
d="M359 173q0 -88 -44.5 -134t-131.5 -46q-72 0 -112 31t-44 91h118q4 -30 35 -30q26 0 37.5 20t11.5 58v14q-12 -18 -30 -29.5t-53 -11.5q-26 0 -48.5 6t-39.5 20t-27 35.5t-10 53.5v6q0 61 43 97t118 36q46 0 79 -13t55 -37t32.5 -58t10.5 -75v-34zM183 210
q18 0 28.5 11.5t10.5 30.5v7q0 20 -9.5 32t-29.5 12q-18 0 -28.5 -12.5t-10.5 -32.5v-5q0 -20 10 -31.5t29 -11.5z" />
    <glyph glyph-name="zero.num" unicode="&#xe416;" horiz-adv-x="411" 
d="M204 323q-87 0 -133.5 46.5t-46.5 135.5v35q0 44 13.5 78t37.5 57t57 34.5t72 11.5t72.5 -10.5t58 -32.5t38.5 -55.5t14 -79.5v-34q0 -90 -48.5 -138t-134.5 -48zM205 422q28 0 40 20.5t12 63.5v34q0 45 -12.5 64.5t-40.5 19.5q-26 0 -38 -20t-12 -65v-33q0 -44 12 -64
t39 -20z" />
    <glyph glyph-name="one.num" unicode="&#xe417;" horiz-adv-x="281" 
d="M100 587l-79 -47v108l97 67h113v-384h-131v256z" />
    <glyph glyph-name="two.num" unicode="&#xe418;" horiz-adv-x="348" 
d="M326 331h-319v16l122 132q32 36 50.5 61t18.5 49v2q0 34 -31 34q-32 0 -38 -54h-118q2 75 45 112.5t118 37.5q77 0 113.5 -34t36.5 -87v-1q0 -41 -21.5 -73t-54.5 -66l-37 -36h115v-93z" />
    <glyph glyph-name="three.num" unicode="&#xe419;" horiz-adv-x="366" 
d="M342 445q0 -54 -39.5 -87.5t-119.5 -33.5q-86 0 -124 36.5t-40 97.5h114q2 -20 12 -32t30 -12q18 0 27.5 9.5t9.5 26.5v3q0 17 -10.5 26t-35.5 9h-27v74h27q46 0 46 36q0 33 -32 33q-17 0 -27 -10.5t-12 -31.5h-115q4 60 42.5 96t114.5 36q72 0 111.5 -27.5t39.5 -78.5
v-3q0 -63 -68 -80q33 -6 54.5 -28t21.5 -57v-2v0z" />
    <glyph glyph-name="four.num" unicode="&#xe41a;" horiz-adv-x="386" 
d="M194 403h-182v46l152 266h156v-226h46v-86h-46v-72h-126v72zM198 489v137l-76 -137h76z" />
    <glyph glyph-name="five.num" unicode="&#xe41b;" horiz-adv-x="359" 
d="M336 461q0 -65 -41 -101t-119 -36q-81 0 -117.5 35.5t-38.5 92.5h116q2 -16 10.5 -25t26.5 -9q16 0 25 11t9 31v5q0 21 -11 32t-31 11q-16 0 -27 -7t-16 -18h-90l10 232h272v-92h-181l-3 -80q11 17 32 30t61 13q51 0 82 -30t31 -90v-5v0z" />
    <glyph glyph-name="six.num" unicode="&#xe41c;" horiz-adv-x="383" 
d="M362 456q0 -61 -43 -96.5t-119 -35.5q-93 0 -134.5 49.5t-41.5 134.5v31q0 88 49.5 135t129.5 47q141 0 152 -121h-118q-2 12 -10 20.5t-23 8.5q-26 0 -37.5 -22.5t-12.5 -62.5v-11q11 20 31.5 32t55.5 12q24 0 46 -6t38.5 -20t26.5 -36t10 -53v-6zM199 410q18 0 28 11.5
t10 31.5v7q0 20 -10.5 32t-28.5 12t-28.5 -11.5t-10.5 -31.5v-10q0 -18 10 -29.5t30 -11.5z" />
    <glyph glyph-name="seven.num" unicode="&#xe41d;" horiz-adv-x="337" 
d="M165 612h-146v103h306v-14l-132 -370h-129z" />
    <glyph glyph-name="eight.num" unicode="&#xe41e;" horiz-adv-x="374" 
d="M187 324q-82 0 -124 29t-42 85v3q0 31 17 55.5t53 35.5q-26 10 -40.5 29t-14.5 49v2q0 26 11.5 46.5t32 34.5t48.5 21t60 7q68 0 110 -27t42 -81v-3q0 -29 -14.5 -48.5t-40.5 -28.5q36 -11 52.5 -34.5t16.5 -55.5v-2q0 -56 -43 -86.5t-124 -30.5zM188 562q16 0 25.5 9.5
t9.5 26.5v5q0 16 -10 24.5t-25 8.5t-25.5 -9t-10.5 -25v-5q0 -17 11 -26t25 -9zM187 411q18 0 29 10t11 28v7q0 17 -11 28t-29 11q-17 0 -28.5 -10.5t-11.5 -28.5v-7q0 -18 11.5 -28t28.5 -10z" />
    <glyph glyph-name="nine.num" unicode="&#xe41f;" horiz-adv-x="383" 
d="M359 503q0 -89 -44.5 -134.5t-131.5 -45.5q-72 0 -112 31.5t-44 91.5h118q4 -30 35 -30q26 0 37.5 19.5t11.5 57.5v14q-12 -17 -30 -28.5t-53 -11.5q-26 0 -48.5 6t-39.5 20t-27 35.5t-10 53.5v6q0 61 43 96.5t118 35.5q46 0 79 -13t55 -37t32.5 -58t10.5 -75v-34z
M183 541q18 0 28.5 11t10.5 31v7q0 19 -9.5 31t-29.5 12q-18 0 -28.5 -11.5t-10.5 -31.5v-7q0 -20 10 -31t29 -11z" />
    <glyph glyph-name="f_f" unicode="&#xfb00;" horiz-adv-x="672" 
d="M381 405h-134v-405h-172v405h-61v118h61v45q0 46 14 80.5t39 56.5t60 33t76 11q27 0 44.5 -2.5t30.5 -6.5v-126q-8 2 -17 4t-22 2q-53 0 -53 -55v-42h134v51q0 94 53.5 138t141.5 44q27 0 46 -3t33 -7v-126q-8 3 -19 5t-25 2q-29 0 -43.5 -15t-14.5 -41v-48h100v-118
h-100v-405h-172v405z" />
    <glyph glyph-name="f_i" unicode="&#xfb01;" horiz-adv-x="625" 
d="M75 405h-61v118h61v51q0 47 14 81t39.5 56.5t60.5 33.5t77 11q26 0 44 -2.5t30 -6.5v-126q-7 2 -16 4t-23 2q-54 0 -54 -56v-48h94v-118h-94v-405h-172v405zM493 563q-44 0 -72.5 26.5t-28.5 67.5t28.5 67.5t72.5 26.5q42 0 71 -26.5t29 -67.5t-28.5 -67.5t-71.5 -26.5z
M401 523h184v-523h-184v523z" />
    <glyph glyph-name="f_l" unicode="&#xfb02;" horiz-adv-x="625" 
d="M75 405h-61v118h61v51q0 47 14 81t39.5 56.5t60.5 33.5t77 11q26 0 44 -2.5t30 -6.5v-126q-7 2 -16 4t-23 2q-54 0 -54 -56v-48h94v-118h-94v-405h-172v405zM401 748h183v-748h-183v748z" />
    <glyph glyph-name="idotaccent" horiz-adv-x="274" 
d="M142 563q-44 0 -72.5 26.5t-28.5 67.5t28.5 67.5t72.5 26.5q42 0 71 -26.5t29 -67.5t-28.5 -67.5t-71.5 -26.5zM50 523h184v-523h-184v523z" />
    <glyph glyph-name="space_uni0326" horiz-adv-x="402" 
d="M99 -199l38 163l155 -6l-94 -182z" />
    <glyph glyph-name="space.tab" horiz-adv-x="277" 
 />
    <glyph glyph-name="dollar.tab" 
d="M536 217q0 -47 -14 -86.5t-41.5 -69.5t-70 -48.5t-99.5 -22.5v-119h-66v119q-111 8 -170.5 65.5t-61.5 160.5v5h158v-6q3 -79 74 -93v167q-57 12 -99 29t-69 43t-40 62.5t-13 86.5q0 92 58.5 149.5t162.5 64.5v87h66v-88q96 -8 153.5 -58.5t60.5 -146.5v-5h-156v5
q-3 58 -58 71v-152q48 -9 89.5 -24.5t71.5 -40.5t47 -62.5t17 -91.5v-1zM178 525q0 -27 15.5 -44t51.5 -28v139q-67 -9 -67 -67zM311 121q68 12 68 77q-1 29 -18 46t-50 28v-151z" />
    <glyph glyph-name="cent.tab" 
d="M532 197q-4 -91 -59 -145.5t-153 -62.5v-118h-58v118q-50 4 -92.5 21t-73.5 48t-48.5 76t-17.5 104v42q0 58 17.5 103.5t49 78t73.5 50.5t92 23v91h58v-91q42 -3 79 -16.5t65 -38t45 -61.5t20 -87v-2h-150v1q-4 33 -20 51t-39 24v-294q27 5 45.5 25.5t22.5 59.5v1h144v-1
zM193 238q0 -59 18.5 -88t50.5 -37v293q-32 -8 -50.5 -35.5t-18.5 -85.5v-47z" />
    <glyph glyph-name="Euro.tab" 
d="M532 227q-2 -126 -64.5 -182.5t-174.5 -56.5q-115 0 -179 70t-64 204h-43v71h43v50h-43v71h43q0 66 18.5 116.5t51.5 85t78.5 52t99.5 17.5q52 0 94 -12.5t72 -40.5t47 -71.5t18 -105.5v-2h-162v4q-2 45 -18 64.5t-51 19.5q-40 0 -57 -30.5t-17 -94.5v-2h136l-12 -71
h-124v-50h116l-12 -71h-104v-2q0 -65 16.5 -95.5t58.5 -30.5q36 0 53.5 20.5t19.5 71.5v5h160v-4v0z" />
    <glyph glyph-name="sterling.tab" 
d="M538 200q-3 -97 -47 -152.5t-128 -55.5q-32 0 -58 7.5t-48 16.5t-40 16.5t-34 7.5q-19 0 -28.5 -11.5t-11.5 -28.5h-134q3 56 23 100.5t59 65.5q9 27 9 69q0 30 -6 59h-72v106h45q-6 25 -10 50.5t-4 54.5q0 54 18 95t49.5 69t75 42t94.5 14q118 0 174.5 -56.5
t58.5 -166.5v-7h-159v5q-2 42 -19 58.5t-47 16.5q-32 0 -50 -19t-18 -60v-1q0 -23 2.5 -46.5t5.5 -48.5h154v-106h-141q3 -29 3 -57q0 -39 -11 -69q25 -8 46 -14.5t38 -6.5q24 0 39 12.5t17 40.5h155v0z" />
    <glyph glyph-name="yen.tab" 
d="M374 175v-175h-191v175h-139v71h139v49h-139v72h128l-159 348h193l82 -213l81 213h170l-154 -348h132v-72h-143v-49h143v-71h-143z" />
    <glyph glyph-name="florin.tab" 
d="M328 299l-64 -472h-174l63 472h-82v119h97l16 117q13 102 70 145t149 43q45 0 75 -10v-131q-9 3 -21.5 5t-26.5 2q-33 0 -50 -16t-22 -51l-14 -104h120v-119h-136z" />
    <glyph glyph-name="zero.tab" 
d="M274 -12q-117 0 -184 68.5t-67 203.5v194q0 68 19 119t52.5 84.5t80 50.5t101.5 17t101.5 -15.5t80.5 -48.5t53 -83t19 -119v-195q0 -68 -18 -119.5t-51 -86.5t-80.5 -52.5t-106.5 -17.5zM278 137q41 0 56.5 29t15.5 95v196q0 64 -16.5 93t-56.5 29t-57 -29t-17 -95v-195
q0 -67 17 -95t58 -28z" />
    <glyph glyph-name="one.tab" 
d="M230 520l-168 -116v165l194 146h171v-715h-197v520z" />
    <glyph glyph-name="two.tab" 
d="M13 28l210 260q27 35 47 63.5t33.5 54t20.5 48.5t7 47v4q0 75 -61 75q-32 0 -49.5 -23t-19.5 -76v-10h-175v5q1 55 16 101t45.5 79t78 51t112.5 18q122 0 182.5 -56.5t60.5 -151.5v-5q0 -36 -10 -68.5t-27.5 -65t-42 -65.5t-53.5 -69l-91 -96h223v-148h-507v28z" />
    <glyph glyph-name="three.tab" 
d="M277 -12q-134 0 -198 60.5t-66 175.5v2h170v-2q2 -45 21 -69t64 -24q79 0 79 82v6q0 42 -20 63.5t-66 21.5h-49v123h46q45 0 65.5 21.5t20.5 59.5v3q0 33 -17.5 52.5t-51.5 19.5q-35 0 -55.5 -21.5t-22.5 -62.5v-4h-167v1q2 109 66.5 169t182.5 60q112 0 175.5 -51
t63.5 -145v-3q0 -60 -31.5 -98.5t-85.5 -52.5q59 -11 95.5 -52t36.5 -109v-6q0 -100 -65 -160t-191 -60z" />
    <glyph glyph-name="four.tab" 
d="M293 141h-283v66l238 508h221v-442h67v-132h-67v-141h-176v141zM297 273v284l-133 -284h133z" />
    <glyph glyph-name="five.tab" 
d="M269 -12q-125 0 -185 58t-62 167v2h166v-3q2 -35 20 -54.5t59 -19.5q40 0 57.5 26t17.5 74v8q0 50 -24 75t-65 25q-38 0 -62.5 -15t-39.5 -38h-108l14 422h431v-145h-296l-5 -167q20 29 54.5 51t91.5 22q89 0 140.5 -57.5t51.5 -167.5v-14q0 -116 -65 -182.5t-191 -66.5z
" />
    <glyph glyph-name="six.tab" 
d="M289 -12q-135 0 -201.5 77t-66.5 213v130q0 78 20 137.5t56.5 99t87 60t111.5 20.5q104 0 165 -48t66 -154v-1h-165v2q-5 29 -19.5 45t-44.5 16q-48 0 -74.5 -41.5t-26.5 -137.5v-27q20 36 54 60t91 24q40 0 76 -12.5t62 -39t41.5 -66.5t15.5 -94v-26q0 -111 -65.5 -174
t-182.5 -63zM285 131q38 0 60 24.5t22 66.5v24q0 45 -22.5 68.5t-60.5 23.5q-37 0 -61.5 -22.5t-24.5 -66.5v-24q0 -44 23.5 -69t63.5 -25z" />
    <glyph glyph-name="seven.tab" 
d="M293 557h-263v158h502v-20l-236 -695h-197z" />
    <glyph glyph-name="eight.tab" 
d="M276 -12q-59 0 -106.5 13t-81 39t-52 65t-18.5 90v14q0 61 30 104t90 65q-45 20 -70.5 55t-25.5 89v7q0 48 18.5 84.5t50.5 61.5t74.5 37.5t91.5 12.5q51 0 94 -12.5t74.5 -37.5t49 -61t17.5 -84v-7q0 -55 -25.5 -90t-68.5 -54q117 -43 117 -165v-14q0 -51 -18.5 -90.5
t-52 -66.5t-81.5 -41t-107 -14zM279 430q31 0 51 19.5t20 56.5v11q0 35 -20 54t-52 19q-31 0 -52 -19.5t-21 -54.5v-11q0 -36 21.5 -55.5t52.5 -19.5zM277 128q38 0 60.5 21.5t22.5 62.5v20q0 40 -22.5 62.5t-60.5 22.5q-35 0 -59.5 -21.5t-24.5 -63.5v-19q0 -42 23.5 -63.5
t60.5 -21.5z" />
    <glyph glyph-name="nine.tab" 
d="M263 -12q-109 0 -171.5 49.5t-69.5 155.5v2h165v-3q5 -29 22.5 -46.5t49.5 -17.5q50 0 73.5 39t23.5 134v32q-20 -35 -54.5 -58.5t-91.5 -23.5q-40 0 -75.5 12.5t-61.5 38t-41.5 65.5t-15.5 94v25q0 55 17.5 99.5t49.5 75.5t78.5 47.5t104.5 16.5q132 0 198.5 -75
t66.5 -213v-143q0 -77 -18.5 -134t-53 -95.5t-84.5 -57.5t-112 -19zM269 585q-38 0 -60.5 -25.5t-22.5 -67.5v-23q0 -45 21.5 -68t60.5 -23q38 0 62.5 22t24.5 66v22q0 45 -23 71t-63 26z" />
    <glyph glyph-name="percent.tab" horiz-adv-x="740" 
d="M190 386q-39 0 -70.5 12t-53.5 33.5t-34 51.5t-12 66v14q0 36 13 65.5t36.5 50.5t54.5 32.5t67 11.5t67.5 -11t54.5 -31.5t36 -49.5t13 -65v-15q0 -36 -12 -66.5t-34.5 -52.5t-54.5 -34t-71 -12zM565 715h93l-480 -715h-93zM191 482q24 0 37 17.5t13 48.5v16q0 31 -13 48
t-37 17q-22 0 -35 -17t-13 -47v-16q0 -32 13 -49.5t35 -17.5zM547 -11q-79 0 -124.5 45t-45.5 117v14q0 36 13 65.5t36.5 50.5t55 32.5t67.5 11.5t67 -11t54.5 -31.5t36.5 -49t13 -64.5v-15q0 -37 -12.5 -67.5t-35 -52t-54.5 -33.5t-71 -12zM549 84q23 0 35.5 17.5
t12.5 49.5v16q0 31 -12.5 48t-35.5 17t-36.5 -17t-13.5 -48v-16q0 -32 13.5 -49.5t36.5 -17.5z" />
    <glyph glyph-name="perthousand.tab" horiz-adv-x="940" 
d="M158 393q-70 0 -110.5 42.5t-40.5 114.5v17q0 36 12 65.5t32.5 49.5t48 31t59.5 11q31 0 58.5 -10.5t48 -30t32 -48t11.5 -65.5v-17q0 -74 -41 -117t-110 -43zM500 715h90l-474 -715h-89zM159 481q38 0 38 68v20q0 36 -9.5 52t-28.5 16q-20 0 -30 -16t-10 -52v-20
q0 -37 10 -52.5t30 -15.5zM454 -11q-69 0 -110 42.5t-41 115.5v17q0 36 12 64.5t32 48.5t47.5 31t59.5 11q31 0 59 -10t48 -29.5t32 -48t12 -65.5v-16q0 -75 -41 -118t-110 -43zM781 -11q-69 0 -110 42.5t-41 115.5v17q0 36 12 64.5t32.5 48.5t48 31t59.5 11q31 0 58.5 -10
t48 -29.5t32.5 -48t12 -65.5v-16q0 -75 -41.5 -118t-110.5 -43zM454 77q20 0 30 16.5t10 52.5v20q0 35 -10 51t-30 16q-19 0 -28.5 -16t-9.5 -51v-20q0 -37 9.5 -53t28.5 -16zM782 77q20 0 29.5 16.5t9.5 52.5v20q0 35 -9.5 51t-29.5 16t-29.5 -16t-9.5 -51v-20
q0 -37 9.5 -53t29.5 -16z" />
    <glyph glyph-name="plus.tab" 
d="M207 277h-160v126h160v176h140v-176h159v-126h-159v-175h-140v175z" />
    <glyph glyph-name="minus.tab" 
d="M47 406h460v-132h-460v132z" />
    <glyph glyph-name="plusminus.tab" 
d="M207 333h-165v126h165v158h140v-158h164v-126h-164v-159h-140v159zM42 115h471v-116h-471v116z" />
    <glyph glyph-name="multiply.tab" 
d="M44 191l142 143l-143 145l92 91l140 -143l140 140l91 -89l-141 -144l144 -144l-93 -91l-141 144l-139 -141z" />
    <glyph glyph-name="divide.tab" 
d="M276 448q-38 0 -64 25.5t-26 63.5t26 63t64 25q19 0 35.5 -6.5t29 -18.5t19.5 -28t7 -35t-7 -35t-19.5 -28t-29 -19t-35.5 -7zM41 401h472v-121h-472v121zM276 55q-38 0 -64 25t-26 63t26 63.5t64 25.5q19 0 35.5 -7t29 -19t19.5 -28t7 -35t-7 -35t-19.5 -28t-29 -18.5
t-35.5 -6.5z" />
    <glyph glyph-name="equal.tab" 
d="M53 478h447v-119h-447v119zM53 288h447v-119h-447v119z" />
    <glyph glyph-name="notequal.tab" 
d="M271 169l-37 -95h-111l38 95h-114v119h161l28 71h-189v119h236l37 94h110l-37 -94h113v-119h-160l-28 -71h188v-119h-235z" />
    <glyph glyph-name="approxequal.tab" 
d="M37 340q3 45 14.5 77.5t29.5 53t41 30t49 9.5q29 0 57.5 -6t54 -13t48.5 -13t41 -6t29.5 11t13.5 31h101q-4 -87 -43.5 -128.5t-91.5 -41.5q-30 0 -58 6t-53.5 13t-48 13t-40.5 6q-20 0 -31 -11t-13 -31h-100zM37 128q3 45 14.5 77.5t29.5 53.5t41 30.5t49 9.5
q29 0 57.5 -6t54 -13.5t48.5 -13.5t41 -6q38 0 43 43h101q-4 -87 -43.5 -129t-91.5 -42q-30 0 -58 6t-53.5 13.5t-48 13.5t-40.5 6q-20 0 -31 -11.5t-13 -31.5h-100z" />
    <glyph glyph-name="less.tab" 
d="M65 306v33l421 234v-157l-193 -93l193 -99v-153z" />
    <glyph glyph-name="greater.tab" 
d="M67 229l192 92l-192 100v152l422 -234v-33l-422 -234v157z" />
    <glyph glyph-name="lessequal.tab" 
d="M70 362v32l406 217v-154l-162 -78l162 -80v-155zM70 117h406v-117h-406v117z" />
    <glyph glyph-name="greaterequal.tab" 
d="M77 300l161 79l-161 78v154l405 -217v-32l-405 -218v156zM77 117h405v-117h-405v117z" />
    <glyph glyph-name="period.tab" horiz-adv-x="277" 
d="M138 -10q-43 0 -71 28t-28 69t28 68.5t71 27.5t72 -27.5t29 -68.5t-29 -69t-72 -28z" />
    <glyph glyph-name="comma.tab" horiz-adv-x="277" 
d="M7 -78l73 254l164 -54l-135 -237z" />
    <glyph glyph-name="colon.tab" horiz-adv-x="277" 
d="M138 279q-43 0 -71 28t-28 70q0 41 28 69t71 28t72 -28t29 -69q0 -42 -29 -70t-72 -28zM138 -10q-43 0 -71 28t-28 69t28 68.5t71 27.5t72 -27.5t29 -68.5t-29 -69t-72 -28z" />
    <glyph glyph-name="semicolon.tab" horiz-adv-x="277" 
d="M141 279q-21 0 -39 7.5t-31.5 21t-21 31t-7.5 38.5q0 20 7.5 38t21 31t31.5 20.5t39 7.5q44 0 72.5 -28t28.5 -69q0 -42 -28.5 -70t-72.5 -28zM-6 -78l73 254l162 -54l-133 -237z" />
    <glyph glyph-name="parenleft.tab" horiz-adv-x="277" 
d="M158 -147q-22 35 -45.5 80t-42.5 101.5t-31.5 126t-12.5 152.5q0 84 12.5 153t31.5 126t42.5 102t45.5 80h124q-19 -39 -37 -86.5t-32.5 -105t-23.5 -124.5t-9 -145t9 -145t23.5 -124.5t32.5 -105t37 -85.5h-124v0z" />
    <glyph glyph-name="parenright.tab" horiz-adv-x="277" 
d="M-5 -147q19 38 37 85.5t32.5 105t23.5 124.5t9 145t-9 145t-23.5 124.5t-32.5 105t-37 86.5h124q22 -35 45.5 -80t43 -102t32 -126t12.5 -153q0 -83 -12.5 -152.5t-32 -126t-43 -101.5t-45.5 -80h-124v0z" />
    <glyph glyph-name="bracketleft.tab" horiz-adv-x="277" 
d="M35 774h230v-114h-73v-693h73v-114h-230v921z" />
    <glyph glyph-name="bracketright.tab" horiz-adv-x="277" 
d="M12 -33h74v693h-74v114h230v-921h-230v114z" />
    <glyph glyph-name="braceleft.tab" horiz-adv-x="277" 
d="M266 -146q-134 0 -186 54.5t-27 171.5l20 97q8 37 -7 58.5t-57 25.5v109q42 4 57 25.5t7 57.5l-20 96q-26 120 27 173t186 52v-114q-42 -3 -57.5 -22t-6.5 -69l19 -106q11 -59 -13 -93t-82 -53q59 -18 82.5 -52.5t12.5 -93.5l-19 -107q-10 -52 6 -72t58 -24v-114v0z" />
    <glyph glyph-name="braceright.tab" horiz-adv-x="277" 
d="M12 -32q41 4 57 24t6 72l-19 107q-11 59 13 93.5t82 52.5q-57 19 -81.5 53t-13.5 93l19 106q9 50 -6.5 69t-56.5 22v114q132 1 185 -52t28 -173l-21 -96q-8 -36 7 -57.5t56 -25.5v-109q-41 -4 -55.5 -25.5t-7.5 -58.5l21 -97q24 -117 -28 -171.5t-185 -54.5v114z" />
    <glyph glyph-name="one.sup" horiz-adv-x="281" 
d="M100 646l-79 -48v108l97 67h113v-384h-131v257z" />
    <glyph glyph-name="two.sup" horiz-adv-x="348" 
d="M326 389h-319v16l122 133q32 35 50.5 60.5t18.5 49.5v1q0 34 -31 34q-32 0 -38 -54h-118q2 76 45 113t118 37q77 0 113.5 -33.5t36.5 -87.5v-1q0 -41 -21.5 -73t-54.5 -66l-37 -35h115v-94z" />
    <glyph glyph-name="three.sup" horiz-adv-x="366" 
d="M342 503q0 -54 -39.5 -87.5t-119.5 -33.5q-86 0 -124 36.5t-40 98.5h114q3 -44 42 -44q37 0 37 35v2q0 18 -10.5 27t-35.5 9h-27v74h27q46 0 46 36q0 32 -32 32q-17 0 -27 -9.5t-12 -31.5h-115q4 61 42.5 96.5t114.5 35.5q72 0 111.5 -27.5t39.5 -79.5v-1q0 -64 -68 -81
q33 -6 54.5 -27.5t21.5 -56.5v-3v0z" />
    <glyph glyph-name="space_uni0326.alt" horiz-adv-x="402" 
d="M116 579l94 181l98 -25l-38 -162z" />
    <glyph glyph-name="caron.alt" horiz-adv-x="389" 
d="M150 750h126l-45 -172h-89z" />
    <glyph glyph-name="questiondown.uc" horiz-adv-x="530" 
d="M289 725q21 0 39.5 -7.5t32 -20t21.5 -30t8 -36.5q0 -20 -8 -37.5t-21.5 -30.5t-32 -20.5t-39.5 -7.5q-43 0 -72 27.5t-29 68.5q0 19 8 36.5t21.5 30t32 20t39.5 7.5zM512 214q-4 -110 -71.5 -167t-180.5 -57q-112 0 -172 47.5t-60 138.5q0 50 20.5 85t52.5 70
q18 19 36 36t33 33.5t25 34t12 36.5v13h163v-21q0 -28 -7.5 -51t-20 -43t-28.5 -38t-34 -37q-26 -28 -45.5 -50.5t-19.5 -54.5q0 -28 13 -42.5t44 -14.5q29 0 47.5 20.5t23.5 61.5h169z" />
    <glyph glyph-name="exclamdown.uc" horiz-adv-x="317" 
d="M158 725q21 0 39.5 -7.5t32 -20t21.5 -30t8 -36.5q0 -20 -8 -37.5t-21.5 -30t-32 -20t-39.5 -7.5t-39.5 7.5t-32 20t-21 30t-7.5 37.5q0 19 7.5 36.5t21 30t32 20t39.5 7.5zM255 0h-195l26 484h143z" />
    <glyph glyph-name="hyphen.uc" horiz-adv-x="382" 
d="M48 397h286v-136h-286v136z" />
    <glyph glyph-name="endash.uc" horiz-adv-x="520" 
d="M41 382h438v-104h-438v104z" />
    <glyph glyph-name="emdash.uc" horiz-adv-x="926" 
d="M41 382h843v-104h-843v104z" />
    <glyph glyph-name="guilsinglleft.uc" horiz-adv-x="291" 
d="M29 302l116 189h118l-112 -189l112 -188h-118z" />
    <glyph glyph-name="guilsinglright.uc" horiz-adv-x="291" 
d="M141 302l-113 189h118l116 -189l-116 -188h-118z" />
    <glyph glyph-name="guillemotleft.uc" horiz-adv-x="459" 
d="M29 302l116 189h112l-112 -189l112 -188h-112zM202 302l116 189h113l-112 -189l112 -188h-113z" />
    <glyph glyph-name="guillemotright.uc" horiz-adv-x="459" 
d="M141 302l-113 189h113l116 -189l-116 -188h-113zM314 302l-113 189h113l116 -189l-116 -188h-113z" />
    <glyph glyph-name="parenleft.uc" horiz-adv-x="341" 
d="M195 -99q-27 34 -55 78t-51 98.5t-37.5 121t-14.5 144.5t14.5 144t37.5 121t51 98.5t55 78.5h134q-23 -38 -45.5 -84.5t-40.5 -102t-29 -119.5t-11 -136t11 -136t29 -119.5t40.5 -102.5t45.5 -84h-134v0z" />
    <glyph glyph-name="parenright.uc" horiz-adv-x="341" 
d="M12 -99q23 37 45.5 84t40.5 102.5t29 119.5t11 136t-11 136t-29 119.5t-40.5 102t-45.5 84.5h133q27 -35 55.5 -78.5t51 -98.5t37 -121t14.5 -144t-14.5 -144t-37 -121t-51 -99t-55.5 -78h-133v0z" />
    <glyph glyph-name="bracketleft.uc" horiz-adv-x="385" 
d="M62 783h289v-126h-117v-623h117v-126h-289v875z" />
    <glyph glyph-name="bracketright.uc" horiz-adv-x="385" 
d="M35 34h116v623h-116v126h289v-875h-289v126z" />
    <glyph glyph-name="braceleft.uc" horiz-adv-x="395" 
d="M361 -92q-145 -1 -209 51t-45 167l14 77q6 38 -15.5 60.5t-76.5 22.5v121q55 0 76.5 22t15.5 60l-14 75q-10 59 1.5 100.5t43.5 68t84.5 38.5t124.5 12v-126q-53 -2 -73 -20t-12 -67l12 -90q7 -54 -21 -87t-81 -46q54 -12 81.5 -44.5t20.5 -86.5l-12 -92q-8 -50 12 -69.5
t73 -22.5v-124v0z" />
    <glyph glyph-name="braceright.uc" horiz-adv-x="395" 
d="M34 32q53 3 73 22.5t13 69.5l-13 92q-7 54 21 86.5t82 44.5q-54 13 -82 46t-21 87l13 90q7 49 -13 67t-73 20v126q72 0 124.5 -12t84.5 -38.5t43.5 -68t1.5 -100.5l-14 -75q-6 -38 15.5 -60t76.5 -22v-121q-55 0 -76.5 -22.5t-15.5 -60.5l14 -77q19 -115 -45 -167
t-209 -51v124z" />
    <glyph glyph-name="slash.uc" horiz-adv-x="421" 
d="M283 774h137l-283 -854h-138z" />
    <glyph glyph-name="backslash.uc" horiz-adv-x="421" 
d="M0 774h138l283 -854h-137z" />
    <glyph glyph-name="bar.uc" horiz-adv-x="254" 
d="M66 774h122v-854h-122v854z" />
    <glyph glyph-name="at.uc" horiz-adv-x="868" 
d="M435 -76q-95 0 -169.5 30t-127 82.5t-80 123.5t-27.5 153v28q0 93 34 170t91.5 132t133.5 85.5t160 30.5q85 0 156 -25.5t122.5 -72t80 -112t28.5 -144.5v-21q0 -69 -15.5 -117t-42.5 -79t-63 -45t-77 -14q-63 0 -97.5 20.5t-45.5 59.5q-17 -37 -48 -59.5t-78 -22.5
q-34 0 -62.5 12.5t-49 35.5t-31 57t-8.5 77l2 27q2 47 16 86t37.5 66.5t55 42.5t68.5 15q45 0 69.5 -17t35.5 -42l7 51h141l-31 -271q-5 -31 5 -49.5t38 -18.5q39 0 67.5 44t28.5 142v22q0 64 -21 116t-60.5 89.5t-96.5 58t-129 20.5q-73 0 -135.5 -25t-108 -71t-71 -111
t-25.5 -145v-27q0 -68 20.5 -126.5t61 -102t101.5 -68t143 -24.5q45 0 82 7.5t67 20t53 28t39 31.5h88q-22 -34 -55 -62t-75.5 -48.5t-93.5 -32t-108 -11.5zM416 241q31 0 49.5 29t20.5 73l2 27q2 32 -13 48.5t-42 16.5q-30 0 -48 -28t-20 -71l-2 -24q-1 -31 12.5 -51
t40.5 -20z" />
    <glyph glyph-name="grave.uc" horiz-adv-x="402" 
d="M50 901h181l46 -144h-132z" />
    <glyph glyph-name="dieresis.uc" horiz-adv-x="402" 
d="M94 754q-35 0 -59.5 23.5t-24.5 58.5q0 34 24.5 57.5t59.5 23.5t60 -23.5t25 -57.5q0 -35 -25 -58.5t-60 -23.5zM307 754q-35 0 -59 23.5t-24 58.5q0 34 24 57.5t59 23.5q36 0 60.5 -23.5t24.5 -57.5q0 -35 -24.5 -58.5t-60.5 -23.5z" />
    <glyph glyph-name="macron.uc" horiz-adv-x="402" 
d="M45 874h311v-106h-311v106z" />
    <glyph glyph-name="acute.uc" horiz-adv-x="402" 
d="M174 901h180l-97 -144h-132z" />
    <glyph glyph-name="circumflex.uc" horiz-adv-x="402" 
d="M130 902h146l105 -145h-124l-57 49l-58 -49h-121z" />
    <glyph glyph-name="caron.uc" horiz-adv-x="402" 
d="M20 902h124l57 -50l58 50h121l-109 -145h-146z" />
    <glyph glyph-name="breve.uc" horiz-adv-x="402" 
d="M200 750q-71 0 -113 39.5t-47 111.5h111q2 -21 14.5 -33t34.5 -12t35.5 12.5t15.5 32.5h111q-5 -72 -48.5 -111.5t-113.5 -39.5z" />
    <glyph glyph-name="dotaccent.uc" horiz-adv-x="402" 
d="M201 754q-40 0 -66.5 24.5t-26.5 62.5q0 37 26.5 62t66.5 25q39 0 65.5 -25t26.5 -62q0 -38 -26.5 -62.5t-65.5 -24.5z" />
    <glyph glyph-name="ring.uc" horiz-adv-x="402" 
d="M201 741q-24 0 -45.5 9t-37.5 24.5t-25 36t-9 43.5t9 43.5t25 36t37.5 24.5t45.5 9t45.5 -9t37.5 -24.5t25 -36t9 -43.5t-9 -43.5t-25 -36t-37.5 -24.5t-45.5 -9zM201 804q20 0 33 14t13 36t-13 35.5t-33 13.5t-32.5 -13.5t-12.5 -35.5t12.5 -36t32.5 -14z" />
    <glyph glyph-name="tilde.uc" horiz-adv-x="402" 
d="M266 756q-21 0 -38 5.5t-31.5 11.5t-26.5 11.5t-23 5.5q-12 0 -20 -9.5t-11 -23.5h-97q5 79 38.5 115.5t78.5 36.5q20 0 36.5 -5t31.5 -11.5t28 -11.5t25 -5q24 0 30 33h97q-3 -41 -13.5 -69.5t-26.5 -47.5t-36 -27.5t-42 -8.5z" />
    <glyph glyph-name="hungarumlaut.uc" horiz-adv-x="402" 
d="M81 901h149l-69 -144h-116zM268 901h149l-69 -144h-117z" />
    <glyph glyph-name="f.short" horiz-adv-x="351" 
d="M75 405h-61v118h61v51q0 47 14 81t39.5 56.5t60.5 33.5t77 11q26 0 44 -2.5t30 -6.5v-126q-7 2 -16 4t-23 2q-54 0 -54 -56v-48h94v-118h-94v-405h-172v405z" />
    <glyph glyph-name="f_f.short" horiz-adv-x="658" 
d="M381 405h-134v-405h-172v405h-61v118h61v45q0 46 14 80.5t39 56.5t60 33t76 11q27 0 44.5 -2.5t30.5 -6.5v-126q-8 2 -17 4t-22 2q-53 0 -53 -55v-42h134v51q0 47 14 81t39 56.5t60 33.5t77 11q26 0 44 -2.5t32 -6.5v-126q-8 2 -17 4t-23 2q-54 0 -54 -56v-48h94v-118
h-94v-405h-172v405z" />
    <glyph glyph-name="Gcommaaccent.alt1" horiz-adv-x="722" 
d="M684 284q0 -68 -19.5 -122.5t-59 -93t-98.5 -59.5t-138 -21q-81 0 -143 23.5t-104.5 66t-64.5 103.5t-22 136v80q0 76 25.5 137t70 103.5t105.5 65t132 22.5q59 0 111.5 -13.5t93 -43.5t66.5 -77.5t31 -115.5h-193q-8 51 -34 74t-74 23q-60 0 -96 -45.5t-36 -128.5v-85
q0 -38 7.5 -70.5t24 -55.5t42.5 -36t64 -13q62 0 90 32.5t30 84.5h-116v137h305v-108zM298 -171q29 2 46.5 10.5t19.5 25.5q-71 -3 -71 52q0 23 19 37.5t49 14.5q35 0 56 -18t21 -54v-6q0 -50 -34 -78.5t-106 -30.5v47z" />
    <glyph glyph-name="Kcommaaccent.alt1" horiz-adv-x="674" 
d="M257 308v-308h-195v715h195v-288l194 288h201l-231 -329l243 -386h-220zM280 -171q29 2 46.5 10.5t19.5 25.5q-71 -3 -71 52q0 23 19 37.5t49 14.5q35 0 56 -18t21 -54v-6q0 -50 -34 -78.5t-106 -30.5v47z" />
    <glyph glyph-name="Lcommaaccent.alt1" horiz-adv-x="534" 
d="M61 715h196v-563h246v-152h-442v715zM219 -171q29 2 46.5 10.5t19.5 25.5q-71 -3 -71 52q0 23 19 37.5t49 14.5q35 0 56 -18t21 -54v-6q0 -50 -34 -78.5t-106 -30.5v47z" />
    <glyph glyph-name="Ncommaaccent.alt1" horiz-adv-x="716" 
d="M62 715h218l201 -397v397h173v-715h-189l-230 449v-449h-173v715zM283 -171q29 2 46.5 10.5t19.5 25.5q-71 -3 -71 52q0 23 19 37.5t49 14.5q35 0 56 -18t21 -54v-6q0 -50 -34 -78.5t-106 -30.5v47z" />
    <glyph glyph-name="Rcommaaccent.alt1" horiz-adv-x="647" 
d="M62 715h282q276 0 276 -218v-18q0 -37 -8.5 -65t-23.5 -49t-36 -36.5t-46 -25.5l150 -303h-204l-127 266h-69v-266h-194v715zM334 392q48 0 72.5 19t24.5 63v16q0 42 -24 59.5t-72 17.5h-79v-175h78zM264 -171q29 2 46.5 10.5t19.5 25.5q-71 -3 -71 52q0 23 19 37.5
t49 14.5q35 0 56 -18t21 -54v-6q0 -50 -34 -78.5t-106 -30.5v47z" />
    <glyph glyph-name="Scommaaccent.alt1" horiz-adv-x="610" 
d="M580 219q0 -50 -17.5 -92t-52 -73t-85 -48.5t-116.5 -17.5q-134 0 -206.5 57t-77.5 176h187q4 -45 25 -68t72 -23q40 0 60.5 19t20.5 50q0 38 -26 53t-89 26q-63 13 -107 31.5t-72.5 45.5t-41.5 64.5t-13 88.5q0 49 18 89t51.5 68.5t81.5 44t109 15.5q121 0 187.5 -52.5
t74.5 -163.5h-182q-5 40 -25 57.5t-56 17.5q-73 0 -73 -62q0 -16 5 -27.5t17 -20t32.5 -15t51.5 -12.5q56 -11 101.5 -26t78 -40.5t50 -64.5t17.5 -97zM238 -171q29 2 46.5 10.5t19.5 25.5q-71 -3 -71 52q0 23 19 37.5t49 14.5q35 0 56 -18t21 -54v-6q0 -50 -34 -78.5
t-106 -30.5v47z" />
    <glyph glyph-name="Tcommaaccent.alt1" horiz-adv-x="579" 
d="M191 564h-170v151h537v-151h-171v-564h-196v564zM222 -171q29 2 46.5 10.5t19.5 25.5q-71 -3 -71 52q0 23 19 37.5t49 14.5q35 0 56 -18t21 -54v-6q0 -50 -34 -78.5t-106 -30.5v47z" />
    <glyph glyph-name="A.trap" horiz-adv-x="683" 
d="M433 136h-207l-34 -136h-180l199 715h261l199 -715h-204zM260 270h139l-56 225l-14 65l-13 -65z" />
    <glyph glyph-name="M.trap" horiz-adv-x="865" 
d="M233 0h-171v715h248l107 -310l15 -55l16 55l107 310h247v-715h-193v446l-23 -73l-135 -373h-62l-132 372l-24 74v-446z" />
    <glyph glyph-name="N.trap" horiz-adv-x="716" 
d="M235 0h-173v715h218l171 -331l30 -65v396h173v-715h-189l-201 387l-29 61v-448z" />
    <glyph glyph-name="V.trap" horiz-adv-x="665" 
d="M164 715h196v-1l203 -146l-132 -536l-188 8z" />
    <glyph glyph-name="W.trap" horiz-adv-x="920" 
d="M13 715h196l70 -369l12 -75l13 75l81 369h155l86 -369l16 -78l13 78l72 369h180l-156 -715h-186l-86 359l-13 64l-14 -64l-87 -359h-198z" />
    <glyph glyph-name="a.alt" horiz-adv-x="590" 
d="M541 0h-171v84q-18 -39 -55 -67t-94 -28q-39 0 -74 15t-61.5 45t-42 76t-15.5 108v55q0 62 15.5 108.5t42.5 77.5t62.5 46.5t75.5 15.5q57 0 92 -24t54 -63v74h171v-523zM312 165q13 0 24 12.5t19 30.5t13 39t5 38q0 26 -5.5 38t-20.5 12q-14 35 -36 44t-47 -15
q-13 0 -24.5 -13.5t-20 -33t-13.5 -41.5t-5 -40q0 -21 5 -32t19 -11q14 -35 37.5 -44.5t49.5 16.5z" />
    <glyph glyph-name="agrave.alt" horiz-adv-x="590" 
d="M141 744h176l50 -166h-126zM541 0h-171v84q-18 -39 -55 -67t-94 -28q-39 0 -74 15t-61.5 45t-42 76t-15.5 108v55q0 62 15.5 108.5t42.5 77.5t62.5 46.5t75.5 15.5q57 0 92 -24t54 -63v74h171v-523zM312 165q13 0 24 12.5t19 30.5t13 39t5 38q0 26 -5.5 38t-20.5 12
q-14 35 -36 44t-47 -15q-13 0 -24.5 -13.5t-20 -33t-13.5 -41.5t-5 -40q0 -21 5 -32t19 -11q14 -35 37.5 -44.5t49.5 16.5z" />
    <glyph glyph-name="aacute.alt" horiz-adv-x="590" 
d="M281 744h175l-100 -166h-125zM541 0h-171v84q-18 -39 -55 -67t-94 -28q-39 0 -74 15t-61.5 45t-42 76t-15.5 108v55q0 62 15.5 108.5t42.5 77.5t62.5 46.5t75.5 15.5q57 0 92 -24t54 -63v74h171v-523zM312 165q13 0 24 12.5t19 30.5t13 39t5 38q0 26 -5.5 38t-20.5 12
q-14 35 -36 44t-47 -15q-13 0 -24.5 -13.5t-20 -33t-13.5 -41.5t-5 -40q0 -21 5 -32t19 -11q14 -35 37.5 -44.5t49.5 16.5z" />
    <glyph glyph-name="acircumflex.alt" horiz-adv-x="590" 
d="M237 742h128l110 -163h-120l-57 56l-59 -56h-117zM541 0h-171v84q-18 -39 -55 -67t-94 -28q-39 0 -74 15t-61.5 45t-42 76t-15.5 108v55q0 62 15.5 108.5t42.5 77.5t62.5 46.5t75.5 15.5q57 0 92 -24t54 -63v74h171v-523zM312 165q13 0 24 12.5t19 30.5t13 39t5 38
q0 26 -5.5 38t-20.5 12q-14 35 -36 44t-47 -15q-13 0 -24.5 -13.5t-20 -33t-13.5 -41.5t-5 -40q0 -21 5 -32t19 -11q14 -35 37.5 -44.5t49.5 16.5z" />
    <glyph glyph-name="atilde.alt" horiz-adv-x="590" 
d="M361 579q-21 0 -37 5t-29.5 11.5t-25 11.5t-22.5 5t-19.5 -9t-10.5 -24h-93q5 81 35 118t75 37q19 0 35.5 -5t30.5 -11.5t26 -11.5t24 -5q25 0 31 33h92q-5 -81 -37 -118t-75 -37zM541 0h-171v84q-18 -39 -55 -67t-94 -28q-39 0 -74 15t-61.5 45t-42 76t-15.5 108v55
q0 62 15.5 108.5t42.5 77.5t62.5 46.5t75.5 15.5q57 0 92 -24t54 -63v74h171v-523zM312 165q13 0 24 12.5t19 30.5t13 39t5 38q0 26 -5.5 38t-20.5 12q-14 35 -36 44t-47 -15q-13 0 -24.5 -13.5t-20 -33t-13.5 -41.5t-5 -40q0 -21 5 -32t19 -11q14 -35 37.5 -44.5t49.5 16.5
z" />
    <glyph glyph-name="adieresis.alt" horiz-adv-x="590" 
d="M196 573q-36 0 -60.5 24t-24.5 59t24.5 59t60.5 24q18 0 33.5 -6.5t27 -18t18 -26.5t6.5 -32t-6.5 -32.5t-18 -26.5t-27 -17.5t-33.5 -6.5zM402 573q-18 0 -33 6.5t-26.5 17.5t-18 26.5t-6.5 32.5t6.5 32t18 26.5t26.5 18t33 6.5q36 0 61 -24t25 -59t-25 -59t-61 -24z
M541 0h-171v84q-18 -39 -55 -67t-94 -28q-39 0 -74 15t-61.5 45t-42 76t-15.5 108v55q0 62 15.5 108.5t42.5 77.5t62.5 46.5t75.5 15.5q57 0 92 -24t54 -63v74h171v-523zM312 165q13 0 24 12.5t19 30.5t13 39t5 38q0 26 -5.5 38t-20.5 12q-14 35 -36 44t-47 -15
q-13 0 -24.5 -13.5t-20 -33t-13.5 -41.5t-5 -40q0 -21 5 -32t19 -11q14 -35 37.5 -44.5t49.5 16.5z" />
    <glyph glyph-name="aring.alt" horiz-adv-x="590" 
d="M298 573q-24 0 -45.5 9t-37 24t-24.5 35.5t-9 43.5t9 43.5t24.5 36t37 24.5t45.5 9t45.5 -9t37 -24.5t24.5 -36t9 -43.5t-9 -43.5t-24.5 -35.5t-37 -24t-45.5 -9zM298 637q20 0 32.5 13.5t12.5 34.5q0 22 -12.5 35.5t-32.5 13.5t-32.5 -13.5t-12.5 -35.5
q0 -21 12.5 -34.5t32.5 -13.5zM541 0h-171v84q-18 -39 -55 -67t-94 -28q-39 0 -74 15t-61.5 45t-42 76t-15.5 108v55q0 62 15.5 108.5t42.5 77.5t62.5 46.5t75.5 15.5q57 0 92 -24t54 -63v74h171v-523zM312 165q13 0 24 12.5t19 30.5t13 39t5 38q0 26 -5.5 38t-20.5 12
q-14 35 -36 44t-47 -15q-13 0 -24.5 -13.5t-20 -33t-13.5 -41.5t-5 -40q0 -21 5 -32t19 -11q14 -35 37.5 -44.5t49.5 16.5z" />
    <glyph glyph-name="amacron.alt" horiz-adv-x="590" 
d="M150 703h297v-100h-297v100zM541 0h-171v84q-18 -39 -55 -67t-94 -28q-39 0 -74 15t-61.5 45t-42 76t-15.5 108v55q0 62 15.5 108.5t42.5 77.5t62.5 46.5t75.5 15.5q57 0 92 -24t54 -63v74h171v-523zM312 165q13 0 24 12.5t19 30.5t13 39t5 38q0 26 -5.5 38t-20.5 12
q-14 35 -36 44t-47 -15q-13 0 -24.5 -13.5t-20 -33t-13.5 -41.5t-5 -40q0 -21 5 -32t19 -11q14 -35 37.5 -44.5t49.5 16.5z" />
    <glyph glyph-name="abreve.alt" horiz-adv-x="590" 
d="M298 580q-69 0 -111 40t-45 119h106q2 -23 14.5 -36.5t35.5 -13.5t36.5 13.5t15.5 36.5h106q-4 -79 -47.5 -119t-110.5 -40zM541 0h-171v84q-18 -39 -55 -67t-94 -28q-39 0 -74 15t-61.5 45t-42 76t-15.5 108v55q0 62 15.5 108.5t42.5 77.5t62.5 46.5t75.5 15.5
q57 0 92 -24t54 -63v74h171v-523zM312 165q13 0 24 12.5t19 30.5t13 39t5 38q0 26 -5.5 38t-20.5 12q-14 35 -36 44t-47 -15q-13 0 -24.5 -13.5t-20 -33t-13.5 -41.5t-5 -40q0 -21 5 -32t19 -11q14 -35 37.5 -44.5t49.5 16.5z" />
    <glyph glyph-name="aogonek.alt" horiz-adv-x="590" 
d="M348 -103q0 38 26 63t57 40h-61v84q-18 -39 -55 -67t-94 -28q-39 0 -74 15t-61.5 45t-42 76t-15.5 108v55q0 62 15.5 108.5t42.5 77.5t62.5 46.5t75.5 15.5q57 0 92 -24t54 -63v74h171v-523h-11q-20 -17 -30.5 -31t-10.5 -30q0 -28 31 -28q15 0 27 4v-81q-13 -6 -35 -11
t-51 -5q-48 0 -80.5 20.5t-32.5 58.5zM312 165q13 0 24 12.5t19 30.5t13 39t5 38q0 26 -5.5 38t-20.5 12q-14 35 -36 44t-47 -15q-13 0 -24.5 -13.5t-20 -33t-13.5 -41.5t-5 -40q0 -21 5 -32t19 -11q14 -35 37.5 -44.5t49.5 16.5z" />
    <glyph glyph-name="aringacute.alt" horiz-adv-x="590" 
d="M282 963h180l-97 -144h-132zM298 568q-24 0 -45.5 9t-37 24t-24.5 35.5t-9 43.5t9 43.5t24.5 36t37 24.5t45.5 9t45.5 -9t37 -24.5t24.5 -36t9 -43.5t-9 -43.5t-24.5 -35.5t-37 -24t-45.5 -9zM298 632q20 0 32.5 13.5t12.5 34.5q0 22 -12.5 35.5t-32.5 13.5t-32.5 -13.5
t-12.5 -35.5q0 -21 12.5 -34.5t32.5 -13.5zM541 0h-171v84q-18 -39 -55 -67t-94 -28q-39 0 -74 15t-61.5 45t-42 76t-15.5 108v55q0 62 15.5 108.5t42.5 77.5t62.5 46.5t75.5 15.5q57 0 92 -24t54 -63v74h171v-523zM312 165q13 0 24 12.5t19 30.5t13 39t5 38q0 26 -5.5 38
t-20.5 12q-14 35 -36 44t-47 -15q-13 0 -24.5 -13.5t-20 -33t-13.5 -41.5t-5 -40q0 -21 5 -32t19 -11q14 -35 37.5 -44.5t49.5 16.5z" />
    <glyph glyph-name="t.alt" horiz-adv-x="359" 
d="M254 630v-107h89v-118h-89v-405h-174v405h-66v118h66v107h174z" />
    <glyph glyph-name="tcommaaccent.alt" horiz-adv-x="359" 
d="M254 630v-107h89v-118h-89v-405h-174v405h-66v118h66v107h174zM56 -199l38 163l155 -6l-94 -182z" />
    <glyph glyph-name="tcaron.alt" horiz-adv-x="359" 
d="M300 750h126l-45 -172h-89zM254 630v-107h89v-118h-89v-405h-174v405h-66v118h66v107h174z" />
    <glyph glyph-name="germandbls.alt" horiz-adv-x="654" 
d="M524 329q22 -14 42.5 -30t36 -35.5t24.5 -45t9 -58.5q0 -42 -14.5 -73.5t-40 -52.5t-61 -32t-77.5 -11q-98 0 -143.5 44t-47.5 118h142q3 -50 43 -50q37 0 37 41q0 14 -6.5 24.5t-17.5 19.5t-27.5 18t-36.5 21t-40 25.5t-36 30t-25.5 37t-9.5 47.5q0 34 17 61.5
t37.5 51.5t37.5 45.5t17 45.5q0 30 -20 45.5t-55 15.5q-40 0 -64 -23.5t-24 -70.5v-538h-174v536q0 54 19.5 95.5t54 70.5t83 44t107.5 15q54 0 98.5 -11t76.5 -32.5t49.5 -53t17.5 -71.5q0 -42 -18 -71.5t-39 -51.5t-39 -38t-18 -32q0 -8 4.5 -14.5t14 -14t26 -17.5
t40.5 -25z" />
    <glyph glyph-name="tbar.alt" horiz-adv-x="359" 
d="M254 239v-239h-174v239h-66v97h66v69h-66v118h66v107h174v-107h89v-118h-89v-69h90v-97h-90z" />
    <glyph glyph-name="gcommaaccent.alt1" horiz-adv-x="595" 
d="M292 573q-35 0 -55.5 17.5t-20.5 53.5v6q0 51 34 79.5t106 30.5v-47q-30 -2 -47 -10.5t-19 -25.5q34 2 52.5 -12t18.5 -40q0 -24 -19.5 -38t-49.5 -14zM565 36q0 -115 -72 -171t-207 -56q-128 0 -191 49.5t-71 136.5h181q2 -11 7 -21.5t14.5 -18.5t24 -13t36.5 -5
q51 0 72.5 26t21.5 69v85q-18 -38 -56 -64.5t-98 -26.5q-41 0 -77.5 14.5t-64 44t-43.5 73t-16 101.5v41q0 57 16 101t43.5 74t65 45.5t79.5 15.5q58 0 94.5 -23.5t56.5 -64.5v75h184v-487zM298 155q41 0 64 27.5t23 76.5v39q0 49 -22.5 76.5t-63.5 27.5q-42 0 -65 -26.5
t-23 -76.5v-43q0 -48 22.5 -74.5t64.5 -26.5z" />
    <glyph glyph-name="kcommaaccent.alt1" horiz-adv-x="542" 
d="M230 222v-222h-184v748h184v-428l127 203h189l-157 -236l166 -287h-202zM207 -171q29 2 46.5 10.5t19.5 25.5q-71 -3 -71 52q0 23 19 37.5t49 14.5q35 0 56 -18t21 -54v-6q0 -50 -34 -78.5t-106 -30.5v47z" />
    <glyph glyph-name="lcommaaccent.alt1" horiz-adv-x="274" 
d="M50 748h183v-748h-183v748zM72 -171q29 2 46.5 10.5t19.5 25.5q-71 -3 -71 52q0 23 19 37.5t49 14.5q35 0 56 -18t21 -54v-6q0 -50 -34 -78.5t-106 -30.5v47z" />
    <glyph glyph-name="ncommaaccent.alt1" horiz-adv-x="579" 
d="M46 523h184v-83q20 42 61 69t103 27q71 0 115 -46t44 -139v-351h-184v312q0 78 -64 78q-32 0 -53.5 -20t-21.5 -67v-303h-184v523zM225 -171q29 2 46.5 10.5t19.5 25.5q-71 -3 -71 52q0 23 19 37.5t49 14.5q35 0 56 -18t21 -54v-6q0 -50 -34 -78.5t-106 -30.5v47z" />
    <glyph glyph-name="rcommaaccent.alt1" horiz-adv-x="400" 
d="M46 523h184v-104q23 60 64.5 86t102.5 24v-176q-167 7 -167 -103v-250h-184v523zM66 -171q29 2 46.5 10.5t19.5 25.5q-71 -3 -71 52q0 23 19 37.5t49 14.5q35 0 56 -18t21 -54v-6q0 -50 -34 -78.5t-106 -30.5v47z" />
    <glyph glyph-name="scommaaccent.alt1" horiz-adv-x="492" 
d="M484 168q0 -47 -16.5 -80.5t-46.5 -56t-73 -33t-96 -10.5q-110 0 -170.5 45.5t-63.5 134.5h169q5 -29 18.5 -45t45.5 -16q27 0 40.5 11.5t13.5 29.5q0 24 -23 33t-74 17q-48 8 -82.5 20t-57 31t-33.5 47t-11 69q0 42 17 74t47 53.5t70 32.5t87 11q99 0 158.5 -38
t67.5 -131h-166q-5 26 -19 39t-40 13t-39 -11t-13 -28q0 -22 20.5 -30.5t66.5 -15.5q51 -9 89 -20.5t63.5 -30.5t38 -47t12.5 -68zM176 -171q29 2 46.5 10.5t19.5 25.5q-71 -3 -71 52q0 23 19 37.5t49 14.5q35 0 56 -18t21 -54v-6q0 -50 -34 -78.5t-106 -30.5v47z" />
    <glyph glyph-name="tcommaaccent.alt1" horiz-adv-x="370" 
d="M261 630v-107h118v-124h-118v-213q0 -52 62 -52q19 0 34 1.5t27 6.5v-138q-17 -5 -45.5 -9.5t-63.5 -4.5q-99 0 -149 42t-50 136v231h-63v124h63v107h185zM143 -171q29 2 46.5 10.5t19.5 25.5q-71 -3 -71 52q0 23 19 37.5t49 14.5q35 0 56 -18t21 -54v-6q0 -50 -34 -78.5
t-106 -30.5v47z" />
    <glyph glyph-name="tcommaaccent.altalt1" horiz-adv-x="359" 
d="M254 630v-107h89v-118h-89v-405h-174v405h-66v118h66v107h174zM103 -171q29 2 46.5 10.5t19.5 25.5q-71 -3 -71 52q0 23 19 37.5t49 14.5q35 0 56 -18t21 -54v-6q0 -50 -34 -78.5t-106 -30.5v47z" />
    <glyph glyph-name="v.trap" horiz-adv-x="557" 
d="M8 523h183l84 -276l14 -65l14 65l82 276h163l-174 -523h-190z" />
    <glyph glyph-name="w.trap" horiz-adv-x="792" 
d="M8 523h179l60 -261l8 -42l9 43l69 260h142l63 -261l9 -42l9 42l66 261h161l-150 -523h-166l-64 256l-9 35l-7 -35l-67 -256h-169z" />
    <glyph glyph-name="y.trap" horiz-adv-x="550" 
d="M199 45l-191 478h185l83 -238l13 -41l13 41l77 238h163l-255 -698h-166z" />
    <glyph glyph-name="zero.old" horiz-adv-x="627" 
d="M312 -12q-63 0 -115.5 18.5t-90 54.5t-58 89t-20.5 122v70q0 69 21.5 122.5t60 89.5t90.5 55t114 19q61 0 113 -18t90 -53t60 -88.5t22 -123.5v-67q0 -70 -21 -124t-59 -91t-91 -56t-116 -19zM314 129q51 0 75 37t24 109v69q0 70 -24 106.5t-75 36.5q-101 0 -101 -143
v-69q0 -146 101 -146z" />
    <glyph glyph-name="one.old" horiz-adv-x="406" 
d="M149 433l-121 -75v155l147 104h158v-617h-184v433z" />
    <glyph glyph-name="two.old" horiz-adv-x="553" 
d="M11 25l198 202q56 58 91 104t35 90v3q0 30 -16.5 46.5t-48.5 16.5q-67 0 -79 -91v-3h-167v1q5 110 71.5 172t185.5 62q115 0 176.5 -52t61.5 -138v-6q0 -60 -37.5 -114.5t-95.5 -113.5l-74 -68h212v-136h-513v25z" />
    <glyph glyph-name="three.old" horiz-adv-x="578" 
d="M291 -103q-68 0 -117.5 16t-82.5 46t-50 73t-20 96v2h169v-3q4 -43 25 -67.5t68 -24.5q42 0 63 21.5t21 59.5v14q0 83 -95 83h-52v118h49q49 0 71 21.5t22 57.5v9q0 34 -19 53t-53 19q-37 0 -59 -22t-27 -64v-2h-167v2q3 49 20.5 90t50 70.5t79.5 46t109 16.5
q113 0 176 -51t63 -140v-8q0 -58 -31 -95t-87 -54q60 -14 97 -52t37 -108v-15q0 -45 -16.5 -83.5t-49 -66t-81.5 -43t-113 -15.5z" />
    <glyph glyph-name="four.old" horiz-adv-x="626" 
d="M338 46h-324v61l275 510h231v-447h85v-124h-85v-138h-182v138zM342 170v301l-157 -301h157z" />
    <glyph glyph-name="five.old" horiz-adv-x="574" 
d="M281 -103q-64 0 -112 16.5t-80.5 45.5t-49 69t-17.5 87v2h170v-3q5 -33 23.5 -55t63.5 -22q41 0 62.5 27t21.5 69v17q0 48 -27 73t-70 25q-39 0 -65 -15t-42 -36h-111l15 419h447v-144h-311l-5 -166q21 29 59 49t97 20q42 0 78 -14t62.5 -41.5t41 -68.5t14.5 -95v-23
q0 -54 -17.5 -97.5t-51.5 -74.5t-83.5 -47.5t-112.5 -16.5z" />
    <glyph glyph-name="six.old" horiz-adv-x="605" 
d="M313 -12q-74 0 -127.5 21.5t-88 61.5t-50.5 95t-16 123v107q0 79 21.5 139.5t60.5 101.5t92 62.5t116 21.5q111 0 173 -50t72 -150v-3h-174v3q-5 28 -21 44t-48 16q-51 0 -77.5 -43t-28.5 -140v-33q20 36 57 60t96 24q43 0 81 -13t66.5 -39t45 -65.5t16.5 -91.5v-23
q0 -53 -18.5 -95.5t-53 -72t-83.5 -45.5t-111 -16zM310 123q40 0 63.5 25.5t23.5 67.5v21q0 43 -22.5 68t-64.5 25q-38 0 -63 -24.5t-25 -67.5v-22q0 -40 23 -66.5t65 -26.5z" />
    <glyph glyph-name="seven.old" horiz-adv-x="533" 
d="M290 464h-269v153h503v-21l-239 -688h-193z" />
    <glyph glyph-name="eight.old" horiz-adv-x="596" 
d="M298 -12q-62 0 -112 13t-85.5 38.5t-55 63.5t-19.5 88v19q0 59 34 101t96 64q-46 19 -74.5 54.5t-28.5 89.5v8q0 48 19.5 84t53 60.5t78.5 37t96 12.5q52 0 97 -12.5t78 -37t51.5 -60.5t18.5 -83v-8q0 -55 -28.5 -90t-74.5 -54q61 -21 94 -62t33 -100v-18q0 -50 -19 -89
t-54.5 -65.5t-85.5 -40t-112 -13.5zM300 427q32 0 53.5 20t21.5 57v13q0 35 -21.5 55t-53.5 20t-54.5 -20t-22.5 -55v-13q0 -36 22.5 -56.5t54.5 -20.5zM299 122q39 0 63 22t24 63v23q0 38 -24 61.5t-62 23.5t-63.5 -22t-25.5 -64v-22q0 -41 24.5 -63t63.5 -22z" />
    <glyph glyph-name="nine.old" horiz-adv-x="605" 
d="M286 -105q-114 0 -178 53t-74 153v2h174v-3q6 -29 24.5 -47t54.5 -18q26 0 44.5 9.5t31 31t19 57t7.5 86.5v32q-21 -36 -57.5 -60t-94.5 -24q-44 0 -82 13t-67 38.5t-45.5 64t-16.5 89.5v24q0 54 18.5 97t53 73t84 46t111.5 16q75 0 128.5 -22t87 -62t49.5 -96.5
t16 -125.5v-105q0 -154 -75 -238t-213 -84zM295 286q39 0 63.5 25t24.5 67v23q0 40 -23 66t-65 26q-40 0 -63 -25.5t-23 -67.5v-21q0 -43 22 -68t64 -25z" />
    <glyph glyph-name="zero.oldtab" 
d="M274 -12q-118 0 -183.5 68t-65.5 196v114q0 63 18.5 112t52 82.5t79.5 50.5t101 17t101.5 -16t80 -48.5t52 -81t18.5 -113.5v-113q0 -129 -67.5 -198.5t-186.5 -69.5zM278 135q41 0 57 29t16 89v114q0 59 -17 88t-57 29q-41 0 -57.5 -29t-16.5 -89v-113q0 -61 17 -89.5
t58 -28.5z" />
    <glyph glyph-name="one.oldtab" 
d="M235 433l-163 -110v155l190 139h156v-617h-183v433z" />
    <glyph glyph-name="two.oldtab" 
d="M519 0h-503v25l198 202q55 58 86 104t31 88v4q0 64 -61 64q-62 0 -74 -91h-167q6 110 70.5 171t182.5 61q114 0 173.5 -52t59.5 -138v-6q0 -60 -36 -114t-93 -114l-74 -68h207v-136z" />
    <glyph glyph-name="three.oldtab" 
d="M529 108q0 -48 -17 -87t-49.5 -66.5t-80 -43t-109.5 -15.5q-66 0 -114 16.5t-79.5 47t-47.5 73t-17 94.5h168q2 -43 21.5 -67.5t64.5 -24.5q79 0 79 80v14q0 40 -21.5 62t-66.5 22h-49v118h47q44 0 65 21.5t21 58.5v8q0 33 -17.5 52.5t-51.5 19.5q-71 0 -80 -85h-165
q2 49 20 90t50.5 70t78 45.5t102.5 16.5q111 0 172 -50t61 -141v-8q0 -59 -30.5 -96.5t-83.5 -51.5q58 -12 93.5 -52t35.5 -106v-15v0z" />
    <glyph glyph-name="four.oldtab" 
d="M293 46h-283v59l236 512h221v-448h69v-123h-69v-138h-174v138zM296 169v294l-136 -294h136z" />
    <glyph glyph-name="five.oldtab" 
d="M522 140q0 -113 -64 -178t-188 -65q-123 0 -183 58t-62 160h164q4 -35 21 -57t58 -22q38 0 57.5 25.5t19.5 72.5v17q0 49 -24 73.5t-65 24.5q-35 0 -60 -14.5t-41 -36.5h-106l14 418h423v-143h-290l-5 -168q19 28 53.5 50.5t91.5 22.5q84 0 135 -56.5t51 -159.5v-22v0z
" />
    <glyph glyph-name="six.oldtab" 
d="M534 221q0 -54 -17 -97t-49 -73.5t-77 -46.5t-102 -16q-134 0 -198 77t-64 212v130q0 76 19.5 134.5t55.5 98t85.5 59.5t109.5 20q103 0 162 -47t66 -152h-164q-5 29 -19 46t-43 17q-48 0 -73.5 -43.5t-25.5 -142.5v-29q19 34 54.5 59t89.5 25q40 0 75 -12t60.5 -37
t40 -64t14.5 -92v-26zM287 124q37 0 59.5 24t22.5 66v26q0 45 -22 68.5t-60 23.5q-36 0 -60.5 -22.5t-24.5 -67.5v-24q0 -43 23.5 -68.5t61.5 -25.5z" />
    <glyph glyph-name="seven.oldtab" 
d="M291 464h-259v153h494v-21l-236 -688h-193z" />
    <glyph glyph-name="eight.oldtab" 
d="M277 -12q-58 0 -105 13t-80.5 38.5t-51.5 63.5t-18 88v19q0 59 31.5 101t90.5 64q-46 19 -71.5 54.5t-25.5 89.5v8q0 48 18 84t49 60.5t73.5 37t90.5 12.5q49 0 91.5 -12.5t73 -37t48 -60.5t17.5 -83v-8q0 -55 -25.5 -90t-69.5 -54q57 -21 87 -62t30 -100v-18
q0 -50 -17.5 -89t-50.5 -65.5t-80 -40t-105 -13.5zM278 427q31 0 51.5 20.5t20.5 56.5v13q0 35 -20.5 55t-51.5 20q-30 0 -51 -19.5t-21 -54.5v-14q0 -36 21.5 -56.5t50.5 -20.5zM277 122q37 0 59.5 21.5t22.5 62.5v23q0 39 -21.5 62.5t-59.5 23.5q-36 0 -59.5 -22.5
t-23.5 -64.5v-22q0 -41 23 -62.5t59 -21.5z" />
    <glyph glyph-name="nine.oldtab" 
d="M263 -105q-109 0 -170.5 50t-66.5 155v3h161v-3q4 -32 21.5 -50t52.5 -18q49 0 70 41.5t22 137.5v30q-19 -35 -53 -56t-88 -21q-40 0 -75 11.5t-61 36.5t-41 63.5t-15 91.5v27q0 53 17 96.5t49 74t78 47t103 16.5q131 0 195.5 -75.5t64.5 -207.5v-139
q0 -154 -69.5 -232.5t-194.5 -78.5zM268 285q35 0 59.5 22.5t24.5 67.5v26q0 42 -23 67.5t-61 25.5t-60.5 -25t-22.5 -67v-24q0 -45 22.5 -69t60.5 -24z" />
    <glyph glyph-name="four.oldtrap" horiz-adv-x="626" 
d="M338 46h-324v61l275 510h231v-447h85v-124h-85v-138h-182v138zM342 170v252l1 52l-22 -48l-136 -256h157z" />
    <glyph glyph-name="four.trap" horiz-adv-x="641" 
d="M342 142h-320v70l270 503h238v-438h84v-135h-84v-142h-188v142zM346 277v287l-26 -56l-121 -231h147z" />
    <glyph glyph-name="quotesinglbase.alt1" horiz-adv-x="245" 
d="M40 -22q66 6 71 44q-39 2 -59.5 23t-20.5 55q0 37 26 58t62 21q42 0 68.5 -26.5t26.5 -73.5v-13q0 -72 -45 -111.5t-129 -41.5v65z" />
    <glyph glyph-name="quotedblbase.alt1" horiz-adv-x="456" 
d="M250 -22q68 6 70 44q-38 2 -58.5 23t-20.5 55q0 37 26 58t63 21q41 0 67.5 -26.5t26.5 -73.5v-13q0 -72 -44.5 -111.5t-129.5 -41.5v65zM40 -22q66 6 71 44q-39 2 -59.5 23t-20.5 55q0 37 26 58t62 21q42 0 68.5 -26.5t26.5 -73.5v-13q0 -72 -45 -111.5t-129 -41.5v65z
" />
    <glyph glyph-name="quoteleft.alt1" horiz-adv-x="244" 
d="M206 654q-69 -6 -71 -44q38 -2 58.5 -23t20.5 -55q0 -37 -26 -58t-62 -21q-42 0 -68 26.5t-26 74.5v13q0 72 44.5 111t129.5 41v-65z" />
    <glyph glyph-name="quotedblleft.alt1" horiz-adv-x="456" 
d="M206 654q-69 -6 -71 -44q38 -2 58.5 -23t20.5 -55q0 -37 -26 -58t-62 -21q-42 0 -68 26.5t-26 74.5v13q0 72 44.5 111t129.5 41v-65zM416 654q-68 -6 -70 -44q38 -2 58.5 -23t20.5 -55q0 -37 -26 -58t-63 -21q-41 0 -67.5 26.5t-26.5 74.5v13q0 72 44.5 111t129.5 41v-65
z" />
    <glyph glyph-name="quoteright.alt1" horiz-adv-x="244" 
d="M40 520q33 3 51 15t20 30q-39 2 -59.5 23t-20.5 55q0 37 26 58t62 21q42 0 68.5 -26.5t26.5 -74.5v-13q0 -72 -45 -111.5t-129 -40.5v64z" />
    <glyph glyph-name="quotedblright.alt1" horiz-adv-x="456" 
d="M40 520q33 3 51 15t20 30q-39 2 -59.5 23t-20.5 55q0 37 26 58t62 21q42 0 68.5 -26.5t26.5 -74.5v-13q0 -72 -45 -111.5t-129 -40.5v64zM250 520q34 3 51.5 15t18.5 30q-38 2 -58.5 23t-20.5 55q0 37 26 58t63 21q41 0 67.5 -26.5t26.5 -74.5v-13q0 -72 -44.5 -111.5
t-129.5 -40.5v64z" />
    <glyph glyph-name="percent.alt" horiz-adv-x="789" 
d="M209 373q-43 0 -77 13.5t-57.5 37t-36 56t-12.5 70.5q0 37 14 69t38.5 54.5t58.5 35.5t73 13t72 -12.5t58 -35t39 -53.5t14 -69q0 -39 -13 -71.5t-37 -56.5t-58 -37.5t-76 -13.5zM594 715h94l-491 -715h-94zM210 474q26 0 41 20t15 55t-15 54.5t-41 19.5t-41.5 -19.5
t-15.5 -54.5q0 -36 15.5 -55.5t41.5 -19.5zM579 -11q-43 0 -77 13t-57.5 36.5t-36 56t-12.5 70.5q0 37 14 69t38.5 55t58.5 36t73 13t72.5 -12.5t58 -35t38.5 -53.5t14 -69q0 -39 -13 -72t-37 -56.5t-58 -37t-76 -13.5zM580 90q27 0 42 19.5t15 54.5q0 34 -15 54t-42 20
q-26 0 -41.5 -19.5t-15.5 -54.5q0 -36 15.5 -55t41.5 -19z" />
    <glyph glyph-name="perthousand.alt" horiz-adv-x="1172" 
d="M208 377q-43 0 -76.5 13t-57 36t-36 55t-12.5 70q0 37 14 69t38 54.5t57.5 35.5t72.5 13t72 -12.5t57.5 -34.5t38.5 -53.5t14 -68.5q0 -38 -13 -70.5t-36.5 -56t-57 -37t-75.5 -13.5zM592 715h94l-492 -715h-95zM208 479q26 0 40.5 19.5t14.5 53.5q0 33 -14.5 52
t-40.5 19t-40 -19t-14 -52q0 -35 14 -54t40 -19zM574 -11q-43 0 -76.5 13t-57 36t-36 55t-12.5 70q0 37 14 68.5t38.5 54t57.5 35.5t72 13t72 -12t57.5 -34.5t38.5 -53.5t14 -68q0 -38 -13 -70.5t-36.5 -56t-57 -37t-75.5 -13.5zM963 -11q-42 0 -76 13t-57 36t-35.5 55
t-12.5 70q0 37 14 68.5t38.5 54t57.5 35.5t72 13t72 -12t57.5 -34.5t38.5 -53.5t14 -68q0 -38 -13 -70.5t-36.5 -56t-57.5 -37t-76 -13.5zM574 90q26 0 40 19.5t14 53.5q0 33 -14 53t-40 20t-40 -19.5t-14 -53.5q0 -35 14 -54t40 -19zM964 90q26 0 40.5 19.5t14.5 53.5
q0 33 -14.5 53t-40.5 20t-40.5 -19.5t-14.5 -53.5q0 -35 14.5 -54t40.5 -19z" />
    <glyph glyph-name="comma.alt1" horiz-adv-x="282" 
d="M50 -34q75 8 78 48q-43 2 -65 24.5t-22 59.5q0 40 28.5 63t67.5 23q45 0 74.5 -29.5t29.5 -80.5v-14q0 -81 -50 -122t-141 -42v70z" />
    <glyph glyph-name="semicolon.alt1" horiz-adv-x="287" 
d="M142 279q-21 0 -39 7.5t-31.5 21t-21 31t-7.5 38.5q0 20 7.5 38t21 31t31.5 20.5t39 7.5q44 0 72.5 -28t28.5 -69q0 -42 -28.5 -70t-72.5 -28zM52 -34q75 7 78 48q-42 1 -64.5 24t-22.5 60q0 40 28.5 63t68.5 23q45 0 74.5 -29.5t29.5 -80.5v-14q0 -81 -50.5 -122
t-141.5 -42v70z" />
    <glyph glyph-name="dollar.old" horiz-adv-x="593" 
d="M568 211q0 -45 -14.5 -84t-43.5 -68.5t-73 -47.5t-103 -22v-115h-69v115q-115 8 -176 65.5t-66 151.5v3h166v-4q4 -35 21 -58.5t55 -31.5v164q-62 12 -105.5 29.5t-71.5 43t-40.5 60.5t-12.5 82q0 89 61.5 144.5t168.5 62.5v85h69v-86q101 -8 158 -55.5t65 -141.5v-3
h-163v3q-4 29 -17.5 46t-42.5 24v-148q52 -10 95 -24.5t74 -39t48 -61t17 -89.5zM196 509q0 -28 17 -43.5t52 -26.5v136q-33 -5 -51 -22t-18 -44zM334 115q34 6 51 25.5t17 49.5q0 29 -16.5 46t-51.5 28v-149z" />
    <glyph glyph-name="sterling.old" horiz-adv-x="600" 
d="M581 194q-2 -44 -14.5 -81t-35.5 -64t-57 -42t-79 -15q-34 0 -62.5 7.5t-52 16t-43.5 16t-36 7.5q-21 0 -31.5 -11t-12.5 -28h-140q3 53 24.5 96t62.5 64q5 13 7.5 29t2.5 36q0 30 -6 59h-75v107h47q-5 23 -9 47.5t-4 50.5q0 51 19 91t52.5 67.5t79.5 41.5t101 14
q125 0 184.5 -59t64.5 -161h-174q-5 40 -21 57.5t-48 17.5t-50.5 -19.5t-18.5 -57.5q0 -22 2 -44.5t5 -45.5h162v-107h-150q3 -29 3 -57q0 -36 -11 -64q26 -8 48.5 -15t42.5 -7q52 0 55 53h168v0z" />
    <glyph glyph-name="yen.old" horiz-adv-x="589" 
d="M394 169v-169h-192v169h-145v70h145v47h-145v70h123l-168 338h204l90 -224l90 224h180l-161 -338h124v-70h-145v-47h145v-70h-145z" />
    <glyph glyph-name="Euro.old" horiz-adv-x="653" 
d="M624 238q-13 -123 -79.5 -186.5t-192.5 -63.5q-65 0 -114.5 19t-84.5 54t-55 84t-25 108h-54v69h53v47h-53v69h55q5 60 27 109t59 83.5t86.5 53.5t110.5 19q119 0 185.5 -58t75.5 -178v-1h-176v2q-6 45 -26.5 67.5t-60.5 22.5q-46 0 -68.5 -32.5t-27.5 -87.5h148l-13 -69
h-136v-47h127l-11 -69h-115q5 -56 27.5 -86t70.5 -30q44 0 64 25t26 76v2h177v-2v0z" />
    <glyph glyph-name="dollar.oldtab" 
d="M530 208q0 -45 -13.5 -83t-40.5 -67t-68.5 -47t-97.5 -22v-115h-63v115q-109 8 -165.5 63t-60.5 154v4h152v-5q4 -36 20.5 -58.5t53.5 -30.5v163q-56 12 -97 28.5t-67.5 42t-39.5 60.5t-13 84v1q0 44 15 80.5t43 63t68 43t91 19.5v85h63v-85q94 -8 149 -56.5t60 -142.5
v-4h-151v4q-4 29 -17.5 45.5t-40.5 23.5v-147q48 -9 88 -24t69.5 -39.5t46 -61t16.5 -89.5v-2zM180 509q0 -27 15.5 -43.5t51.5 -27.5v135q-67 -9 -67 -64zM377 191q0 29 -16.5 46t-50.5 28v-150q32 6 49.5 25.5t17.5 49.5v1z" />
    <glyph glyph-name="sterling.oldtab" 
d="M533 194q-3 -94 -46 -148t-124 -54q-32 0 -57.5 7.5t-46.5 16t-38.5 16t-32.5 7.5q-19 0 -28.5 -11t-12.5 -28h-130q3 53 22.5 95.5t56.5 63.5q9 25 9 66q0 31 -6 61h-69v104h44q-6 23 -9.5 47.5t-3.5 51.5q0 52 17.5 92t48 67t73 41t92.5 14q115 0 169.5 -54.5
t57.5 -162.5v-5h-156v5q-5 42 -20 57t-44 15q-31 0 -49 -18t-18 -58v-1q0 -22 2 -44.5t5 -46.5h151v-104h-138q3 -29 3 -59q0 -36 -11 -64q25 -8 45.5 -14.5t38.5 -6.5q23 0 37.5 12t16.5 40h151v0z" />
    <glyph glyph-name="yen.oldtab" 
d="M371 180v-180h-185v180h-136v70h136v47h-136v70h125l-156 327h188l82 -206l79 206h165l-150 -327h128v-70h-140v-47h140v-70h-140z" />
    <glyph glyph-name="Euro.oldtab" 
d="M528 220q-1 -62 -16.5 -105.5t-45.5 -72t-72.5 -41.5t-97.5 -13q-112 0 -175 68t-63 198h-44v68h44v49h-44v69h44q0 64 18 113t50 82.5t76 50.5t97 17q51 0 92.5 -12.5t71 -39t46 -69t17.5 -102.5v-1h-159v2q-2 44 -17.5 62.5t-49.5 18.5q-38 0 -55.5 -29t-17.5 -93h134
l-11 -69h-123v-49h114l-11 -68h-103q0 -63 16.5 -93t58.5 -30q35 0 52 19.5t19 69.5v3h155v-3v0z" />
    <glyph glyph-name="registered.alt" horiz-adv-x="798" 
d="M764 362q0 -77 -28.5 -143.5t-78 -115t-116 -76t-143.5 -27.5q-76 0 -142.5 27.5t-115.5 75.5t-77.5 114t-28.5 143q0 76 28 142t77.5 115t116.5 77t144 28q78 0 144.5 -28t115.5 -76.5t76.5 -114t27.5 -141.5zM95 360q0 -70 24 -127.5t65.5 -98t96.5 -62.5t117 -22
q63 0 118.5 22.5t97 63.5t65.5 98.5t24 127.5q0 69 -23.5 126t-64.5 98t-96 63.5t-119 22.5q-65 0 -120.5 -22.5t-96.5 -63.5t-64.5 -98.5t-23.5 -127.5zM246 559h155q82 0 120.5 -31.5t38.5 -93.5v-3q0 -41 -17 -65t-45 -36l85 -162h-124l-70 138h-24v-138h-119v391z
M395 383q50 0 50 44v2q0 41 -49 41h-31v-87h30z" />
    <glyph glyph-name="commaaccent.alt1" horiz-adv-x="383" 
d="M119 -171q29 2 46.5 10.5t19.5 25.5q-71 -3 -71 52q0 23 19 37.5t49 14.5q35 0 56 -18t21 -54v-6q0 -50 -34 -78.5t-106 -30.5v47z" />
    <glyph glyph-name="commaaccent.alt1alt" horiz-adv-x="399" 
d="M199 573q-35 0 -55.5 17.5t-20.5 53.5v6q0 51 34 79.5t106 30.5v-47q-30 -2 -47 -10.5t-19 -25.5q34 2 52.5 -12t18.5 -40q0 -24 -19.5 -38t-49.5 -14z" />
    <glyph glyph-name="R.alt" horiz-adv-x="731" 
d="M541 333q76 -14 108.5 -58t32.5 -119v-156h-226v158q0 26 -3.5 44t-13.5 29t-28 16t-47 5h-71v-252h-227v715h329q141 0 210 -57.5t69 -150.5v-4q0 -78 -37 -117t-96 -53zM366 388q48 0 71 24t23 66v4q0 44 -24.5 64t-69.5 20h-73v-178h73z" />
    <glyph glyph-name="Racute.alt" horiz-adv-x="731" 
d="M327 901h180l-97 -144h-132zM541 333q76 -14 108.5 -58t32.5 -119v-156h-226v158q0 26 -3.5 44t-13.5 29t-28 16t-47 5h-71v-252h-227v715h329q141 0 210 -57.5t69 -150.5v-4q0 -78 -37 -117t-96 -53zM366 388q48 0 71 24t23 66v4q0 44 -24.5 64t-69.5 20h-73v-178h73z
" />
    <glyph glyph-name="Gdotaccent.alt" horiz-adv-x="810" 
d="M407 754q-40 0 -66.5 24.5t-26.5 62.5q0 37 26.5 62t66.5 25q39 0 65.5 -25t26.5 -62q0 -38 -26.5 -62.5t-65.5 -24.5zM765 397v-397h-174v110q-24 -59 -75.5 -91t-143.5 -32q-85 0 -149 27t-107.5 75.5t-65.5 115.5t-22 148v8q0 82 29 149.5t80 115.5t120 74t150 26
q65 0 125 -15t106.5 -48t76 -84t33.5 -123h-224q-5 45 -33.5 68.5t-81.5 23.5q-67 0 -106 -50t-39 -141v-8q0 -39 7.5 -74.5t25.5 -62t47 -42t73 -15.5q34 0 57.5 8.5t38.5 23t23 32.5t10 36h-124v142h343z" />
    <glyph glyph-name="G.alt" horiz-adv-x="810" 
d="M765 397v-397h-174v110q-24 -59 -75.5 -91t-143.5 -32q-85 0 -149 27t-107.5 75.5t-65.5 115.5t-22 148v8q0 82 29 149.5t80 115.5t120 74t150 26q65 0 125 -15t106.5 -48t76 -84t33.5 -123h-224q-5 45 -33.5 68.5t-81.5 23.5q-67 0 -106 -50t-39 -141v-8
q0 -39 7.5 -74.5t25.5 -62t47 -42t73 -15.5q34 0 57.5 8.5t38.5 23t23 32.5t10 36h-124v142h343z" />
    <glyph glyph-name="Gcircumflex.alt" horiz-adv-x="810" 
d="M335 902h146l105 -145h-124l-57 49l-58 -49h-121zM765 397v-397h-174v110q-24 -59 -75.5 -91t-143.5 -32q-85 0 -149 27t-107.5 75.5t-65.5 115.5t-22 148v8q0 82 29 149.5t80 115.5t120 74t150 26q65 0 125 -15t106.5 -48t76 -84t33.5 -123h-224q-5 45 -33.5 68.5
t-81.5 23.5q-67 0 -106 -50t-39 -141v-8q0 -39 7.5 -74.5t25.5 -62t47 -42t73 -15.5q34 0 57.5 8.5t38.5 23t23 32.5t10 36h-124v142h343z" />
    <glyph glyph-name="J.alt" horiz-adv-x="641" 
d="M583 262q0 -133 -68 -204t-210 -71q-80 0 -134 20.5t-87 57t-48.5 87t-17.5 111.5h220q1 -46 12.5 -71.5t46.5 -25.5q34 0 47 23t13 82v444h226v-453v0z" />
    <glyph glyph-name="Rcommaaccent.alt" horiz-adv-x="731" 
d="M541 333q76 -14 108.5 -58t32.5 -119v-156h-226v158q0 26 -3.5 44t-13.5 29t-28 16t-47 5h-71v-252h-227v715h329q141 0 210 -57.5t69 -150.5v-4q0 -78 -37 -117t-96 -53zM366 388q48 0 71 24t23 66v4q0 44 -24.5 64t-69.5 20h-73v-178h73zM266 -199l38 163l155 -6
l-94 -182z" />
    <glyph glyph-name="Q.alt" horiz-adv-x="822" 
d="M762 21q-1 -48 -14.5 -83t-36 -57t-51.5 -32.5t-61 -10.5q-48 0 -85 12t-66 26t-50.5 26t-36.5 12q-16 0 -25 -10t-12 -24h-138q4 44 21 80t46 61q-107 36 -166 122t-59 210v8q0 83 29.5 150.5t81 115t121.5 73.5t150 26q82 0 152.5 -24.5t122 -70.5t80.5 -112.5
t29 -151.5v-8q0 -70 -19 -126.5t-55 -99t-87.5 -70.5t-115.5 -41q24 -11 44.5 -19t36.5 -8q29 0 29 26h135zM412 165q67 0 106.5 49.5t39.5 139.5v8q0 91 -40 139t-108 48q-66 0 -105.5 -47.5t-39.5 -139.5v-8q0 -92 39.5 -140.5t107.5 -48.5z" />
    <glyph glyph-name="Gcommaaccent.alt" horiz-adv-x="810" 
d="M765 397v-397h-174v110q-24 -59 -75.5 -91t-143.5 -32q-85 0 -149 27t-107.5 75.5t-65.5 115.5t-22 148v8q0 82 29 149.5t80 115.5t120 74t150 26q65 0 125 -15t106.5 -48t76 -84t33.5 -123h-224q-5 45 -33.5 68.5t-81.5 23.5q-67 0 -106 -50t-39 -141v-8
q0 -39 7.5 -74.5t25.5 -62t47 -42t73 -15.5q34 0 57.5 8.5t38.5 23t23 32.5t10 36h-124v142h343zM292 -199l38 163l155 -6l-94 -182z" />
    <glyph glyph-name="Gbreve.alt" horiz-adv-x="810" 
d="M405 750q-71 0 -113 39.5t-47 111.5h111q2 -21 14.5 -33t34.5 -12t35.5 12.5t15.5 32.5h111q-5 -72 -48.5 -111.5t-113.5 -39.5zM765 397v-397h-174v110q-24 -59 -75.5 -91t-143.5 -32q-85 0 -149 27t-107.5 75.5t-65.5 115.5t-22 148v8q0 82 29 149.5t80 115.5t120 74
t150 26q65 0 125 -15t106.5 -48t76 -84t33.5 -123h-224q-5 45 -33.5 68.5t-81.5 23.5q-67 0 -106 -50t-39 -141v-8q0 -39 7.5 -74.5t25.5 -62t47 -42t73 -15.5q34 0 57.5 8.5t38.5 23t23 32.5t10 36h-124v142h343z" />
    <glyph glyph-name="Q.alt1" horiz-adv-x="822" 
d="M681 -134l-447 75l18 78q-106 37 -165 123.5t-59 210.5v8q0 83 29.5 150.5t81 115t121.5 73.5t150 26q82 0 152.5 -24.5t122 -70.5t80.5 -112.5t29 -151.5v-8q0 -122 -57 -201t-160 -113l139 -23zM412 165q67 0 106.5 49.5t39.5 139.5v8q0 91 -40 139t-108 48
q-66 0 -105.5 -47.5t-39.5 -139.5v-8q0 -92 39.5 -140.5t107.5 -48.5z" />
    <glyph glyph-name="Rcaron.alt" horiz-adv-x="731" 
d="M171 902h124l57 -50l58 50h121l-109 -145h-146zM541 333q76 -14 108.5 -58t32.5 -119v-156h-226v158q0 26 -3.5 44t-13.5 29t-28 16t-47 5h-71v-252h-227v715h329q141 0 210 -57.5t69 -150.5v-4q0 -78 -37 -117t-96 -53zM366 388q48 0 71 24t23 66v4q0 44 -24.5 64
t-69.5 20h-73v-178h73z" />
    <glyph glyph-name="Jcircumflex.alt" horiz-adv-x="641" 
d="M391 902h146l105 -145h-124l-57 49l-58 -49h-121zM583 262q0 -133 -68 -204t-210 -71q-80 0 -134 20.5t-87 57t-48.5 87t-17.5 111.5h220q1 -46 12.5 -71.5t46.5 -25.5q34 0 47 23t13 82v444h226v-453z" />
    <glyph glyph-name="M.alt" horiz-adv-x="959" 
d="M268 0h-202v715h321l75 -310l19 -95l20 95l75 310h317v-715h-226v484l-29 -117l-96 -367h-152l-95 367l-27 117v-484z" />
    <glyph glyph-name="six.angled" horiz-adv-x="628" 
d="M600 224q0 -55 -18.5 -99t-54 -74.5t-85.5 -46.5t-113 -16q-77 0 -132 22t-91 63t-53 98.5t-17 129.5v94q0 80 22.5 141.5t62 103.5t94 63.5t117.5 21.5q57 0 100 -14t73.5 -36t49.5 -50t27 -56l-181 -52q-8 28 -24 45t-46 17q-45 0 -72 -41t-29 -127v-32q22 39 58.5 62
t99.5 23q44 0 82.5 -13t67.5 -40t45.5 -67t16.5 -94v-26zM326 129q39 0 61.5 25.5t22.5 68.5v24q0 42 -21.5 67t-63.5 25q-38 0 -61.5 -25t-23.5 -67v-24q0 -41 22 -67.5t64 -26.5z" />
    <glyph glyph-name="G.sltangl" horiz-adv-x="717" 
d="M684 284q0 -68 -19.5 -122.5t-59 -93t-98.5 -59.5t-138 -21q-81 0 -143 23.5t-104.5 66t-64.5 103.5t-22 136v80q0 76 25.5 137t70 103.5t105.5 65t132 22.5q63 0 116 -15.5t93 -45.5t64 -74t29 -100l-193 -15q-1 16 -8 33.5t-20 31.5t-33 23t-47 9q-60 0 -96 -45.5
t-36 -128.5v-85q0 -38 7.5 -70.5t24 -55.5t42.5 -36t64 -13q62 0 90 32.5t30 84.5h-116v137h305v-108v0z" />
    <glyph glyph-name="s.angled" horiz-adv-x="506" 
d="M485 167q0 -46 -16.5 -80t-47.5 -56t-75 -32.5t-99 -10.5q-53 0 -93.5 12t-70 32t-46.5 46t-23 54l169 36q5 -26 21.5 -43.5t48.5 -17.5q26 0 39.5 11.5t13.5 29.5q0 23 -23 31.5t-74 18.5q-47 9 -81.5 21.5t-57 32t-33 47t-10.5 66.5q0 42 17.5 74t48 53.5t72 32.5
t89.5 11q51 0 89 -13t64.5 -32.5t41.5 -43.5t20 -46l-160 -34q-11 52 -60 52q-25 0 -38.5 -11t-13.5 -28q0 -20 20 -29t65 -17q51 -9 89 -22t63.5 -32.5t38 -47t12.5 -65.5z" />
    <glyph glyph-name="C.angled" horiz-adv-x="689" 
d="M667 212q-6 -21 -24 -59t-53 -74.5t-90 -63.5t-134 -27q-81 0 -143 23t-104 66t-63 104t-21 137v78q0 76 25 137t69 104t103.5 65.5t129.5 22.5q76 0 129.5 -22t88.5 -55t54 -71t27 -70l-200 -52q-6 22 -13.5 43t-19 37.5t-28.5 26.5t-42 10q-56 0 -88.5 -44t-32.5 -128
v-83q0 -85 32 -129t94 -44q28 0 48.5 11.5t34 29t22 38.5t14.5 41l185 -52v0z" />
    <glyph glyph-name="five.sltangl" horiz-adv-x="591" 
d="M559 230q0 -55 -18 -100t-51.5 -76.5t-83 -48.5t-112.5 -17q-75 0 -125.5 20.5t-82 53t-45.5 71t-16 74.5l179 10q1 -14 5.5 -28t14 -25.5t24.5 -19t37 -7.5q41 0 59.5 26.5t18.5 71.5v8q0 50 -24 75.5t-68 25.5q-39 0 -66 -15.5t-44 -35.5h-111l13 422h457v-146h-313
l-5 -164q20 28 57.5 50.5t98.5 22.5q44 0 81 -14.5t63.5 -44t41.5 -73t15 -101.5v-15v0z" />
    <glyph glyph-name="a.angled" horiz-adv-x="559" 
d="M339 60q-8 -13 -20 -25.5t-30 -23t-42.5 -17t-55.5 -6.5q-33 0 -63.5 8.5t-53 27.5t-36 48t-13.5 70v7q0 91 66 128t190 37h53v18q0 34 -11 55t-46 21q-26 0 -44.5 -16t-26.5 -42l-161 49q8 28 29 53t51.5 43.5t70.5 29.5t86 11q115 0 174.5 -47.5t59.5 -146.5v-342h-177
v60zM260 111q31 0 52.5 16.5t21.5 45.5v40h-47q-43 0 -62 -11t-19 -40v-6q0 -45 54 -45z" />
    <glyph glyph-name="G.angled" horiz-adv-x="717" 
d="M684 284q0 -68 -19.5 -122.5t-59 -93t-98.5 -59.5t-138 -21q-81 0 -143 23.5t-104.5 66t-64.5 103.5t-22 136v80q0 76 25.5 137t70 103.5t105 65t131.5 22.5q63 0 114 -14.5t89 -41t63 -62.5t37 -79l-193 -53q-6 20 -13.5 37.5t-19.5 31t-30.5 21t-45.5 7.5
q-60 0 -95.5 -45.5t-35.5 -128.5v-85q0 -38 7.5 -70.5t24 -55.5t42.5 -36t64 -13q62 0 90 32.5t30 84.5h-116v137h305v-108v0z" />
    <glyph glyph-name="e.angled" horiz-adv-x="574" 
d="M546 141q-6 -25 -24 -52t-49 -49.5t-75 -37t-101 -14.5q-60 0 -110.5 16.5t-86.5 48.5t-56 79.5t-20 109.5v35q0 61 21 109.5t57.5 81.5t86 50.5t105.5 17.5q53 0 99.5 -15t81.5 -46t55 -79t20 -115v-60h-343q4 -60 30 -83.5t64 -23.5q21 0 36 6t25 15.5t16 21t8 21.5z
M295 416q-32 0 -56 -20.5t-31 -75.5h166q-3 96 -79 96z" />
    <glyph glyph-name="six.sltangl" horiz-adv-x="628" 
d="M600 224q0 -55 -18.5 -99t-54 -74.5t-85.5 -46.5t-113 -16q-77 0 -132 22t-91 63t-53 98.5t-17 129.5v94q0 80 22.5 141.5t62 103.5t94.5 63.5t120 21.5q58 0 103.5 -14.5t78 -40t50.5 -61.5t20 -79l-181 -10q-2 26 -21 42.5t-49 16.5q-51 0 -77.5 -41t-28.5 -127v-32
q22 39 58.5 62t99.5 23q44 0 82.5 -13t67.5 -40t45.5 -67t16.5 -94v-26zM326 129q39 0 61.5 25.5t22.5 68.5v24q0 42 -21.5 67t-63.5 25q-38 0 -61.5 -25t-23.5 -67v-24q0 -41 22 -67.5t64 -26.5z" />
    <glyph glyph-name="g.angled" horiz-adv-x="611" 
d="M565 36q0 -115 -73 -171t-212 -56q-60 0 -105 12.5t-77 33.5t-50 47.5t-24 54.5l176 38q2 -9 7.5 -19t16 -19t26.5 -14.5t37 -5.5q51 0 72.5 26t21.5 69v85q-18 -38 -56 -64.5t-98 -26.5q-41 0 -77.5 14.5t-64 44t-43.5 73t-16 101.5v41q0 57 16 101t43.5 74t65 45.5
t79.5 15.5q58 0 94.5 -23.5t56.5 -64.5v75h184v-487zM298 155q41 0 64 27.5t23 76.5v39q0 49 -22.5 76.5t-63.5 27.5q-42 0 -65 -26.5t-23 -76.5v-43q0 -48 22.5 -74.5t64.5 -26.5z" />
    <glyph glyph-name="e.sltangl" horiz-adv-x="574" 
d="M554 160q-3 -32 -22.5 -63t-52.5 -55t-79.5 -39t-103.5 -15q-60 0 -110 16.5t-86 48.5t-56 79.5t-20 109.5v35q0 61 21 109.5t57.5 81.5t86 50.5t105.5 17.5q53 0 99.5 -15t81.5 -46t55 -79t20 -115v-60h-343q4 -60 29.5 -83.5t63.5 -23.5q40 0 61 21.5t23 42.5zM295 416
q-32 0 -56 -20.5t-31 -75.5h166q-3 96 -79 96z" />
    <glyph glyph-name="S.sltangl" horiz-adv-x="610" 
d="M580 219q0 -50 -18 -92t-52.5 -73t-86 -48.5t-117.5 -17.5q-65 0 -116 16t-86.5 45t-55.5 70t-23 92l187 10q3 -42 23.5 -66.5t70.5 -24.5q42 0 63 19t21 50q0 18 -6 30.5t-20 21t-36 15t-53 12.5q-63 13 -107.5 32t-72.5 46.5t-41 64.5t-13 86t18 89.5t51.5 69t82 44
t110.5 15.5q64 0 112 -15.5t79.5 -43t48.5 -65.5t20 -82l-182 -10q-2 32 -20 53.5t-59 21.5q-75 0 -75 -62q0 -30 22 -46t84 -29q56 -12 101.5 -27.5t78 -41t50 -64t17.5 -95.5z" />
    <glyph glyph-name="nine.sltangl" horiz-adv-x="629" 
d="M593 310q0 -161 -78 -241t-221 -80q-57 0 -103.5 14.5t-80 40t-52.5 61.5t-21 79l181 10q2 -27 22.5 -43t54.5 -16q50 0 76 37.5t28 122.5v37q-21 -38 -56.5 -60.5t-97.5 -22.5q-46 0 -85.5 13t-69 39.5t-46 66.5t-16.5 94v26q0 54 19 98t55 75t87 47.5t114 16.5
q73 0 127.5 -22t90.5 -62.5t54 -98.5t18 -130v-102zM302 586q-41 0 -63.5 -27t-22.5 -68v-23q0 -42 21 -67.5t63 -25.5q39 0 63 24.5t24 68.5v20q0 44 -22 71t-63 27z" />
    <glyph glyph-name="a.sltangl" horiz-adv-x="559" 
d="M339 60q-8 -13 -20 -25.5t-30 -23t-42.5 -17t-55.5 -6.5q-33 0 -63.5 8.5t-53 27.5t-36 48t-13.5 70v7q0 91 66 128t190 37h53v18q0 34 -11 55t-48 21q-26 0 -42.5 -16.5t-18.5 -40.5l-172 10q2 42 21 74.5t51.5 55t76 34t94.5 11.5q112 0 171.5 -47.5t59.5 -146.5v-342
h-177v60zM260 111q31 0 52.5 16.5t21.5 45.5v40h-47q-43 0 -62 -11t-19 -40v-6q0 -45 54 -45z" />
    <glyph glyph-name="C.sltangl" horiz-adv-x="689" 
d="M668 239q-3 -37 -20 -81t-52.5 -81.5t-92 -63t-137.5 -25.5t-143 23t-104 66t-63 104t-21 137v78q0 76 25 137t69 104t103.5 65.5t129.5 22.5t124.5 -18t92 -51t58.5 -78.5t24 -99.5l-200 -12q-3 47 -28.5 76.5t-73.5 29.5q-57 0 -89.5 -44t-32.5 -128v-83q0 -85 32 -129
t94 -44q26 0 46.5 10t35 26t22.5 35.5t10 38.5l191 -15v0z" />
    <glyph glyph-name="three.sltangl" horiz-adv-x="605" 
d="M572 206q0 -49 -17 -89t-51 -68.5t-84.5 -44.5t-117.5 -16q-72 0 -123 16.5t-84 46.5t-49 72t-19 93l176 10q1 -15 5 -31.5t13.5 -30.5t26.5 -23t44 -9q82 0 82 80v8q0 42 -21 63t-69 21h-48v124h46q47 0 68.5 21t21.5 60v3q0 33 -18 51.5t-54 18.5q-21 0 -36.5 -8
t-25.5 -20t-15 -27.5t-6 -30.5l-172 10q2 43 19 82.5t49 70t79.5 48.5t112.5 18q118 0 184.5 -51t66.5 -145v-3q0 -60 -32.5 -98.5t-89.5 -52.5q62 -11 100 -51.5t38 -109.5v-8v0z" />
    <glyph glyph-name="two.angled" horiz-adv-x="580" 
d="M549 0h-538v88l217 202q59 55 91.5 101.5t32.5 100.5v7q0 38 -17 58t-50 20q-35 0 -52.5 -30t-30.5 -74l-178 50q11 41 31.5 77.5t52.5 64.5t77.5 44t107.5 16q124 0 188 -60.5t64 -161.5v-9q0 -80 -40.5 -140.5t-117.5 -122.5l-103 -84h265v-147z" />
    <glyph glyph-name="three.angled" horiz-adv-x="605" 
d="M572 206q0 -49 -17 -89t-51.5 -68.5t-86 -44.5t-119.5 -16q-74 0 -123 19.5t-80 49t-47 64.5t-23 66l178 42q3 -15 9 -32t16.5 -31.5t26.5 -24t40 -9.5q79 0 79 80v8q0 42 -21 63t-69 21h-48v124h46q47 0 68.5 21t21.5 60v3q0 33 -17 51.5t-50 18.5q-20 0 -34.5 -7.5
t-25 -20.5t-17 -29t-11.5 -32l-172 50q9 30 29.5 62t53.5 58.5t78 44t104 17.5q115 0 180.5 -51t65.5 -145v-3q0 -60 -32.5 -98.5t-89.5 -52.5q62 -11 100 -51.5t38 -109.5v-8v0z" />
    <glyph glyph-name="c.sltangl" horiz-adv-x="558" 
d="M539 190q-3 -41 -20 -77.5t-48 -64.5t-77 -44t-107 -16q-56 0 -104 15.5t-83 47t-55.5 79t-20.5 111.5v36q0 64 21 112.5t57 81t84.5 49t102.5 16.5q49 0 92.5 -12.5t77 -37t54 -62.5t23.5 -89l-172 -10q-1 12 -5 25t-12.5 23t-21.5 16.5t-31 6.5q-39 0 -61.5 -27.5
t-22.5 -86.5v-41q0 -120 87 -120q33 0 54 21t24 61l164 -13v0z" />
    <glyph glyph-name="S.angled" horiz-adv-x="610" 
d="M580 219q0 -50 -18 -92t-53 -73t-87 -48.5t-120 -17.5q-62 0 -109.5 15t-81.5 40t-55 57.5t-31 67.5l183 51q11 -39 33.5 -64t66.5 -25q40 0 61 19t21 50q0 18 -6 30.5t-20 21t-36 15t-53 12.5q-63 13 -107.5 32t-72.5 46.5t-41 64.5t-13 86t18 89.5t52 69t83 44
t111 15.5q64 0 109.5 -15.5t76 -39.5t47.5 -53.5t25 -56.5l-181 -51q-9 32 -26 53.5t-57 21.5q-35 0 -53.5 -16t-18.5 -46t22 -46t84 -29q56 -12 101.5 -27.5t78 -41t50 -64t17.5 -95.5z" />
    <glyph glyph-name="five.angled" horiz-adv-x="591" 
d="M559 230q0 -55 -18 -100t-52.5 -76.5t-84 -48.5t-112.5 -17q-74 0 -123.5 20t-80.5 49t-46 61.5t-21 56.5l179 42q8 -36 26 -58t57 -22q41 0 60.5 26.5t19.5 71.5v8q0 50 -24 75.5t-68 25.5q-39 0 -66 -15.5t-44 -35.5h-111l13 422h457v-146h-313l-5 -164
q20 28 57.5 50.5t98.5 22.5q44 0 81 -14.5t63.5 -44t41.5 -73t15 -101.5v-15v0z" />
    <glyph glyph-name="two.sltangl" horiz-adv-x="580" 
d="M549 0h-538v88l217 202q59 55 91.5 102t32.5 100v7q0 38 -17 58t-51 20q-21 0 -36 -9.5t-24.5 -25t-15 -35t-6.5 -39.5l-178 13q3 48 20 92.5t49.5 78t81.5 53.5t116 20q126 0 190 -60.5t64 -162.5v-8q0 -40 -10 -74t-30 -65.5t-49.5 -62t-68.5 -61.5l-103 -84h265v-147z
" />
    <glyph glyph-name="s.sltangl" horiz-adv-x="506" 
d="M485 168q0 -93 -64 -136.5t-172 -43.5t-166.5 46.5t-63.5 123.5l169 10q2 -25 17.5 -43t47.5 -18q26 0 39.5 11.5t13.5 29.5q0 24 -23 33t-74 17q-48 8 -82.5 20t-57 31t-33.5 47t-11 69q0 42 17.5 74t47.5 53.5t71 32.5t89 11q55 0 96 -13t68.5 -34.5t41.5 -50.5t16 -61
l-166 -10q-2 25 -18.5 38.5t-40.5 13.5q-26 0 -39 -11t-13 -28q0 -22 20.5 -30.5t66.5 -15.5q51 -9 89 -20.5t63.5 -30.5t38 -47t12.5 -68z" />
    <glyph glyph-name="c.angled" horiz-adv-x="558" 
d="M539 170q-6 -30 -24 -62t-48.5 -58.5t-74 -44t-101.5 -17.5q-57 0 -105.5 15.5t-84.5 47t-56.5 79t-20.5 111.5v36q0 64 21 112.5t57 81t84.5 49t102.5 16.5q55 0 97 -12t72 -33.5t49 -51t29 -63.5l-172 -51q-3 10 -7 22.5t-12 23.5t-20.5 18t-32.5 7q-37 0 -59.5 -27.5
t-22.5 -86.5v-41q0 -120 88 -120q20 0 34.5 8t24.5 20.5t15.5 27t8.5 26.5l158 -33v0z" />
    <glyph glyph-name="nine.angled" horiz-adv-x="629" 
d="M593 310q0 -161 -79 -241t-225 -80q-57 0 -102 15t-78 39t-53 52.5t-28 55.5l181 53q3 -11 9.5 -23.5t16.5 -22.5t24.5 -16.5t34.5 -6.5q51 0 77 37.5t28 122.5v37q-21 -38 -56.5 -60.5t-97.5 -22.5q-46 0 -85.5 13t-69 39.5t-46 66.5t-16.5 94v26q0 54 19 98t55 75
t87 47.5t114 16.5q73 0 127.5 -22t90.5 -62.5t54 -98.5t18 -130v-102zM302 586q-41 0 -63.5 -27t-22.5 -68v-23q0 -42 21 -67.5t63 -25.5q39 0 63 24.5t24 68.5v20q0 44 -22 71t-63 27z" />
    <glyph glyph-name="g.sltangl" horiz-adv-x="611" 
d="M565 36q0 -115 -72 -171t-207 -56q-61 0 -108.5 14t-81 37.5t-51.5 54.5t-21 66l181 14q1 -10 5.5 -20t14.5 -18.5t25 -14t37 -5.5q51 0 72.5 26t21.5 69v85q-18 -38 -56 -64.5t-98 -26.5q-41 0 -77.5 14.5t-64 44t-43.5 73t-16 101.5v41q0 57 16 101t43.5 74t65 45.5
t79.5 15.5q58 0 94.5 -23.5t56.5 -64.5v75h184v-487zM298 155q41 0 64 27.5t23 76.5v39q0 49 -22.5 76.5t-63.5 27.5q-42 0 -65 -26.5t-23 -76.5v-43q0 -48 22.5 -74.5t64.5 -26.5z" />
    </font>
</defs>
</svg>
